<svg width="144.154297" height="78.999878" viewBox="0 0 144.154 78.9999" fill="none" xmlns="http://www.w3.org/2000/svg" xmlns:xlink="http://www.w3.org/1999/xlink">
	<desc>
			Created with Pixso.
	</desc>
	<defs/>
	<path id="Vector" d="M113.539 77.9999C105.359 77.9999 98.7305 71.3702 98.7305 63.1923C98.7305 55.0142 105.359 48.3845 113.539 48.3845C121.717 48.3845 128.346 55.0142 128.346 63.1923C128.346 71.3702 121.717 77.9999 113.539 77.9999Z" stroke="#669BB5" stroke-opacity="1.000000" stroke-width="2.000000"/>
	<path id="Vector" d="M30.6152 77.9999C22.4355 77.9999 15.8066 71.3702 15.8066 63.1923C15.8066 55.0142 22.4355 48.3845 30.6152 48.3845C38.793 48.3845 45.4219 55.0142 45.4219 63.1923C45.4219 71.3702 38.793 77.9999 30.6152 77.9999Z" stroke="#669BB5" stroke-opacity="1.000000" stroke-width="2.000000"/>
	<path id="Vector" d="M128.346 63.1924L137.23 63.1924C140.367 63.1924 143.154 60.4055 143.154 57.2693L143.154 39.5C143.154 33.8435 125.385 27.6538 110.576 24.6924C105.602 23.6973 92.8086 6.9231 92.8086 6.9231C89.8457 3.96155 86.8848 1 80.9609 1C80.9609 1 56.8809 1 54.3438 1C51.8047 1 48.3848 1.97437 48.3848 6.61511C48.3848 11.2559 48.3848 24.6924 48.3848 24.6924L9.88477 24.6924C4.90625 24.6924 1 27.0052 1 33.5769L1 58.1814C1 61.3177 3.78711 63.1924 6.92383 63.1924L15.8086 63.1924M45.4238 63.1924L98.7305 63.1924" stroke="#669BB5" stroke-opacity="1.000000" stroke-width="2.000000"/>
	<path id="Vector" d="M12.8477 24.6924L110.578 24.6924" stroke="#669BB5" stroke-opacity="1.000000" stroke-width="2.000000" stroke-linejoin="round" stroke-linecap="round"/>
	<path id="Vector" d="M69.1152 1L69.1152 24.6924" stroke="#669BB5" stroke-opacity="1.000000" stroke-width="2.000000"/>
</svg>
