<svg width="67.886719" height="100.000000" viewBox="0 0 67.8867 100" fill="none" xmlns="http://www.w3.org/2000/svg" xmlns:xlink="http://www.w3.org/1999/xlink">
	<desc>
			Created with Pixso.
	</desc>
	<defs/>
	<path id="Vector" d="M51.041 74.1654C50.873 73.8883 50.6016 73.6892 50.2852 73.6119C49.9688 73.5345 49.6348 73.5853 49.3574 73.7529L43.2598 77.4352C43.1152 77.5229 42.9902 77.6393 42.8945 77.7769C42.7969 77.9144 42.7285 78.0703 42.6934 78.2349C42.6602 78.3994 42.6602 78.5692 42.6953 78.7335C42.7305 78.8978 42.7988 79.0531 42.8984 79.1897L46.7188 84.5352C45.2852 86.1848 41.0781 90.521 33.9434 93.7816C26.8359 90.5323 22.6074 86.1848 21.1699 84.5352L25 79.1919C25.0977 79.0548 25.166 78.8992 25.2012 78.7347C25.2363 78.5703 25.2363 78.4005 25.2012 78.236C25.168 78.0715 25.0996 77.9156 25.002 77.7783C24.9062 77.641 24.7812 77.5249 24.6367 77.4374L18.5391 73.7529C18.2617 73.585 17.9277 73.5339 17.6113 73.6111C17.2949 73.6882 17.0215 73.8872 16.8535 74.1643C16.6855 74.4413 16.6328 74.7738 16.7109 75.0885C16.7891 75.4032 16.9883 75.6744 17.2676 75.8424L22.2344 78.8387L18.627 83.8744C18.4766 84.0837 18.3965 84.3353 18.3984 84.5929C18.4004 84.8505 18.4844 85.1007 18.6387 85.3076C18.834 85.5742 23.5801 91.879 33.4453 96.2448C33.6016 96.3141 33.7715 96.3497 33.9434 96.3496C34.1152 96.35 34.2832 96.3142 34.4395 96.2448C44.3047 91.8882 49.0508 85.5834 49.2461 85.3076C49.4004 85.1007 49.4844 84.8505 49.4863 84.5929C49.4902 84.3353 49.4102 84.0837 49.2578 83.8744L45.6504 78.8387L50.6172 75.8401C50.7559 75.7581 50.877 75.6495 50.9746 75.5209C51.0703 75.3922 51.1406 75.2458 51.1797 75.0903C51.2188 74.9347 51.2266 74.7729 51.2031 74.6141C51.1797 74.4554 51.125 74.303 51.041 74.1654Z" fill="#669BB5" fill-opacity="1.000000" fill-rule="nonzero"/>
	<path id="Vector" d="M0 98.7787C0 99.1025 0.128906 99.4132 0.359375 99.6422C0.589844 99.8713 0.902344 100 1.22656 100L66.6582 100C66.9844 100 67.2969 99.8713 67.5273 99.6422C67.7559 99.4132 67.8867 99.1025 67.8867 98.7787L67.8867 96.5001C67.8867 90.7566 66.3926 85.111 63.5469 80.1144C60.7031 75.1179 56.6035 70.9414 51.6523 67.9928C51.5156 67.9104 51.3613 67.8558 51.2031 67.8324C51.043 67.809 50.8809 67.8169 50.7246 67.856C50.5684 67.895 50.4199 67.9644 50.291 68.0599C50.1621 68.1555 50.0527 68.2756 49.9707 68.4132C49.8867 68.5509 49.832 68.7034 49.8086 68.8622C49.7852 69.0209 49.793 69.1826 49.832 69.3383C49.8711 69.4939 49.9414 69.6403 50.0371 69.7692C50.1328 69.8979 50.2539 70.0067 50.3926 70.0891C54.9668 72.8356 58.7539 76.7087 61.3887 81.3354C64.0234 85.9622 65.416 91.1864 65.4316 96.5046L65.4316 97.5551L2.45312 97.5551L2.45312 96.5046C2.45508 90.9805 3.94922 85.5585 6.7793 80.8068C9.60938 76.0552 13.6719 72.1487 18.5391 69.4967C18.8262 69.3408 19.0371 69.0785 19.127 68.7673C19.2188 68.4563 19.1816 68.1219 19.0254 67.8379C18.8691 67.5538 18.6055 67.3434 18.293 67.2528C17.9805 67.1622 17.6445 67.199 17.3594 67.3549C12.1055 70.2173 7.72266 74.4337 4.66797 79.5623C1.61328 84.6908 0.00195312 90.5426 0 96.5046L0 98.7787Z" fill="#669BB5" fill-opacity="1.000000" fill-rule="nonzero"/>
	<path id="Vector" d="M33.9434 0.00012207C27.3496 0.00793457 21.0254 2.61963 16.3613 7.26245C11.6973 11.9053 9.07422 18.2 9.06641 24.7659L9.06641 48.6044C9.06836 50.4059 9.78711 52.1331 11.0684 53.407C12.3477 54.6808 14.082 55.3972 15.8926 55.399L18.9551 55.399C19.2793 55.399 19.5918 55.2704 19.8223 55.0414C20.0527 54.8123 20.1816 54.5016 20.1816 54.1777C20.1816 53.8538 20.0527 53.5432 19.8223 53.3141C19.5918 53.0851 19.2793 52.9564 18.9551 52.9564L15.8926 52.9564C14.7324 52.9552 13.6211 52.4963 12.8027 51.6804C11.9824 50.8645 11.5215 49.7582 11.5195 48.6044L11.5195 24.7659C11.5879 18.9712 13.916 13.4298 18.0137 9.31262C22.1094 5.19556 27.6543 2.82507 33.4746 2.70239C39.2949 2.57959 44.9336 4.71399 49.2031 8.65479C53.4707 12.5955 56.0332 18.0337 56.3477 23.8203C56.3652 24.1416 56.5078 24.4434 56.748 24.6599C56.9863 24.8765 57.3008 24.9904 57.625 24.9769C57.9473 24.9634 58.252 24.8236 58.4727 24.5878C58.6914 24.3521 58.8105 24.0393 58.7988 23.7178C58.5449 17.3311 55.8125 11.2913 51.1777 6.86816C46.543 2.44519 40.3652 -0.0167236 33.9434 0.00012207Z" fill="#669BB5" fill-opacity="1.000000" fill-rule="nonzero"/>
	<path id="Vector" d="M58.8242 33.8323L58.8242 31.925C58.8223 30.481 58.2461 29.0962 57.2207 28.0748C56.1953 27.0535 54.8047 26.4788 53.3535 26.4771L51.043 26.4771C50.9004 26.4221 50.748 26.3936 50.5957 26.3927C36.0742 26.3927 32.0742 15.77 31.9141 15.321C31.8301 15.085 31.6758 14.8802 31.4707 14.7344C31.2656 14.5886 31.0215 14.5087 30.7695 14.5054C30.5195 14.5077 30.2754 14.5861 30.0703 14.7302C29.8652 14.8744 29.7109 15.0774 29.625 15.312C26.2129 24.6382 18.5391 26.3494 18.2227 26.4155C17.9453 26.4727 17.6973 26.623 17.5176 26.8413C17.3398 27.0597 17.2422 27.3325 17.2422 27.614L17.2422 38.1843C17.2461 41.1758 18.0312 44.1146 19.5234 46.7117C21.0156 49.3086 23.1602 51.4742 25.748 52.995L25.748 61.567C25.7461 62.1959 25.5352 62.8068 25.1484 63.3033L24.1914 64.5292C23.582 65.3129 23.207 66.2509 23.1074 67.2365C23.0078 68.222 23.1875 69.2158 23.625 70.1049L32.8438 88.6365C32.9453 88.8407 33.1016 89.0126 33.2949 89.1327C33.4902 89.2529 33.7148 89.3167 33.9434 89.3167C34.1719 89.3167 34.3965 89.2529 34.5898 89.1327C34.7852 89.0126 34.9414 88.8407 35.043 88.6365L44.2617 70.1162C44.8574 68.9261 44.9766 67.5553 44.5938 66.2814C44.4922 65.9841 44.2793 65.7374 43.998 65.5927C43.7188 65.448 43.3926 65.4163 43.0898 65.5044C42.7871 65.5924 42.5293 65.7933 42.3711 66.0653C42.2129 66.3374 42.166 66.6595 42.2422 66.965C42.4453 67.6465 42.3809 68.3792 42.0625 69.0157L33.9434 85.3325L25.8223 69.0203C25.5879 68.5431 25.4922 68.0099 25.5449 67.481C25.5996 66.9521 25.8008 66.4489 26.127 66.0284L27.084 64.8026C27.8066 63.8774 28.1992 62.7391 28.2012 61.567L28.2012 54.1981C30.7363 55.1921 33.4688 55.5756 36.1816 55.3171C38.8926 55.0588 41.5039 54.1659 43.8027 52.7114C46.1016 51.257 48.0215 49.282 49.4082 46.9479C50.793 44.6136 51.6055 41.9863 51.7773 39.2803L53.3398 39.2803C54.0605 39.2812 54.7715 39.141 55.4375 38.8677C56.1016 38.5944 56.707 38.1932 57.2168 37.6873C57.7246 37.1814 58.1289 36.5806 58.4062 35.9191C58.6816 35.2576 58.8242 34.5485 58.8242 33.8323ZM49.3711 38.0521L49.3711 38.1775C49.373 40.6721 48.7402 43.1266 47.5312 45.3118C46.3223 47.4971 44.5781 49.3418 42.459 50.674C40.3398 52.0061 37.916 52.7822 35.416 52.9299C32.9141 53.0776 30.416 52.592 28.1523 51.5186C28.0859 51.2585 27.9336 51.0282 27.7188 50.8634C27.5059 50.6985 27.2441 50.6084 26.9746 50.6071C26.8555 50.6084 26.7363 50.6277 26.6211 50.6641C24.502 49.334 22.7559 47.4911 21.543 45.3073C20.332 43.1234 19.6973 40.6698 19.6953 38.1752L19.6953 28.5391C21.9375 27.8191 27.4551 25.4197 30.8496 18.6205C31.7207 20.0461 32.7637 21.3615 33.9531 22.5374C36.7188 25.2716 41.5977 28.5004 49.3711 28.8103L49.3711 38.0521ZM56.3652 33.8254C56.3652 34.6221 56.0488 35.3862 55.4824 35.9497C54.916 36.5133 54.1504 36.8302 53.3496 36.8308L51.8242 36.8308L51.8242 28.9219L53.3496 28.9219C54.1484 28.9225 54.916 29.2391 55.4824 29.8021C56.0469 30.3652 56.3652 31.1288 56.3652 31.925L56.3652 33.8254Z" fill="#669BB5" fill-opacity="1.000000" fill-rule="nonzero"/>
	<path id="Vector" d="M37.5 56.7959L36.1895 56.7959C35.0254 56.797 33.9082 57.2582 33.084 58.0779C32.2617 58.8976 31.7988 60.0092 31.7969 61.1685L31.7969 62.6609C31.7969 62.8213 31.8281 62.9801 31.8906 63.1283C31.9512 63.2765 32.043 63.4111 32.1562 63.5245C32.2695 63.6379 32.4062 63.7279 32.5547 63.7892C32.7031 63.8506 32.8633 63.8822 33.0234 63.8822L44.1289 63.8822C47.123 63.8785 49.9922 62.692 52.1094 60.583C54.2246 58.4741 55.4121 55.6155 55.4121 52.6351L55.4121 45.15C55.3984 44.835 55.2617 44.5374 55.0332 44.3192C54.8047 44.1011 54.5 43.9792 54.1836 43.9792C53.8672 43.9792 53.5625 44.1011 53.334 44.3192C53.1035 44.5374 52.9688 44.835 52.9551 45.15L52.9551 52.6351C52.9551 54.9661 52.0254 57.2014 50.3711 58.8505C48.7148 60.4995 46.4707 61.4275 44.1289 61.4304L41.8867 61.4304L41.8867 61.1685C41.8848 60.0103 41.4238 58.8999 40.6016 58.0803C39.7793 57.2607 38.6641 56.7988 37.5 56.7959ZM39.4395 61.4304L34.25 61.4304L34.25 61.1685C34.252 60.6567 34.4551 60.1663 34.8184 59.8044C35.1816 59.4426 35.6758 59.2391 36.1895 59.2385L37.5 59.2385C38.0156 59.2391 38.5078 59.4426 38.8711 59.8044C39.2344 60.1663 39.4395 60.6567 39.4395 61.1685L39.4395 61.4304Z" fill="#669BB5" fill-opacity="1.000000" fill-rule="nonzero"/>
</svg>
