<svg width="95.000000" height="98.025513" viewBox="0 0 95 98.0255" fill="none" xmlns="http://www.w3.org/2000/svg" xmlns:xlink="http://www.w3.org/1999/xlink">
	<desc>
			Created with Pixso.
	</desc>
	<defs/>
	<path id="medical equipment" d="M87 0C91.418 0 95 3.58167 95 8L95 74.293C95 78.7113 91.418 82.293 87 82.293L76.123 82.293L76.123 90.7643L74.123 90.7643L74.123 82.2928L22.877 82.293L22.877 90.7643L20.877 90.7643L20.877 82.2928L8 82.293C3.58203 82.293 0 78.7113 0 74.293L0 8C0 3.58167 3.58203 0 8 0L87 0ZM93 8C93 4.68628 90.3145 2 87 2L8 2C4.68555 2 2 4.68628 2 8L2 74.293C2 77.6067 4.68555 80.293 8 80.293L87 80.293C90.3145 80.293 93 77.6067 93 74.293L93 8ZM10.8926 6.35339L84.1094 6.35339L84.1094 64.14L10.8926 64.14L10.8926 6.35339ZM12.8926 8.35339L12.8926 62.14L82.1094 62.14L82.1094 8.35339L12.8926 8.35339ZM15.7324 39.9952L43.7578 39.9952L50.6211 28.6141L55.4531 38.5717L64.1016 18.0319L71.3672 39.9952L79.5703 39.9952L79.5703 41.9952L69.9219 41.9952L63.877 23.7198L55.582 43.4188L50.4297 32.8031L44.8887 41.9952L15.7324 41.9952L15.7324 39.9952ZM26.9258 71.0986C26.9258 69.0936 28.5527 67.4681 30.5566 67.4681C32.5625 67.4681 34.1875 69.0936 34.1875 71.0986C34.1875 73.1038 32.5625 74.7292 30.5566 74.7292C28.5527 74.7292 26.9258 73.1038 26.9258 71.0986ZM43.8711 71.0986C43.8711 69.0936 45.4961 67.4681 47.5 67.4681C49.5059 67.4681 51.1309 69.0936 51.1309 71.0986C51.1309 73.1038 49.5059 74.7292 47.5 74.7292C45.4961 74.7292 43.8711 73.1038 43.8711 71.0986ZM60.8105 71.0986C60.8105 69.0936 62.4375 67.4681 64.4414 67.4681C66.4473 67.4681 68.0723 69.0936 68.0723 71.0986C68.0723 73.1038 66.4473 74.7292 64.4414 74.7292C62.4375 74.7292 60.8105 73.1038 60.8105 71.0986ZM30.5566 69.4681C29.6562 69.4681 28.9258 70.1981 28.9258 71.0986C28.9258 71.9993 29.6562 72.7292 30.5566 72.7292C31.457 72.7292 32.1875 71.9993 32.1875 71.0986C32.1875 70.1981 31.457 69.4681 30.5566 69.4681ZM47.5 69.4681C46.5996 69.4681 45.8711 70.1981 45.8711 71.0986C45.8711 71.9993 46.5996 72.7292 47.5 72.7292C48.4004 72.7292 49.1309 71.9993 49.1309 71.0986C49.1309 70.1981 48.4004 69.4681 47.5 69.4681ZM64.4414 69.4681C63.541 69.4681 62.8105 70.1981 62.8105 71.0986C62.8105 71.9993 63.541 72.7292 64.4414 72.7292C65.3418 72.7292 66.0723 71.9993 66.0723 71.0986C66.0723 70.1981 65.3418 69.4681 64.4414 69.4681ZM75.6387 90.7644C77.6426 90.7644 79.2676 92.3899 79.2676 94.395C79.2676 96.4001 77.6426 98.0255 75.6387 98.0255L18.457 98.0255C16.4512 98.0255 14.8262 96.4001 14.8262 94.395C14.8262 92.3899 16.4512 90.7644 18.457 90.7644L75.6387 90.7644ZM77.2676 94.395C77.2676 93.4944 76.5391 92.7644 75.6387 92.7644L18.457 92.7644C17.5547 92.7644 16.8262 93.4944 16.8262 94.395C16.8262 95.2955 17.5547 96.0255 18.457 96.0255L75.6387 96.0255C76.5391 96.0255 77.2676 95.2955 77.2676 94.395Z" clip-rule="evenodd" fill="#669BB5" fill-opacity="1.000000" fill-rule="evenodd"/>
</svg>
