<svg width="127.560547" height="70.929688" viewBox="0 0 127.561 70.9297" fill="none" xmlns="http://www.w3.org/2000/svg" xmlns:xlink="http://www.w3.org/1999/xlink">
	<desc>
			Created with Pixso.
	</desc>
	<defs/>
	<path id="Vector" d="M86.4121 60.0361L39.1992 60.0361C39.0449 60.0361 38.8965 60.0974 38.7871 60.2065C38.6777 60.3156 38.6172 60.4636 38.6172 60.6178C38.6172 60.7721 38.6777 60.9202 38.7871 61.0292C38.8965 61.1383 39.0449 61.1996 39.1992 61.1996L86.4121 61.1996C86.5664 61.1996 86.7148 61.1383 86.8242 61.0292C86.9336 60.9202 86.9941 60.7721 86.9941 60.6178C86.9941 60.4636 86.9336 60.3156 86.8242 60.2065C86.7148 60.0974 86.5664 60.0361 86.4121 60.0361Z" fill="#669BB5" fill-opacity="1.000000" fill-rule="nonzero"/>
	<path id="Vector" d="M96.2129 8.28369L8.08789 8.28369C7.93359 8.28369 7.78516 8.34497 7.67578 8.4541C7.56641 8.56311 7.50586 8.71118 7.50586 8.86536C7.50586 9.01965 7.56641 9.16772 7.67578 9.27673C7.78516 9.38586 7.93359 9.44714 8.08789 9.44714L96.2129 9.44714C96.3672 9.44714 96.5156 9.38586 96.625 9.27673C96.7344 9.16772 96.7949 9.01965 96.7949 8.86536C96.7949 8.71118 96.7344 8.56311 96.625 8.4541C96.5156 8.34497 96.3672 8.28369 96.2129 8.28369Z" fill="#669BB5" fill-opacity="1.000000" fill-rule="nonzero"/>
	<path id="Vector" d="M99.3281 49.595C97.2168 49.595 95.1543 50.2206 93.4004 51.3927C91.6465 52.5649 90.2793 54.231 89.4727 56.1801C88.6641 58.1293 88.4531 60.2742 88.8652 62.3434C89.2773 64.4127 90.293 66.3134 91.7852 67.8053C93.2773 69.2971 95.1777 70.3131 97.2461 70.7247C99.3164 71.1362 101.461 70.925 103.41 70.1177C105.359 69.3103 107.025 67.943 108.197 66.1887C109.369 64.4346 109.994 62.3721 109.994 60.2623C109.992 57.4341 108.867 54.7227 106.867 52.7229C104.867 50.723 102.156 49.5981 99.3281 49.595ZM99.3281 69.7664C97.4473 69.7664 95.6094 69.2089 94.0469 68.1647C92.4844 67.1204 91.2656 65.636 90.5469 63.8994C89.8281 62.1628 89.6387 60.2518 90.0059 58.4083C90.373 56.5647 91.2773 54.8713 92.6074 53.5421C93.9355 52.213 95.6289 51.3079 97.4727 50.9412C99.3164 50.5745 101.229 50.7627 102.965 51.4819C104.701 52.2013 106.186 53.4194 107.23 54.9823C108.273 56.5453 108.832 58.3827 108.832 60.2625C108.828 62.7821 107.826 65.1979 106.045 66.9795C104.264 68.7612 101.848 69.7634 99.3281 69.7664Z" fill="#669BB5" fill-opacity="1.000000" fill-rule="nonzero"/>
	<path id="Vector" d="M99.3281 54.6262C98.2129 54.6262 97.123 54.9568 96.1973 55.576C95.2695 56.1953 94.5469 57.0756 94.1211 58.1055C93.6934 59.1353 93.582 60.2686 93.7988 61.3618C94.0176 62.4552 94.5547 63.4595 95.3418 64.2477C96.1309 65.0359 97.1348 65.5726 98.2285 65.7902C99.3203 66.0076 100.455 65.896 101.484 65.4694C102.514 65.0428 103.395 64.3204 104.014 63.3936C104.633 62.4667 104.963 61.377 104.963 60.2623C104.963 58.7681 104.367 57.3354 103.311 56.2788C102.254 55.2223 100.822 54.6279 99.3281 54.6262ZM99.3281 64.735C98.4434 64.735 97.5781 64.4727 96.8418 63.9812C96.1074 63.4897 95.5332 62.7913 95.1953 61.974C94.8574 61.1567 94.7676 60.2574 94.9414 59.3898C95.1133 58.5222 95.5391 57.7252 96.1641 57.0997C96.791 56.4742 97.5879 56.0482 98.4551 55.8756C99.3223 55.703 100.223 55.7916 101.039 56.1301C101.855 56.4686 102.555 57.0419 103.047 57.7775C103.537 58.5129 103.801 59.3777 103.801 60.2623C103.799 61.4481 103.328 62.585 102.488 63.4235C101.65 64.262 100.514 64.7336 99.3281 64.735Z" fill="#669BB5" fill-opacity="1.000000" fill-rule="nonzero"/>
	<path id="Vector" d="M25.625 49.595C23.5137 49.595 21.4531 50.2206 19.6973 51.3927C17.9434 52.5649 16.5762 54.231 15.7695 56.1801C14.9609 58.1293 14.75 60.2742 15.1621 62.3434C15.5742 64.4127 16.5898 66.3134 18.082 67.8053C19.5742 69.2971 21.4746 70.3131 23.543 70.7247C25.6133 71.1362 27.7578 70.925 29.707 70.1177C31.6562 69.3103 33.3223 67.943 34.4941 66.1887C35.666 64.4346 36.291 62.3721 36.291 60.2623C36.2891 57.4341 35.1641 54.7227 33.1641 52.7229C31.1641 50.723 28.4531 49.5981 25.625 49.595ZM25.625 69.7664C23.7441 69.7664 21.9062 69.2089 20.3438 68.1647C18.7812 67.1204 17.5625 65.636 16.8438 63.8994C16.125 62.1628 15.9355 60.2518 16.3027 58.4083C16.6699 56.5647 17.5742 54.8713 18.9043 53.5421C20.2324 52.213 21.9258 51.3079 23.7695 50.9412C25.6133 50.5745 27.5254 50.7627 29.2617 51.4819C30.998 52.2013 32.4824 53.4194 33.5273 54.9823C34.5703 56.5453 35.1289 58.3827 35.1289 60.2625C35.125 62.7821 34.123 65.1979 32.3418 66.9796C30.5605 68.7612 28.1445 69.7634 25.625 69.7664Z" fill="#669BB5" fill-opacity="1.000000" fill-rule="nonzero"/>
	<path id="Vector" d="M24.8926 54.6731C23.6641 54.8414 22.5234 55.4075 21.6465 56.2847C20.7695 57.1619 20.2031 58.302 20.0352 59.531C19.9316 60.326 20 61.134 20.2324 61.901C20.4668 62.6678 20.8613 63.3762 21.3906 63.9788C21.9199 64.5813 22.5703 65.0642 23.3008 65.3951C24.0312 65.7262 24.8242 65.8978 25.625 65.8986C25.8691 65.8986 26.1133 65.8829 26.3555 65.8521C27.5859 65.6838 28.7246 65.118 29.6016 64.241C30.4805 63.3639 31.0449 62.2239 31.2129 60.995C31.3242 60.1384 31.2383 59.2678 30.959 58.4501C30.6816 57.6324 30.2188 56.8896 29.6074 56.2788C28.998 55.6681 28.2539 55.2057 27.4375 54.9274C26.6191 54.6489 25.748 54.5619 24.8926 54.6731ZM30.0605 60.848C29.9512 61.6758 29.6113 62.4563 29.082 63.1016C28.5527 63.7467 27.8516 64.2308 27.0625 64.499C26.2715 64.7672 25.4219 64.8088 24.6074 64.6191C23.7949 64.4296 23.0508 64.0161 22.4609 63.4258C21.8711 62.8354 21.457 62.0918 21.2676 61.2787C21.0781 60.4657 21.1191 59.6158 21.3887 58.8252C21.6562 58.0347 22.1406 57.3348 22.7852 56.8049C23.4297 56.2751 24.2109 55.9364 25.0391 55.8271C25.2324 55.8026 25.4258 55.7903 25.6211 55.7902C26.2578 55.7905 26.8867 55.9266 27.4668 56.1895C28.0469 56.4524 28.5645 56.8359 28.9844 57.3147C29.4043 57.7933 29.7188 58.3561 29.9043 58.9655C30.0898 59.5747 30.1426 60.2166 30.0605 60.848Z" fill="#669BB5" fill-opacity="1.000000" fill-rule="nonzero"/>
	<path id="Vector" d="M78.1875 41.0582L96.7949 41.0582L96.7949 12.4724L78.1875 12.4724L78.1875 41.0582ZM79.3516 13.6359L95.6328 13.6359L95.6328 39.8948L79.3516 39.8948L79.3516 13.6359Z" fill="#669BB5" fill-opacity="1.000000" fill-rule="nonzero"/>
	<path id="Vector" d="M40.3652 31.2654L40.3652 12.4724L24.875 12.4724L24.875 31.2654L40.3652 31.2654ZM26.0391 13.6359L39.2012 13.6359L39.2012 30.1019L26.0391 30.1019L26.0391 13.6359Z" fill="#669BB5" fill-opacity="1.000000" fill-rule="nonzero"/>
	<path id="Vector" d="M7.50586 31.2654L22.9961 31.2654L22.9961 12.4724L7.50586 12.4724L7.50586 31.2654ZM8.66992 13.6359L21.832 13.6359L21.832 30.1019L8.66992 30.1019L8.66992 13.6359Z" fill="#669BB5" fill-opacity="1.000000" fill-rule="nonzero"/>
	<path id="Vector" d="M75.834 31.2654L75.834 12.4724L60.3438 12.4724L60.3438 31.2654L75.834 31.2654ZM61.5078 13.6359L74.6699 13.6359L74.6699 30.1019L61.5078 30.1019L61.5078 13.6359Z" fill="#669BB5" fill-opacity="1.000000" fill-rule="nonzero"/>
	<path id="Vector" d="M58.4609 31.2654L58.4609 12.4724L42.9707 12.4724L42.9707 31.2654L58.4609 31.2654ZM44.1348 13.6359L57.2969 13.6359L57.2969 30.1019L44.1348 30.1019L44.1348 13.6359Z" fill="#669BB5" fill-opacity="1.000000" fill-rule="nonzero"/>
	<path id="Vector" d="M8.08789 41.1176L75.25 41.1176C75.4043 41.1176 75.5527 41.0563 75.6621 40.9471C75.7715 40.8381 75.832 40.6901 75.832 40.5358C75.832 40.3816 75.7715 40.2335 75.6621 40.1245C75.5527 40.0154 75.4043 39.9541 75.25 39.9541L8.08789 39.9541C7.93359 39.9541 7.78516 40.0154 7.67578 40.1245C7.56641 40.2335 7.50586 40.3816 7.50586 40.5358C7.50586 40.6901 7.56641 40.8381 7.67578 40.9471C7.78516 41.0563 7.93359 41.1176 8.08789 41.1176Z" fill="#669BB5" fill-opacity="1.000000" fill-rule="nonzero"/>
	<path id="Vector" d="M124.762 52.8914L124.762 42.1218C124.76 41.1981 124.473 40.2974 123.938 39.5447C123.402 38.7919 122.646 38.2244 121.773 37.9209L102.529 31.2365L102.529 8.86548C102.527 6.51501 101.592 4.2616 99.9297 2.59961C98.2676 0.937622 96.0156 0.00268555 93.6641 0L11.1465 0C8.79492 0.00268555 6.54102 0.937622 4.87891 2.59961C3.2168 4.2616 2.2832 6.51501 2.2793 8.86548L2.2793 52.8914L0 52.8914L0 61.1995L12.3379 61.1995C12.4922 61.1995 12.6406 61.1382 12.75 61.0291C12.8594 60.9199 12.9199 60.772 12.9199 60.6177C12.9199 60.4634 12.8594 60.3154 12.75 60.2064C12.6406 60.0973 12.4922 60.036 12.3379 60.036L9.61328 60.036L9.61328 52.8914L3.44336 52.8914L3.44336 8.86548C3.44531 6.82349 4.25781 4.86584 5.70117 3.42188C7.14648 1.97791 9.10352 1.16577 11.1465 1.16345L93.6641 1.16345C95.707 1.16577 97.6641 1.97803 99.1074 3.42188C100.553 4.86584 101.363 6.82349 101.367 8.86548L101.367 31.6501C101.367 31.6559 101.367 31.6614 101.369 31.6671C101.369 31.6888 101.371 31.7104 101.375 31.7319C101.377 31.7491 101.379 31.7662 101.383 31.7828C101.387 31.8015 101.395 31.8195 101.4 31.8375C101.406 31.8557 101.412 31.8733 101.42 31.8904C101.428 31.907 101.438 31.9224 101.445 31.9382C101.455 31.9547 101.465 31.9712 101.475 31.9866C101.486 32.002 101.498 32.0157 101.512 32.0299C101.523 32.0442 101.535 32.0579 101.549 32.0706C101.562 32.0831 101.576 32.0951 101.592 32.1063C101.605 32.118 101.621 32.1299 101.637 32.1403C101.652 32.1494 101.668 32.1571 101.684 32.1652C101.701 32.1753 101.721 32.1843 101.742 32.1921C101.746 32.1943 101.752 32.1976 101.758 32.1996L121.391 39.0198C122.035 39.2439 122.594 39.663 122.99 40.2188C123.385 40.7745 123.598 41.4397 123.598 42.1217L123.598 44.2363L118.057 44.2363C117.902 44.2363 117.756 44.2976 117.646 44.4066C117.537 44.5157 117.477 44.6637 117.477 44.818C117.477 44.9723 117.537 45.1202 117.646 45.2294C117.756 45.3384 117.902 45.3998 118.057 45.3998L123.598 45.3998L123.598 48.7205L118.057 48.7205C117.902 48.7205 117.756 48.7817 117.646 48.8909C117.537 49 117.477 49.1479 117.477 49.3022C117.477 49.4565 117.537 49.6045 117.646 49.7136C117.756 49.8226 117.902 49.8839 118.057 49.8839L123.598 49.8839L123.598 52.8911L117.949 52.8911L117.949 60.0358L111.982 60.0358C111.828 60.0358 111.68 60.097 111.57 60.2062C111.461 60.3152 111.4 60.4633 111.4 60.6174C111.4 60.7717 111.461 60.9197 111.57 61.0288C111.68 61.1379 111.828 61.1992 111.982 61.1992L127.561 61.1992L127.561 52.8914L124.762 52.8914ZM8.44922 60.036L1.16406 60.036L1.16406 54.0548L8.44922 54.0548L8.44922 60.036ZM126.398 60.036L119.111 60.036L119.111 54.0548L126.398 54.0548L126.398 60.036Z" fill="#669BB5" fill-opacity="1.000000" fill-rule="nonzero"/>
</svg>
