<svg width="92.013672" height="91.681763" viewBox="0 0 92.0137 91.6818" fill="none" xmlns="http://www.w3.org/2000/svg" xmlns:xlink="http://www.w3.org/1999/xlink">
	<desc>
			Created with Pixso.
	</desc>
	<defs/>
	<path id="Vector" d="M91.0137 45.8408L86.1133 45.8408C88.0137 42.1537 89.0137 38.0679 89.0137 33.8823C89.0137 19.6318 77.4121 7.97229 63.1094 7.97229C57.1094 7.97229 51.209 10.0651 46.6074 13.9515L27.0039 13.9515L27.0039 11.9585C27.0039 5.38135 21.6035 0 15.002 0C8.40039 0 3 5.38135 3 11.9585L3 45.8408L1 45.8408C0.400391 45.8408 0 46.2395 0 46.8374L0 52.8167C0 53.4146 0.400391 53.8132 1 53.8132L2.09961 53.8132L7.00195 90.7849C7.10156 91.2831 7.50195 91.6818 8.00195 91.6818L84.0137 91.6818C84.5137 91.6818 84.9141 91.2831 85.0137 90.7849L89.9141 53.8132L91.0137 53.8132C91.6152 53.8132 92.0137 53.4146 92.0137 52.8167L92.0137 46.8374C92.0137 46.2395 91.6152 45.8408 91.0137 45.8408ZM63.1094 9.96545C76.3125 9.96545 87.0137 20.728 87.0137 33.8823C87.0137 38.0679 85.9141 42.2533 83.8125 45.8408L55.0078 45.8408L55.0078 37.9681C56.5098 40.8582 59.5098 42.8512 63.0098 42.8512C68.0098 42.8512 72.0117 38.8651 72.0117 33.8823C72.0117 28.8997 68.0098 24.9136 63.0098 24.9136C59.5098 24.9136 56.5098 26.9066 55.0078 29.7965L55.0078 27.7039C55.0078 26.8069 55.3086 26.0098 55.9082 25.4117L58.4102 22.9204C59.4102 21.924 59.9102 20.6284 59.9102 19.2333C59.9102 16.3433 57.5098 14.0513 54.709 14.0513L50.0078 14.0513C53.9082 11.3606 58.4102 9.96545 63.1094 9.96545ZM56.0098 33.8823C56.0098 29.9958 59.1094 26.9066 63.0098 26.9066C66.9102 26.9066 70.0117 29.9958 70.0117 33.8823C70.0117 37.7689 66.9102 40.8582 63.0098 40.8582C59.1094 40.8582 56.0098 37.7689 56.0098 33.8823ZM54.8086 15.9447C56.6094 15.9447 58.0098 17.4395 58.0098 19.1335C58.0098 20.0305 57.709 20.8278 57.1094 21.4257L54.6094 23.917C53.6094 24.9136 53.1074 26.209 53.1074 27.6041L53.1074 45.8408L27.0039 45.8408L27.0039 15.9447L54.8086 15.9447ZM5 11.9585C5 6.47754 9.50195 1.99304 15.002 1.99304C20.5039 1.99304 25.0039 6.47754 25.0039 11.9585L25.0039 45.8408L5 45.8408L5 11.9585ZM78.1133 53.8132L79.2129 60.7889L70.2109 60.7889L69.1113 53.8132L78.1133 53.8132ZM85.6133 70.7544L82.8125 70.7544L81.5137 62.7821L86.6133 62.7821L85.6133 70.7544ZM58.8086 70.7544L49.8086 70.7544L48.5078 62.7821L57.5098 62.7821L58.8086 70.7544ZM59.6094 62.7821L68.6113 62.7821L69.9102 70.7544L60.9102 70.7544L59.6094 62.7821ZM39.207 72.7474L48.207 72.7474L49.5078 80.7198L40.5059 80.7198L39.207 72.7474ZM38.4062 80.7198L29.4043 80.7198L28.1035 72.7474L37.1055 72.7474L38.4062 80.7198ZM50.207 72.7474L59.209 72.7474L60.5098 80.7198L51.5078 80.7198L50.207 72.7474ZM47.8066 70.7544L38.8066 70.7544L37.5059 62.7821L46.5078 62.7821L47.8066 70.7544ZM36.8066 70.7544L27.8047 70.7544L26.5039 62.7821L35.5059 62.7821L36.8066 70.7544ZM25.8047 70.7544L16.8027 70.7544L15.502 62.7821L24.5039 62.7821L25.8047 70.7544ZM14.8027 70.7544L6.30078 70.7544L5.20117 62.7821L13.4023 62.7821L14.8027 70.7544ZM6.60156 72.7474L15.1016 72.7474L16.4023 80.7198L7.70117 80.7198L6.60156 72.7474ZM17.2031 72.7474L26.2051 72.7474L27.5039 80.7198L18.502 80.7198L17.2031 72.7474ZM27.7051 82.7129L28.8047 89.6887L19.8027 89.6887L18.7031 82.7129L27.7051 82.7129ZM29.7051 82.7129L38.707 82.7129L39.8066 89.6887L30.8047 89.6887L29.7051 82.7129ZM40.707 82.7129L49.707 82.7129L50.8086 89.6887L41.8066 89.6887L40.707 82.7129ZM51.709 82.7129L60.709 82.7129L61.8105 89.6887L52.8086 89.6887L51.709 82.7129ZM62.709 82.7129L71.7109 82.7129L72.8105 89.6887L63.8105 89.6887L62.709 82.7129ZM62.4102 80.7198L61.1094 72.7474L70.1113 72.7474L71.4121 80.7198L62.4102 80.7198ZM72.2109 72.7474L81.2129 72.7474L82.5137 80.7198L73.5117 80.7198L72.2109 72.7474ZM84.4141 80.3212L83.2129 72.7474L85.4141 72.7474L84.4141 80.3212ZM80.8125 70.7544L71.8105 70.7544L70.5117 62.7821L79.5117 62.7821L80.8125 70.7544ZM67.1113 53.8132L68.2109 60.7889L59.209 60.7889L58.1094 53.8132L67.1113 53.8132ZM56.1094 53.8132L57.209 60.7889L48.207 60.7889L47.1074 53.8132L56.1094 53.8132ZM45.1074 53.8132L46.207 60.7889L37.2051 60.7889L36.1055 53.8132L45.1074 53.8132ZM34.1055 53.8132L35.2051 60.7889L26.2051 60.7889L25.1035 53.8132L34.1055 53.8132ZM23.1035 53.8132L24.2031 60.7889L15.2031 60.7889L14.1016 53.8132L23.1035 53.8132ZM12.1016 53.8132L13.2012 60.7889L5.10156 60.7889L4.20117 53.8132L12.1016 53.8132ZM8.00195 82.7129L16.8027 82.7129L17.9023 89.6887L8.90234 89.6887L8.00195 82.7129ZM74.9121 89.6887L73.8125 82.7129L82.8125 82.7129L83.5137 87.297L83.1133 89.6887L74.9121 89.6887ZM86.9141 60.7889L81.2129 60.7889L80.1133 53.8132L87.8145 53.8132L86.9141 60.7889ZM90.0137 51.8201L89.0137 51.8201L3 51.8201L2 51.8201L2 47.834L4 47.834L26.0039 47.834L90.0137 47.834L90.0137 51.8201Z" fill="#669BB5" fill-opacity="1.000000" fill-rule="nonzero"/>
	<path id="Vector" d="M15.002 9.96533C13.502 9.96533 6 10.0649 6 12.955C6 15.845 13.502 15.9446 15.002 15.9446C16.502 15.9446 24.002 15.845 24.002 12.955C24.002 10.0649 16.502 9.96533 15.002 9.96533ZM15.002 13.9515C11.5 13.9515 9.09961 13.3535 8.30078 12.955C9.20117 12.5564 11.5 11.9584 15.002 11.9584C18.502 11.9584 20.9023 12.5564 21.7031 12.955C20.9023 13.3535 18.502 13.9515 15.002 13.9515Z" fill="#669BB5" fill-opacity="1.000000" fill-rule="nonzero"/>
	<path id="Vector" d="M15.002 21.9238C13.502 21.9238 6 22.0234 6 24.9135C6 27.8035 13.502 27.9031 15.002 27.9031C16.502 27.9031 24.002 27.8035 24.002 24.9135C24.002 22.0234 16.502 21.9238 15.002 21.9238ZM15.002 25.91C11.5 25.91 9.09961 25.312 8.30078 24.9135C9.20117 24.5149 11.5 23.9169 15.002 23.9169C18.502 23.9169 20.9023 24.5149 21.7031 24.9135C20.9023 25.312 18.502 25.91 15.002 25.91Z" fill="#669BB5" fill-opacity="1.000000" fill-rule="nonzero"/>
	<path id="Vector" d="M15.002 33.8823C13.502 33.8823 6 33.9819 6 36.8719C6 39.762 13.502 39.8616 15.002 39.8616C16.502 39.8616 24.002 39.762 24.002 36.8719C24.002 33.9819 16.502 33.8823 15.002 33.8823ZM15.002 37.8685C11.5 37.8685 9.09961 37.2705 8.30078 36.8719C9.20117 36.4734 11.5 35.8754 15.002 35.8754C18.502 35.8754 20.9023 36.4734 21.7031 36.8719C20.9023 37.2705 18.502 37.8685 15.002 37.8685Z" fill="#669BB5" fill-opacity="1.000000" fill-rule="nonzero"/>
</svg>
