<svg width="80.085938" height="90.296387" viewBox="0 0 80.0859 90.2964" fill="none" xmlns="http://www.w3.org/2000/svg" xmlns:xlink="http://www.w3.org/1999/xlink">
	<desc>
			Created with Pixso.
	</desc>
	<defs/>
	<path id="Vector" d="M8.43164 18.9993L11.0938 18.9993L11.0938 21.6611C11.0938 21.9066 11.1914 22.142 11.3633 22.3156C11.5371 22.4891 11.7734 22.5865 12.0195 22.5865L18.2324 22.5865C18.4785 22.5865 18.7129 22.4891 18.8867 22.3156C19.0605 22.142 19.1582 21.9066 19.1582 21.6611L19.1582 18.9993L21.8203 18.9993C22.0645 18.9993 22.3008 18.9017 22.4746 18.7281C22.6465 18.5547 22.7441 18.3193 22.7441 18.0739L22.7441 11.8602C22.7441 11.6147 22.6465 11.3794 22.4746 11.2058C22.3008 11.0323 22.0645 10.9348 21.8203 10.9348L19.1582 10.9348L19.1582 8.27307C19.1582 8.02759 19.0605 7.79224 18.8867 7.61865C18.7129 7.44519 18.4785 7.34766 18.2324 7.34766L12.0195 7.34766C11.7734 7.34766 11.5371 7.44519 11.3633 7.61865C11.1914 7.79224 11.0938 8.02759 11.0938 8.27307L11.0938 10.9348L8.43164 10.9348C8.18555 10.9348 7.95117 11.0323 7.77734 11.2058C7.60352 11.3794 7.50586 11.6147 7.50586 11.8602L7.50586 18.0737C7.50586 18.1953 7.5293 18.3157 7.57617 18.428C7.62305 18.5402 7.69141 18.6422 7.77734 18.7281C7.86328 18.8141 7.96484 18.8823 8.07617 18.9288C8.18945 18.9753 8.31055 18.9993 8.43164 18.9993ZM9.35742 12.7858L12.0195 12.7858C12.2637 12.7858 12.5 12.6882 12.6738 12.5146C12.8457 12.3411 12.9434 12.1057 12.9434 11.8604L12.9434 9.19849L17.3066 9.19849L17.3066 11.8602C17.3066 12.1057 17.4043 12.3411 17.5781 12.5146C17.752 12.6881 17.9863 12.7856 18.2324 12.7856L20.8945 12.7856L20.8945 17.1483L18.2324 17.1483C17.9863 17.1483 17.752 17.2458 17.5781 17.4194C17.4043 17.5929 17.3066 17.8284 17.3066 18.0737L17.3066 20.7357L12.9434 20.7357L12.9434 18.0739C12.9434 17.8284 12.8457 17.593 12.6738 17.4194C12.5 17.246 12.2637 17.1484 12.0195 17.1484L9.35742 17.1484L9.35742 12.7858Z" fill="#669BB5" fill-opacity="1.000000" fill-rule="nonzero"/>
	<path id="Vector" d="M40.9512 8.44287L60.4141 8.44287L60.4141 10.2937L40.9512 10.2937L40.9512 8.44287Z" fill="#669BB5" fill-opacity="1.000000" fill-rule="evenodd"/>
	<path id="Vector" d="M40.9512 11.7205L60.4141 11.7205L60.4141 13.5713L40.9512 13.5713L40.9512 11.7205Z" fill="#669BB5" fill-opacity="1.000000" fill-rule="evenodd"/>
	<path id="Vector" d="M40.9512 15.137L60.4141 15.137L60.4141 16.9878L40.9512 16.9878L40.9512 15.137Z" fill="#669BB5" fill-opacity="1.000000" fill-rule="evenodd"/>
	<path id="Vector" d="M40.9512 18.3154L60.4141 18.3154L60.4141 20.1663L40.9512 20.1663L40.9512 18.3154Z" fill="#669BB5" fill-opacity="1.000000" fill-rule="evenodd"/>
	<path id="Vector" d="M8.19531 61.1486L30.5703 61.1486C30.8164 61.1486 31.0508 61.051 31.2246 60.8774C31.3984 60.7039 31.4961 60.4685 31.4961 60.2231L31.4961 27.5597C31.4961 27.3142 31.3984 27.0789 31.2246 26.9053C31.0508 26.7318 30.8164 26.6343 30.5703 26.6343L8.19531 26.6343C7.94922 26.6343 7.71484 26.7318 7.54102 26.9053C7.36719 27.0789 7.26953 27.3142 7.26953 27.5597L7.26953 60.2231C7.26953 60.4685 7.36719 60.7039 7.54102 60.8774C7.71484 61.051 7.94922 61.1486 8.19531 61.1486ZM9.12109 28.4851L29.6445 28.4851L29.6445 59.2977L9.12109 59.2977L9.12109 28.4851Z" fill="#669BB5" fill-opacity="1.000000" fill-rule="nonzero"/>
	<path id="Vector" d="M31.1562 66.665L7.96875 66.665C7.72266 66.665 7.48828 66.7626 7.31445 66.936C7.14062 67.1096 7.04297 67.345 7.04297 67.5905L7.04297 80.6835C7.04297 80.929 7.14062 81.1643 7.31445 81.3379C7.48828 81.5115 7.72266 81.6089 7.96875 81.6089L31.1562 81.6089C31.4023 81.6089 31.6367 81.5115 31.8105 81.3379C31.9844 81.1643 32.082 80.929 32.082 80.6835L32.082 67.5905C32.082 67.345 31.9844 67.1096 31.8105 66.936C31.6367 66.7626 31.4023 66.665 31.1562 66.665ZM30.2305 79.7581L8.89453 79.7581L8.89453 68.5159L30.2305 68.5159L30.2305 79.7581Z" fill="#669BB5" fill-opacity="1.000000" fill-rule="nonzero"/>
	<path id="Vector" d="M79.7773 35.9094C79.6797 35.8228 79.5664 35.7573 79.4434 35.7177C79.3184 35.6779 79.1875 35.6647 79.0586 35.6788C78.3418 35.7576 77.6211 35.7971 76.9004 35.7974C74.123 35.7983 71.3789 35.2065 68.8496 34.0614L68.8496 0.925415C68.8496 0.679932 68.752 0.44458 68.5781 0.270996C68.4062 0.0975342 68.1699 0 67.9238 0L0.925781 0C0.679688 0 0.445312 0.0975342 0.271484 0.270996C0.0976562 0.44458 0 0.679932 0 0.925415L0 89.371C0 89.6163 0.0976562 89.8517 0.271484 90.0253C0.445312 90.1989 0.679688 90.2964 0.925781 90.2964L67.9238 90.2964C68.1699 90.2964 68.4062 90.1989 68.5781 90.0253C68.752 89.8517 68.8496 89.6163 68.8496 89.371L68.8496 72.5807L68.8945 72.5507C75.7402 67.8242 79.918 60.1368 80.0684 51.9899L80.0859 51.2439L80.0859 36.5989C80.0859 36.4688 80.0586 36.3401 80.0039 36.2213C79.9512 36.1025 79.875 35.9962 79.7773 35.9094ZM67 88.4456L1.85156 88.4456L1.85156 1.85083L67 1.85083L67 33.0981C64.8027 31.8036 62.8945 30.0714 61.3945 28.009C61.3086 27.8905 61.1953 27.7942 61.0664 27.7277C60.9355 27.6611 60.791 27.6265 60.6445 27.6265C60.498 27.6265 60.3555 27.6611 60.2246 27.7277C60.0938 27.7942 59.9805 27.8905 59.8965 28.009C56.3633 32.8856 50.5664 35.7971 44.3906 35.7974C43.6699 35.7975 42.9492 35.7579 42.2324 35.679C42.1035 35.6647 41.9727 35.6779 41.8477 35.7175C41.7246 35.7572 41.6094 35.8225 41.5137 35.9094C41.416 35.9962 41.3379 36.1024 41.2852 36.2212C41.2324 36.34 41.2051 36.4686 41.2051 36.5988L41.2051 51.1099L41.2207 51.9868C41.3711 60.1366 45.5488 67.824 52.3965 72.5505L60.1191 77.881C60.2734 77.9877 60.457 78.0448 60.6445 78.0448C60.832 78.0448 61.0156 77.9877 61.1699 77.881L67 73.8583L67 88.4456ZM78.2188 51.9526C78.0801 59.5081 74.1992 66.6388 67.8418 71.0273L60.6445 75.9948L53.4473 71.0273C47.0898 66.6385 43.2109 59.5079 43.0723 51.9525L43.0547 51.0927L43.0547 37.6069C43.5 37.6344 43.9453 37.6482 44.3906 37.6482C47.4902 37.6593 50.5566 36.9854 53.3652 35.6746C56.1758 34.3638 58.6621 32.4484 60.6445 30.0654C62.6289 32.4486 65.1152 34.364 67.9238 35.6748C70.7344 36.9857 73.7988 37.6595 76.9004 37.6482C77.3438 37.6481 77.791 37.6342 78.2344 37.6067L78.2344 51.2238L78.2188 51.9526Z" fill="#669BB5" fill-opacity="1.000000" fill-rule="nonzero"/>
	<path id="Vector" d="M75.291 39.6752C70.082 39.3226 65.1445 37.2294 61.2695 33.7318C61.0977 33.5768 60.877 33.491 60.6465 33.491C60.416 33.491 60.1934 33.5768 60.0234 33.7318C56.1484 37.229 51.209 39.3223 46 39.6752C45.7676 39.6913 45.5469 39.7955 45.3867 39.9669C45.2285 40.1383 45.1387 40.364 45.1387 40.5985L45.1387 51.0732L45.1543 51.9143C45.2812 58.8005 48.8242 65.3049 54.6309 69.3136L60.1211 73.1019C60.2754 73.2086 60.459 73.2657 60.6465 73.2657C60.834 73.2657 61.0176 73.2086 61.1719 73.1019L66.6602 69.3137C72.4668 65.3052 76.0117 58.7958 76.1387 51.9043L76.1543 51.201L76.1543 40.5985C76.1543 40.364 76.0645 40.1382 75.9043 39.9668C75.7441 39.7954 75.5254 39.6913 75.291 39.6752ZM74.2871 51.8671C74.1719 58.167 70.9277 64.1198 65.6094 67.7905L60.6465 71.2158L55.6836 67.7904C50.3652 64.1196 47.1211 58.1718 47.0039 51.88L46.9902 51.056L46.9902 41.4476C52.0215 40.9312 56.7812 38.91 60.6465 35.6479C64.5117 38.9103 69.2715 40.9314 74.3027 41.4476L74.3027 51.1809L74.2871 51.8671Z" fill="#669BB5" fill-opacity="1.000000" fill-rule="nonzero"/>
	<path id="Vector" d="M69.7988 48.1982L65.8184 48.1982L65.8184 44.2184C65.8184 43.9729 65.7227 43.7375 65.5488 43.564C65.375 43.3905 65.1387 43.293 64.8945 43.293L56.3965 43.293C56.1523 43.293 55.916 43.3905 55.7422 43.564C55.5684 43.7375 55.4727 43.9729 55.4727 44.2184L55.4727 48.1982L51.4922 48.1982C51.2461 48.1982 51.0117 48.2958 50.8379 48.4694C50.6641 48.6428 50.5664 48.8783 50.5664 49.1237L50.5664 57.6204C50.5664 57.8658 50.6641 58.1012 50.8379 58.2748C51.0117 58.4482 51.2461 58.5458 51.4922 58.5458L55.4727 58.5458L55.4727 62.5256C55.4727 62.7711 55.5684 63.0065 55.7422 63.1801C55.916 63.3536 56.1523 63.451 56.3965 63.451L64.8945 63.451C65.1387 63.451 65.375 63.3536 65.5488 63.1801C65.7227 63.0065 65.8184 62.7711 65.8184 62.5256L65.8184 58.5458L69.7988 58.5458C70.0449 58.5458 70.2793 58.4482 70.4531 58.2748C70.627 58.1012 70.7246 57.8658 70.7246 57.6204L70.7246 49.1237C70.7246 48.8783 70.627 48.6428 70.4531 48.4694C70.2793 48.2958 70.0449 48.1982 69.7988 48.1982ZM68.873 56.6949L64.8945 56.6949C64.6484 56.6949 64.4121 56.7925 64.2402 56.9661C64.0664 57.1395 63.9688 57.375 63.9688 57.6204L63.9688 61.6002L57.3223 61.6002L57.3223 57.6204C57.3223 57.375 57.2246 57.1395 57.0508 56.9661C56.8789 56.7925 56.6426 56.6949 56.3965 56.6949L52.418 56.6949L52.418 50.0491L56.3965 50.0491C56.6426 50.0491 56.8789 49.9515 57.0508 49.7781C57.2246 49.6045 57.3223 49.3691 57.3223 49.1237L57.3223 45.1438L63.9688 45.1438L63.9688 49.1237C63.9688 49.2452 63.9922 49.3655 64.0391 49.4778C64.0859 49.5901 64.1543 49.6921 64.2402 49.7781C64.3262 49.864 64.4277 49.9321 64.5391 49.9786C64.6523 50.0251 64.7715 50.0491 64.8945 50.0491L68.873 50.0491L68.873 56.6949Z" fill="#669BB5" fill-opacity="1.000000" fill-rule="nonzero"/>
</svg>
