<svg width="120.617188" height="70.089966" viewBox="0 0 120.617 70.09" fill="none" xmlns="http://www.w3.org/2000/svg" xmlns:xlink="http://www.w3.org/1999/xlink">
	<desc>
			Created with Pixso.
	</desc>
	<defs/>
	<path id="Vector" d="M100.723 21.7441L85.2578 21.7441L85.2578 36.6147L105.912 36.6147L100.723 21.7441ZM86.9102 23.3965L99.5508 23.3965L103.582 34.9624L86.9102 34.9624L86.9102 23.3965Z" fill="#669BB5" fill-opacity="1.000000" fill-rule="evenodd"/>
	<path id="Vector" d="M99.0059 54.4595C98.0254 54.4595 97.0664 54.7502 96.252 55.2948C95.4375 55.8395 94.8008 56.6136 94.4258 57.5194C94.0508 58.4252 93.9531 59.4219 94.1445 60.3834C94.3359 61.345 94.8066 62.2281 95.5 62.9214C96.1934 63.6146 97.0762 64.0867 98.0391 64.278C99 64.4692 99.9961 64.3711 100.902 63.9958C101.809 63.6207 102.582 62.9854 103.127 62.1702C103.672 61.3551 103.963 60.3967 103.963 59.4164C103.963 58.1017 103.439 56.8409 102.51 55.9113C101.582 54.9817 100.32 54.4595 99.0059 54.4595ZM99.0059 62.8365C98.3516 62.8365 97.7129 62.6428 97.1699 62.2797C96.627 61.9165 96.2031 61.4004 95.9531 60.7966C95.7031 60.1927 95.6367 59.5283 95.7637 58.8873C95.8926 58.2463 96.207 57.6575 96.6699 57.1953C97.1309 56.7332 97.7207 56.4185 98.3613 56.2909C99.002 56.1635 99.666 56.2289 100.27 56.479C100.875 56.7291 101.391 57.1526 101.754 57.696C102.117 58.2395 102.311 58.8784 102.311 59.532C102.311 60.4084 101.963 61.2489 101.342 61.8687C100.723 62.4884 99.8828 62.8365 99.0059 62.8365Z" fill="#669BB5" fill-opacity="1.000000" fill-rule="evenodd"/>
	<path id="Vector" d="M99.0059 48.8745C96.9062 48.8712 94.8535 49.4906 93.1074 50.6542C91.3613 51.8177 89.998 53.4734 89.1934 55.4114C88.3867 57.3494 88.1758 59.4828 88.582 61.5415C88.9902 63.6003 90 65.4919 91.4824 66.9772C92.9648 68.4623 94.8555 69.4742 96.9121 69.8849C98.9707 70.2955 101.105 70.0864 103.045 69.2841C104.982 68.4817 106.641 67.1221 107.807 65.3772C108.975 63.6324 109.596 61.5809 109.596 59.4822C109.592 56.6731 108.475 53.98 106.49 51.9921C104.506 50.0042 101.814 48.8833 99.0059 48.8745ZM99.0059 68.4211C97.2324 68.4243 95.498 67.9015 94.0234 66.9187C92.5488 65.9359 91.3984 64.5375 90.7188 62.9004C90.0391 61.2633 89.8594 59.4613 90.2051 57.7227C90.5488 55.9839 91.4023 54.3867 92.6562 53.1333C93.9102 51.8799 95.5059 51.0266 97.2461 50.6815C98.9844 50.3365 100.787 50.5153 102.424 51.1952C104.061 51.875 105.459 53.0254 106.441 54.5006C107.424 55.9758 107.947 57.7096 107.943 59.4822C107.939 61.8516 106.996 64.1227 105.32 65.7981C103.646 67.4735 101.375 68.4167 99.0059 68.4211Z" fill="#669BB5" fill-opacity="1.000000" fill-rule="evenodd"/>
	<path id="Vector" d="M19.6953 54.4595C18.7148 54.4595 17.7559 54.7502 16.9414 55.2948C16.127 55.8395 15.4902 56.6136 15.1152 57.5194C14.7402 58.4252 14.6426 59.4219 14.834 60.3834C15.0254 61.345 15.4961 62.2281 16.1895 62.9214C16.8828 63.6146 17.7656 64.0867 18.7285 64.278C19.6895 64.4692 20.6855 64.3711 21.5918 63.9958C22.498 63.6207 23.2715 62.9854 23.8164 62.1702C24.3613 61.3551 24.6523 60.3967 24.6523 59.4164C24.6523 58.1017 24.1289 56.8409 23.1992 55.9113C22.2715 54.9817 21.0098 54.4595 19.6953 54.4595ZM19.6953 62.8365C19.041 62.8365 18.4023 62.6428 17.8594 62.2797C17.3164 61.9165 16.8926 61.4004 16.6426 60.7966C16.3926 60.1927 16.3262 59.5283 16.4531 58.8873C16.582 58.2463 16.8965 57.6575 17.3594 57.1953C17.8203 56.7332 18.4102 56.4185 19.0508 56.2909C19.6914 56.1635 20.3555 56.2289 20.959 56.479C21.5645 56.7291 22.0801 57.1526 22.4434 57.696C22.8066 58.2395 23 58.8784 23 59.532C23 60.4084 22.6523 61.2489 22.0312 61.8687C21.4121 62.4884 20.5723 62.8365 19.6953 62.8365Z" fill="#669BB5" fill-opacity="1.000000" fill-rule="evenodd"/>
	<path id="Vector" d="M19.6953 48.8745C17.5957 48.8712 15.543 49.4906 13.7969 50.6542C12.0508 51.8177 10.6875 53.4734 9.88281 55.4114C9.07617 57.3494 8.86523 59.4828 9.27148 61.5415C9.67969 63.6003 10.6895 65.4919 12.1719 66.9772C13.6543 68.4623 15.5449 69.4742 17.6016 69.8849C19.6602 70.2955 21.7949 70.0864 23.7344 69.2841C25.6719 68.4817 27.3301 67.1221 28.4961 65.3772C29.6641 63.6324 30.2852 61.5809 30.2852 59.4822C30.2812 56.6731 29.1641 53.98 27.1797 51.9921C25.1953 50.0042 22.5039 48.8833 19.6953 48.8745ZM19.6953 68.4211C17.9219 68.4243 16.1875 67.9015 14.7129 66.9187C13.2383 65.9359 12.0879 64.5375 11.4082 62.9004C10.7285 61.2633 10.5488 59.4613 10.8945 57.7227C11.2383 55.9839 12.0918 54.3867 13.3457 53.1333C14.5996 51.8799 16.1953 51.0266 17.9355 50.6815C19.6738 50.3365 21.4766 50.5153 23.1133 51.1952C24.75 51.875 26.1484 53.0254 27.1309 54.5006C28.1133 55.9758 28.6367 57.7096 28.6328 59.4822C28.6289 61.8516 27.6855 64.1227 26.0098 65.7981C24.3359 67.4735 22.0645 68.4167 19.6953 68.4211Z" fill="#669BB5" fill-opacity="1.000000" fill-rule="evenodd"/>
	<path id="Vector" d="M116.486 34.8964L112.57 34.8964L106.342 19.1335C106.037 18.3607 105.508 17.6979 104.82 17.2319C104.133 16.766 103.322 16.5188 102.492 16.5228L80.6152 16.5228L80.6152 4.13074C80.6113 3.0365 80.1738 1.9884 79.4004 1.21472C78.627 0.440918 77.5781 0.00439453 76.4844 0L4.13086 0C3.03516 0 1.98438 0.435181 1.20898 1.20984C0.435547 1.9845 0 3.03516 0 4.13074L0 56.1779C0 57.2733 0.435547 58.324 1.20898 59.0986C1.98438 59.8733 3.03516 60.3085 4.13086 60.3085L7.26953 60.3085C7.48828 60.3043 7.69531 60.2159 7.84961 60.0619C8.00391 59.9078 8.0918 59.7002 8.0957 59.4824C8.0957 59.2633 8.00977 59.0531 7.85352 58.8982C7.69922 58.7433 7.48828 58.6562 7.26953 58.6562L4.13086 58.6562C3.47266 58.6562 2.84375 58.3951 2.37891 57.9303C1.91406 57.4656 1.65234 56.8351 1.65234 56.1779L1.65234 4.13074C1.65234 3.47339 1.91406 2.84302 2.37891 2.37817C2.84375 1.91345 3.47266 1.65234 4.13086 1.65234L76.4844 1.65234C77.1426 1.65234 77.7715 1.91345 78.2363 2.37817C78.7012 2.84302 78.9629 3.47339 78.9629 4.13074L78.9629 58.6562L32.1211 58.6562C31.9023 58.6562 31.6914 58.7433 31.5371 58.8982C31.3809 59.0531 31.2949 59.2633 31.2949 59.4824C31.2949 59.7015 31.3809 59.9116 31.5371 60.0665C31.6914 60.2214 31.9023 60.3085 32.1211 60.3085L86.6465 60.3085C86.8633 60.3043 87.0723 60.2159 87.2246 60.0619C87.3789 59.9078 87.4688 59.7002 87.4727 59.4824C87.4727 59.2633 87.3848 59.0531 87.2305 58.8982C87.0762 58.7433 86.8652 58.6562 86.6465 58.6562L80.6152 58.6562L80.6152 18.1752L102.492 18.1752C102.99 18.1737 103.479 18.3228 103.891 18.6028C104.303 18.8828 104.621 19.2809 104.805 19.7449L111.414 36.5486L116.486 36.5486C117.145 36.5486 117.773 36.8097 118.238 37.2745C118.703 37.7394 118.965 38.3698 118.965 39.0271L118.965 42.5464L116.619 42.5464C115.961 42.5464 115.33 42.8075 114.865 43.2723C114.4 43.7372 114.141 44.3676 114.141 45.0249L114.141 47.0902C114.141 48.1858 114.576 49.2365 115.35 50.0111C116.125 50.7858 117.176 51.2209 118.271 51.2209L119.031 51.2209L119.031 56.1779C119.031 56.8351 118.77 57.4656 118.305 57.9303C117.84 58.3951 117.209 58.6562 116.553 58.6562L111.43 58.6562C111.211 58.6562 111.002 58.7433 110.846 58.8982C110.691 59.0531 110.604 59.2633 110.604 59.4824C110.604 59.5908 110.625 59.6984 110.668 59.7986C110.709 59.8988 110.77 59.9899 110.846 60.0665C110.924 60.1433 111.014 60.2041 111.113 60.2456C111.215 60.2871 111.322 60.3085 111.43 60.3085L116.486 60.3085C117.582 60.3085 118.633 59.8733 119.406 59.0986C120.182 58.324 120.617 57.2733 120.617 56.1779L120.617 39.0271C120.617 37.9315 120.182 36.8809 119.406 36.1062C118.633 35.3315 117.582 34.8964 116.486 34.8964ZM118.965 49.5686L118.205 49.5686C117.547 49.5686 116.916 49.3075 116.453 48.8428C115.988 48.3779 115.727 47.7476 115.727 47.0902L115.727 45.0249C115.727 44.8058 115.812 44.5956 115.969 44.4407C116.123 44.2858 116.334 44.1987 116.553 44.1987L118.965 44.1987L118.965 49.5686Z" fill="#669BB5" fill-opacity="1.000000" fill-rule="nonzero"/>
	<path id="Vector" d="M57.5176 27.2628C57.5176 24.2006 56.6074 21.2072 54.9043 18.6621C53.2012 16.1172 50.7812 14.135 47.9512 12.9669C45.1191 11.7988 42.0059 11.4974 39.0039 12.1008C36.002 12.7043 33.2461 14.1855 31.0859 16.3567C28.9277 18.5278 27.4609 21.2913 26.873 24.2966C26.2852 27.302 26.6035 30.4142 27.7871 33.2386C28.9707 36.0631 30.9648 38.4727 33.5195 40.1621C36.0742 41.8514 39.0723 42.7446 42.1348 42.7283C46.2207 42.7064 50.1348 41.0674 53.0156 38.1694C55.8984 35.2715 57.5176 31.3502 57.5176 27.2628ZM28.2539 27.2628C28.2539 24.5337 29.0625 21.8657 30.5781 19.5956C32.0938 17.3254 34.2461 15.5549 36.7676 14.5076C39.2871 13.4602 42.0605 13.1829 44.7383 13.7104C47.416 14.2382 49.877 15.5471 51.8125 17.4723C53.7461 19.3976 55.0664 21.8527 55.6074 24.5277C56.1484 27.2029 55.8828 29.9781 54.8477 32.5032C53.8125 35.0283 52.0527 37.1902 49.791 38.7159C47.5273 40.2417 44.8633 41.0629 42.1348 41.0759C40.3145 41.0825 38.5137 40.7301 36.8301 40.0391C35.1484 39.348 33.6172 38.3318 32.3281 37.0487C31.0391 35.7656 30.0156 34.2408 29.3164 32.5616C28.6172 30.8823 28.2578 29.0818 28.2539 27.2628Z" fill="#669BB5" fill-opacity="1.000000" fill-rule="evenodd"/>
	<path id="Vector" d="M45.4375 37.1766L45.4375 30.5674L52.0469 30.5674L52.0469 23.9583L45.4375 23.9583L45.4375 17.3491L38.8281 17.3491L38.8281 23.9583L32.2188 23.9583L32.2188 30.5674L38.8281 30.5674L38.8281 37.1766L45.4375 37.1766ZM33.8711 28.9152L33.8711 25.6106L40.4805 25.6106L40.4805 19.0015L43.7852 19.0015L43.7852 25.6106L50.3945 25.6106L50.3945 28.9152L43.7852 28.9152L43.7852 35.5243L40.4805 35.5243L40.4805 28.9152L33.8711 28.9152Z" fill="#669BB5" fill-opacity="1.000000" fill-rule="evenodd"/>
</svg>
