<svg width="90.730469" height="94.412964" viewBox="0 0 90.7305 94.413" fill="none" xmlns="http://www.w3.org/2000/svg" xmlns:xlink="http://www.w3.org/1999/xlink">
	<desc>
			Created with Pixso.
	</desc>
	<defs/>
	<path id="Vector" d="M89.127 79.8347L78.9863 65.9272C77.6641 64.1321 75.7324 62.9288 73.502 62.5934C71.293 62.2384 69.0645 62.771 67.2695 64.0927C65.4727 65.4144 64.2695 67.3477 63.9355 69.5768C63.6973 71.0365 63.8555 72.5161 64.3691 73.8575C62.5742 72.6542 60.4043 71.944 58.0957 71.944C53.4004 71.944 49.3574 74.8439 47.6797 78.947L47.6797 41.3475C47.6797 39.3551 47.0293 37.3824 45.8457 35.7845L40.0859 28.0319C38.8809 26.3945 37.0664 25.2899 35.0938 24.9348L35.0938 15.4462L36.4551 15.4462C38.8418 15.4462 40.7754 13.5129 40.7754 11.126L40.7754 4.32019C40.7754 1.93323 38.8418 0 36.4551 0L11.2246 0C8.83789 0 6.9043 1.93323 6.9043 4.32019L6.9043 11.1062C6.9043 13.4932 8.83789 15.4462 11.2246 15.4462L12.5859 15.4462L12.5859 24.9348C10.6133 25.2899 8.81836 26.3945 7.5957 28.0319L1.83398 35.7845C0.650391 37.3824 0 39.3551 0 41.3475L0 92.2233C0 92.7559 0.433594 93.1898 0.966797 93.1898L46.7129 93.1898C47.2461 93.1898 47.6797 92.7559 47.6797 92.2233L47.6797 87.4099C49.3574 91.5131 53.4004 94.413 58.0957 94.413C64.3105 94.413 69.3594 89.3628 69.3594 83.1489C69.3594 82.3401 69.2812 81.5707 69.123 80.8014L75.5938 89.6785C77.2305 91.9274 79.7949 93.1306 82.3789 93.1306C84.0957 93.1306 85.8125 92.6178 87.3105 91.5328C91.0195 88.8302 91.8477 83.5631 89.127 79.8347ZM65.8477 69.8529C66.125 68.1367 67.0312 66.6375 68.4121 65.6313C69.5566 64.8029 70.8789 64.3885 72.2012 64.3885C74.1934 64.3885 76.166 65.3158 77.4277 67.0518L81.9258 73.2262L71.4707 80.8408L66.9727 74.6663C65.9863 73.2656 65.5918 71.5494 65.8477 69.8529ZM58.0957 73.8378C62.9082 73.8378 66.8945 77.507 67.3672 82.2019L48.8047 82.2019C49.3164 77.507 53.2832 73.8378 58.0957 73.8378ZM1.93359 47.8772L45.7656 47.8772L45.7656 79.2627L1.93359 79.2627L1.93359 47.8772ZM8.83789 11.1062L8.83789 4.32019C8.83789 2.99854 9.92188 1.91345 11.2441 1.91345L36.4746 1.91345C37.7969 1.91345 38.8809 2.99854 38.8809 4.32019L38.8809 11.1062C38.8809 12.428 37.7969 13.5129 36.4746 13.5129L34.1465 13.5129L13.5527 13.5129L11.2246 13.5129C9.90234 13.5129 8.83789 12.4476 8.83789 11.1062ZM33.1797 15.4462L33.1797 24.8164L14.5195 24.8164L14.5195 15.4462L33.1797 15.4462ZM3.39258 36.9287L9.15234 29.176C10.2969 27.6373 12.1133 26.73 14.0059 26.73L33.6934 26.73C35.6074 26.73 37.4219 27.6373 38.5469 29.176L44.3066 36.9287C45.2539 38.1913 45.7656 39.7694 45.7656 41.3279L45.7656 45.9242L1.93359 45.9242L1.93359 41.3279C1.93359 39.7694 2.44531 38.1913 3.39258 36.9287ZM1.93359 91.2566L1.93359 81.1761L45.7656 81.1761L45.7656 91.2566L1.93359 91.2566ZM58.0957 92.4994C53.2832 92.4994 49.2969 88.8302 48.8242 84.1353L67.3867 84.1353C66.8945 88.8105 62.9297 92.4994 58.0957 92.4994ZM86.168 89.9941C84.7871 91.0001 83.0703 91.4144 81.3535 91.1383C79.6367 90.8621 78.1387 89.9546 77.1328 88.5737L72.6348 82.3993L83.0898 74.7847L87.5879 80.9592C89.6777 83.8394 89.0469 87.8833 86.168 89.9941Z" fill="#669BB5" fill-opacity="1.000000" fill-rule="nonzero"/>
	<path id="Vector" d="M34.4434 53.3217C29.0977 47.8969 20.3379 47.8376 14.9141 53.1639C9.48828 58.5099 9.42969 67.2686 14.7754 72.6935C17.4785 75.4355 21.0488 76.7968 24.6191 76.7968C28.1113 76.7968 31.6211 75.475 34.3047 72.8315C39.709 67.5054 39.7695 58.7466 34.4434 53.3217ZM32.9434 71.4705C28.2676 76.0668 20.7324 76.0076 16.1367 71.3521C11.5391 66.6768 11.5996 59.1411 16.2539 54.5448C18.5625 52.2761 21.5801 51.132 24.5996 51.132C27.6758 51.132 30.7539 52.3157 33.0625 54.6631C37.6582 59.3384 37.5996 66.874 32.9434 71.4705Z" fill="#669BB5" fill-opacity="1.000000" fill-rule="nonzero"/>
	<path id="Vector" d="M32.9043 59.2004L28.4082 59.2004L28.4082 54.7028C28.4082 54.17 27.9727 53.7361 27.4414 53.7361L21.7402 53.7361C21.207 53.7361 20.7734 54.17 20.7734 54.7028L20.7734 59.2004L16.2754 59.2004C15.7422 59.2004 15.3086 59.6344 15.3086 60.167L15.3086 65.8484C15.3086 66.381 15.7422 66.8151 16.2754 66.8151L20.7734 66.8151L20.7734 71.3127C20.7734 71.8453 21.207 72.2794 21.7402 72.2794L27.4414 72.2794C27.9727 72.2794 28.4082 71.8453 28.4082 71.3127L28.4082 66.8151L32.9043 66.8151C33.4375 66.8151 33.8711 66.381 33.8711 65.8484L33.8711 60.167C33.8711 59.6344 33.4375 59.2004 32.9043 59.2004ZM31.959 64.9015L27.4609 64.9015C26.9277 64.9015 26.4941 65.3354 26.4941 65.8682L26.4941 70.3658L22.7266 70.3658L22.7266 65.8682C22.7266 65.3354 22.291 64.9015 21.7598 64.9015L17.2617 64.9015L17.2617 61.1337L21.7598 61.1337C22.291 61.1337 22.7266 60.6997 22.7266 60.167L22.7266 55.6693L26.4941 55.6693L26.4941 60.167C26.4941 60.6997 26.9277 61.1337 27.4609 61.1337L31.959 61.1337L31.959 64.9015Z" fill="#669BB5" fill-opacity="1.000000" fill-rule="nonzero"/>
</svg>
