<svg width="123.000000" height="89.831421" viewBox="0 0 123 89.8314" fill="none" xmlns="http://www.w3.org/2000/svg" xmlns:xlink="http://www.w3.org/1999/xlink">
	<desc>
			Created with Pixso.
	</desc>
	<defs/>
	<path id="Vector" d="M105.033 5.52808L66.3379 5.52808C63.4551 5.52808 58.0449 9.18762 58.0449 12.4382L58.0449 77.3932C58.0449 80.6438 63.4551 84.3033 66.3379 84.3033L105.033 84.3033C107.916 84.3033 113.326 80.6438 113.326 77.3932L113.326 12.4382C113.326 9.18762 107.916 5.52808 105.033 5.52808ZM110.562 77.3932C110.562 78.7103 106.791 81.5393 105.033 81.5393L66.3379 81.5393C64.5801 81.5393 60.8086 78.7103 60.8086 77.3932L60.8086 12.4382C60.8086 11.1211 64.5801 8.29211 66.3379 8.29211L105.033 8.29211C106.791 8.29211 110.562 11.1211 110.562 12.4382L110.562 77.3932Z" fill="#669BB5" fill-opacity="1.000000" fill-rule="nonzero"/>
	<path id="Vector" d="M80.1582 23.4941L91.2129 23.4941C91.7227 23.4941 92.1914 23.2136 92.4316 22.7645C92.6738 22.3153 92.6445 21.7694 92.3633 21.3466L86.8359 13.0544C86.3223 12.2845 85.0488 12.2845 84.5352 13.0544L79.0078 21.3466C78.7266 21.7708 78.6973 22.3153 78.9375 22.7645C79.1797 23.2136 79.6465 23.4941 80.1582 23.4941ZM85.6855 16.3118L88.6328 20.7301L82.7383 20.7301L85.6855 16.3118Z" fill="#669BB5" fill-opacity="1.000000" fill-rule="nonzero"/>
	<path id="Vector" d="M46.9902 11.0562C44.7031 11.0562 42.8438 12.9164 42.8438 15.2023C42.8438 17.488 44.7031 19.3483 46.9902 19.3483C49.2754 19.3483 51.1367 17.488 51.1367 15.2023C51.1367 12.9164 49.2754 11.0562 46.9902 11.0562ZM46.9902 16.5842C46.2266 16.5842 45.6074 15.9651 45.6074 15.2023C45.6074 14.4393 46.2266 13.8202 46.9902 13.8202C47.752 13.8202 48.3711 14.4393 48.3711 15.2023C48.3711 15.9651 47.752 16.5842 46.9902 16.5842Z" fill="#669BB5" fill-opacity="1.000000" fill-rule="nonzero"/>
	<path id="Vector" d="M46.9902 24.8762C44.7031 24.8762 42.8438 26.7365 42.8438 29.0223C42.8438 31.3081 44.7031 33.1683 46.9902 33.1683C49.2754 33.1683 51.1367 31.3081 51.1367 29.0223C51.1367 26.7365 49.2754 24.8762 46.9902 24.8762ZM46.9902 30.4043C46.2266 30.4043 45.6074 29.7852 45.6074 29.0223C45.6074 28.2594 46.2266 27.6403 46.9902 27.6403C47.752 27.6403 48.3711 28.2594 48.3711 29.0223C48.3711 29.7852 47.752 30.4043 46.9902 30.4043Z" fill="#669BB5" fill-opacity="1.000000" fill-rule="nonzero"/>
	<path id="Vector" d="M46.9902 38.6965C44.7031 38.6965 42.8438 40.5568 42.8438 42.8427C42.8438 45.1284 44.7031 46.9886 46.9902 46.9886C49.2754 46.9886 51.1367 45.1284 51.1367 42.8427C51.1367 40.5568 49.2754 38.6965 46.9902 38.6965ZM46.9902 44.2246C46.2266 44.2246 45.6074 43.6055 45.6074 42.8427C45.6074 42.0797 46.2266 41.4606 46.9902 41.4606C47.752 41.4606 48.3711 42.0797 48.3711 42.8427C48.3711 43.6055 47.752 44.2246 46.9902 44.2246Z" fill="#669BB5" fill-opacity="1.000000" fill-rule="nonzero"/>
	<path id="Vector" d="M46.9902 52.5168C44.7031 52.5168 42.8438 54.3771 42.8438 56.663L42.8438 76.0112C42.8438 78.2971 44.7031 80.1573 46.9902 80.1573C49.2754 80.1573 51.1367 78.2971 51.1367 76.0112L51.1367 56.663C51.1367 54.3771 49.2754 52.5168 46.9902 52.5168ZM48.3711 76.0112C48.3711 76.774 47.752 77.3933 46.9902 77.3933C46.2266 77.3933 45.6074 76.774 45.6074 76.0112L45.6074 56.663C45.6074 55.9 46.2266 55.2809 46.9902 55.2809C47.752 55.2809 48.3711 55.9 48.3711 56.663L48.3711 76.0112Z" fill="#669BB5" fill-opacity="1.000000" fill-rule="nonzero"/>
	<path id="Vector" d="M99.5059 45.6067L90.6855 45.6067L95.2129 36.5503C95.4277 36.1219 95.4043 35.6133 95.1523 35.2056C94.8984 34.798 94.457 34.5505 93.9766 34.5505L84.3027 34.5505C83.8047 34.5505 83.3438 34.8201 83.0996 35.2554L70.6602 57.3677C70.4199 57.7961 70.4238 58.3186 70.6719 58.7428C70.9199 59.1671 71.375 59.427 71.8652 59.427L80.4258 59.427L74.8379 68.3687C74.5723 68.7957 74.5586 69.3319 74.8008 69.7714C75.0469 70.2108 75.5098 70.4832 76.0098 70.4832L87.0664 70.4832C87.5664 70.4832 88.0254 70.2136 88.2715 69.7783L100.709 47.6659C100.951 47.2375 100.947 46.7151 100.697 46.2908C100.449 45.8666 99.9961 45.6067 99.5059 45.6067ZM86.2578 67.7191L78.5059 67.7191L84.0938 58.7773C84.3594 58.3503 84.373 57.8141 84.1309 57.3746C83.8848 56.9352 83.4219 56.6628 82.9199 56.6628L74.2285 56.6628L85.1113 37.3146L91.7402 37.3146L87.2129 46.371C87 46.7994 87.0215 47.308 87.2734 47.7157C87.5273 48.1234 87.9688 48.3707 88.4492 48.3707L97.1426 48.3707L86.2578 67.7191Z" fill="#669BB5" fill-opacity="1.000000" fill-rule="nonzero"/>
	<rect id="Rectangle 80" x="1.000000" y="1.000000" rx="8.000000" width="121.000000" height="87.831459" stroke="#669BB5" stroke-opacity="1.000000" stroke-width="2.000000"/>
</svg>
