<svg width="118.662109" height="81.979980" viewBox="0 0 118.662 81.98" fill="none" xmlns="http://www.w3.org/2000/svg" xmlns:xlink="http://www.w3.org/1999/xlink">
	<desc>
			Created with Pixso.
	</desc>
	<defs/>
	<path id="Vector" d="M94.1426 63.7251C95.3711 63.7251 96.5723 64.0895 97.5938 64.7721C98.6152 65.4547 99.4121 66.4249 99.8828 67.5601C100.354 68.6953 100.477 69.9443 100.236 71.1494C99.9961 72.3545 99.4043 73.4614 98.5352 74.3302C97.668 75.1991 96.5605 75.7908 95.3555 76.0304C94.1504 76.2701 92.9004 76.1471 91.7656 75.6769C90.6309 75.2068 89.6602 74.4105 88.9785 73.3889C88.2949 72.3672 87.9316 71.1661 87.9316 69.9375C87.9336 68.2905 88.5879 66.7115 89.752 65.547C90.918 64.3824 92.4961 63.7272 94.1426 63.7251ZM94.1426 74.2045C94.9863 74.205 95.8086 73.9556 96.5098 73.4878C97.2109 73.02 97.7578 72.3549 98.0801 71.5765C98.4023 70.7982 98.4863 69.9417 98.3223 69.1154C98.1582 68.2889 97.7539 67.5298 97.1582 66.934C96.5605 66.3383 95.8027 65.9326 94.9766 65.7683C94.1504 65.6041 93.293 65.6886 92.5156 66.0114C91.7363 66.334 91.0703 66.8802 90.6035 67.5811C90.1367 68.2819 89.8867 69.1056 89.8867 69.9482C89.8906 71.0747 90.3418 72.1537 91.1387 72.9493C91.9355 73.7449 93.0156 74.1923 94.1426 74.1937L94.1426 74.2045Z" fill="#669BB5" fill-opacity="1.000000" fill-rule="nonzero"/>
	<path id="Vector" d="M29.6562 63.7251C30.8848 63.7246 32.0859 64.0885 33.1074 64.7708C34.1309 65.453 34.9277 66.4231 35.3965 67.5582C35.8672 68.6934 35.9922 69.9425 35.752 71.1478C35.5117 72.353 34.9219 73.4602 34.0527 74.3293C33.1836 75.1984 32.0762 75.7903 30.8711 76.0303C29.666 76.2701 28.418 76.1473 27.2812 75.6772C26.1465 75.207 25.1758 74.4108 24.4941 73.3892C23.8105 72.3674 23.4473 71.1663 23.4473 69.9375C23.4473 68.2908 24.1016 66.7118 25.2656 65.5471C26.4316 64.3826 28.0098 63.7272 29.6562 63.7251ZM29.6562 74.2045C30.498 74.205 31.3223 73.9556 32.0234 73.4878C32.7246 73.02 33.2695 72.3549 33.5938 71.5765C33.916 70.7982 34 69.9417 33.8359 69.1154C33.6719 68.2889 33.2656 67.5298 32.6699 66.934C32.0742 66.3383 31.3145 65.9326 30.4883 65.7683C29.6621 65.6041 28.8066 65.6886 28.0273 66.0114C27.25 66.334 26.584 66.8802 26.1172 67.5811C25.6484 68.2819 25.3984 69.1056 25.4004 69.9482C25.4043 71.0747 25.8535 72.1537 26.6523 72.9493C27.4492 73.7449 28.5293 74.1923 29.6562 74.1937L29.6562 74.2045Z" fill="#669BB5" fill-opacity="1.000000" fill-rule="nonzero"/>
	<path id="Vector" d="M84.8594 48.6294L92.0664 48.6294C92.3262 48.6294 92.5742 48.7324 92.7578 48.9159C92.9414 49.0992 93.0449 49.348 93.0449 49.6074C93.0449 49.8668 92.9414 50.1156 92.7578 50.2991C92.5742 50.4825 92.3262 50.5856 92.0664 50.5856L84.8594 50.5856C84.6016 50.5856 84.3516 50.4825 84.168 50.2991C83.9844 50.1156 83.8828 49.8668 83.8828 49.6074C83.8828 49.348 83.9844 49.0992 84.168 48.9159C84.3516 48.7324 84.6016 48.6294 84.8594 48.6294Z" fill="#669BB5" fill-opacity="1.000000" fill-rule="nonzero"/>
	<path id="Vector" d="M84.2012 14.4375L100.664 14.4375C102.148 14.4316 103.582 14.9833 104.682 15.9833C105.779 16.9834 106.461 18.3591 106.594 19.8384L108.793 43.2906C108.805 43.4261 108.789 43.5629 108.746 43.692C108.703 43.8212 108.635 43.9398 108.543 44.0403C108.451 44.1403 108.338 44.22 108.215 44.2745C108.09 44.3291 107.955 44.3573 107.82 44.3574L84.2012 44.3574C84.0723 44.3578 83.9453 44.3328 83.8262 44.2839C83.709 44.235 83.5996 44.1632 83.5098 44.0726C83.418 43.9821 83.3457 43.8744 83.2969 43.7559C83.248 43.6373 83.2227 43.5103 83.2227 43.382L83.2227 15.4156C83.2227 15.1562 83.3262 14.9075 83.5098 14.724C83.6934 14.5406 83.9414 14.4375 84.2012 14.4375ZM106.219 36.7532C104.703 36.8512 103.268 37.4642 102.148 38.4906C101.029 39.5168 100.295 40.8949 100.068 42.3959L106.748 42.3959L106.219 36.7532ZM85.1797 42.3959L98.0977 42.3959C98.3281 40.4034 99.248 38.5542 100.697 37.1681C102.146 35.7819 104.035 34.946 106.035 34.8051L104.648 20.0265C104.561 19.0326 104.102 18.1082 103.363 17.4364C102.625 16.7646 101.662 16.3944 100.664 16.399L85.1797 16.399L85.1797 42.3959Z" fill="#669BB5" fill-opacity="1.000000" fill-rule="nonzero"/>
	<path id="Vector" d="M0.990234 0L75.3164 0C75.5762 0 75.8262 0.103149 76.0098 0.286499C76.1914 0.469971 76.2949 0.71875 76.2949 0.978149L76.2949 7.4646L102.896 7.4646C109.645 7.4646 115.133 12.9514 115.129 19.6018L117.736 45.7275L118.662 69.8246C118.67 70.075 118.584 70.3192 118.418 70.5071C118.252 70.6951 118.021 70.8124 117.771 70.835C117.125 70.894 115.469 70.9128 113.561 70.9128C110.875 70.9128 107.723 70.8752 106.141 70.8538C105.912 73.8741 104.555 76.6976 102.336 78.7601C100.117 80.8228 97.2031 81.9725 94.1738 81.98C91.1445 81.9874 88.2246 80.8521 85.9961 78.8004C83.7676 76.7488 82.3945 73.9321 82.1523 70.9128L41.6484 70.9128C41.4062 73.9261 40.0371 76.7373 37.8164 78.7872C35.5938 80.837 32.6816 81.9752 29.6582 81.9752C26.6348 81.9752 23.7227 80.837 21.502 78.7872C19.2793 76.7373 17.9102 73.9261 17.668 70.9128L11.7559 70.9128C10.2402 70.9121 8.78516 70.3096 7.71289 69.2375C6.64062 68.1654 6.03711 66.7114 6.03516 65.1949L6.03516 54.3771L0.978516 54.3771C0.71875 54.3771 0.470703 54.2739 0.287109 54.0906C0.103516 53.9071 0 53.6583 0 53.3989L0 0.978149C0 0.848755 0.0253906 0.720703 0.0761719 0.601318C0.125 0.481934 0.199219 0.373657 0.291016 0.282715C0.382812 0.191772 0.492188 0.119873 0.611328 0.0714111C0.732422 0.0228271 0.859375 -0.00134277 0.990234 0ZM1.96484 20.9587L74.3398 20.9587L74.3398 12.4382L1.96484 12.4382L1.96484 20.9587ZM1.96484 31.4381L74.3398 31.4381L74.3398 22.923L1.96484 22.923L1.96484 31.4381ZM74.3398 33.4076L1.96484 33.4076L1.96484 41.9388L74.3398 41.9388L74.3398 33.4076ZM74.3398 1.95349L1.96484 1.95349L1.96484 10.4847L74.3398 10.4847L74.3398 1.95349ZM116.076 53.5065C115.111 53.5978 111.543 54.2991 111.154 59.6436L116.299 59.6436L116.076 53.5065ZM94.1426 80.0165C96.7832 80.0112 99.3184 78.97 101.201 77.1166C103.082 75.2631 104.162 72.7452 104.209 70.1041C104.184 70.0166 104.174 69.926 104.176 69.8354C104.176 69.761 104.186 69.6869 104.205 69.615C104.145 67.6365 103.5 65.72 102.355 64.1046C101.211 62.4894 99.6172 61.2469 97.7715 60.5325C95.9258 59.8179 93.9102 59.663 91.9766 60.087C90.043 60.511 88.2754 61.4952 86.8984 62.9166C85.5215 64.3381 84.5918 66.1338 84.2285 68.0797C83.8652 70.0256 84.084 72.0354 84.8555 73.8583C85.627 75.6812 86.918 77.2363 88.5684 78.3296C90.2188 79.4229 92.1543 80.0059 94.1348 80.0057L94.1426 80.0165ZM29.6543 80.0165C31.6367 80.0173 33.5742 79.4337 35.2266 78.3387C36.8789 77.2438 38.1719 75.686 38.9434 73.8602C39.7148 72.0344 39.9297 70.0217 39.5645 68.0739C39.1973 66.126 38.2656 64.3293 36.8828 62.9088C35.5 61.4882 33.7305 60.5067 31.793 60.087C29.8555 59.6674 27.8379 59.8281 25.9922 60.5493C24.1445 61.2705 22.5527 62.52 21.4121 64.1416C20.2734 65.7632 19.6367 67.6848 19.584 69.6661C19.6367 69.8413 19.6367 70.0283 19.584 70.2035C19.6562 72.8284 20.748 75.3218 22.6289 77.1542C24.5098 78.9865 27.0312 80.0133 29.6562 80.0165L29.6543 80.0165ZM7.99609 65.1949C7.99609 66.1926 8.39258 67.1494 9.09961 67.855C9.80469 68.5604 10.7617 68.9568 11.7598 68.9568L17.6699 68.9568C17.9141 65.9435 19.2812 63.1323 21.5039 61.0824C23.7266 59.0326 26.6387 57.8944 29.6602 57.8944C32.6836 57.8944 35.5957 59.0326 37.8184 61.0824C40.0391 63.1323 41.4082 65.9435 41.6523 68.9568L82.1504 68.9568C82.3984 65.9515 83.7637 63.1487 85.9785 61.103C88.1953 59.0574 91.0977 57.9181 94.1133 57.9106C97.1289 57.9032 100.037 59.0282 102.262 61.0629C104.486 63.0975 105.867 65.8937 106.129 68.8976C109.398 68.9434 114.416 68.989 116.668 68.9298L116.398 61.5944L110.145 61.5944C109.885 61.5944 109.635 61.4913 109.451 61.3079C109.27 61.1244 109.166 60.8756 109.166 60.6162C109.166 52.7379 114.654 51.6927 116.002 51.5557L115.783 45.8566L113.174 19.6958C113.172 16.9701 112.088 14.3569 110.16 12.4296C108.232 10.5022 105.619 9.41821 102.895 9.41528L76.293 9.41528L76.293 53.3989C76.293 53.6583 76.1895 53.9071 76.0059 54.0906C75.8223 54.2739 75.5742 54.3771 75.3145 54.3771L8 54.3771L7.99609 65.1949ZM1.96289 52.4209L74.3398 52.4209L74.3398 43.8923L1.96484 43.8923L1.96289 52.4209Z" fill="#669BB5" fill-opacity="1.000000" fill-rule="nonzero"/>
</svg>
