<svg width="86.000000" height="86.000000" viewBox="0 0 86 86" fill="none" xmlns="http://www.w3.org/2000/svg" xmlns:xlink="http://www.w3.org/1999/xlink">
	<desc>
			Created with Pixso.
	</desc>
	<defs/>
	<rect id="Rectangle 88" x="1.000000" y="1.000000" width="84.000000" height="61.283020" stroke="#669BB5" stroke-opacity="1.000000" stroke-width="2.000000"/>
	<rect id="Rectangle 89" x="13.439453" y="10.194824" width="59.660374" height="43.433964" stroke="#669BB5" stroke-opacity="1.000000" stroke-width="2.000000"/>
	<rect id="Rectangle 90" x="1.000000" y="72.396240" width="84.000000" height="12.603774" stroke="#669BB5" stroke-opacity="1.000000" stroke-width="2.000000"/>
	<rect id="Rectangle 91" x="7.490234" y="77.264160" width="21.257862" height="3.408805" stroke="#669BB5" stroke-opacity="1.000000" stroke-width="2.000000"/>
	<line id="Line 90" x1="24.798828" y1="63.282959" x2="24.798828" y2="71.396118" stroke="#669BB5" stroke-opacity="1.000000" stroke-width="2.000000"/>
	<line id="Line 91" x1="63.201172" y1="63.282959" x2="63.201172" y2="71.396118" stroke="#669BB5" stroke-opacity="1.000000" stroke-width="2.000000"/>
	<line id="Line 92" x1="54.089844" y1="77.805176" x2="48.681641" y2="77.805176" stroke="#669BB5" stroke-opacity="1.000000" stroke-width="2.000000"/>
	<line id="Line 93" x1="54.089844" y1="81.591309" x2="48.681641" y2="81.591309" stroke="#669BB5" stroke-opacity="1.000000" stroke-width="2.000000"/>
	<line id="Line 94" x1="64.365234" y1="77.805176" x2="58.416016" y2="77.805176" stroke="#669BB5" stroke-opacity="1.000000" stroke-width="2.000000"/>
	<line id="Line 95" x1="64.365234" y1="81.591309" x2="58.416016" y2="81.591309" stroke="#669BB5" stroke-opacity="1.000000" stroke-width="2.000000"/>
	<line id="Line 96" x1="74.101562" y1="77.805176" x2="68.693359" y2="77.805176" stroke="#669BB5" stroke-opacity="1.000000" stroke-width="2.000000"/>
	<line id="Line 97" x1="23.798828" y1="16.685547" x2="18.390625" y2="16.685547" stroke="#669BB5" stroke-opacity="1.000000" stroke-width="2.000000"/>
	<line id="Line 98" x1="68.691406" y1="48.597656" x2="63.283203" y2="48.597656" stroke="#669BB5" stroke-opacity="1.000000" stroke-width="2.000000"/>
	<line id="Line 99" x1="74.101562" y1="81.591309" x2="68.693359" y2="81.591309" stroke="#669BB5" stroke-opacity="1.000000" stroke-width="2.000000"/>
	<path id="Vector" d="M43.4648 45.7753L43 45.9749L42.5352 45.7753C36.5645 42.1814 30.2891 34.0011 30.2891 29.4576C30.3086 25.7373 33.4121 22.717 37.2227 22.717C39.6309 22.717 41.7578 23.9242 43 25.7515C44.2422 23.9242 46.3691 22.717 48.7773 22.717C52.5879 22.717 55.6895 25.7373 55.7109 29.4576C55.7109 34.0011 49.4355 42.1814 43.4648 45.7753ZM48.7773 23.8466C46.8398 23.8466 45.0391 24.7922 43.9609 26.3766L43 27.7909L42.0371 26.3761C40.959 24.7922 39.1602 23.8466 37.2227 23.8466C34.0547 23.8466 31.4609 26.3665 31.4453 29.4576C31.4453 33.465 37.3574 41.2618 43 44.7274C48.6426 41.2618 54.5547 33.4656 54.5547 29.4633C54.5391 26.3665 51.9453 23.8466 48.7773 23.8466Z" fill="#669BB5" fill-opacity="1.000000" fill-rule="evenodd"/>
</svg>
