<svg width="88.181641" height="81.000122" viewBox="0 0 88.1816 81.0001" fill="none" xmlns="http://www.w3.org/2000/svg" xmlns:xlink="http://www.w3.org/1999/xlink">
	<desc>
			Created with Pixso.
	</desc>
	<defs/>
	<path id="Vector" d="M44.0898 35.1138L44.0898 60.2501" stroke="#669BB5" stroke-opacity="1.000000" stroke-width="2.000000" stroke-linejoin="round" stroke-linecap="round"/>
	<path id="Vector" d="M56.6602 47.6816L31.5234 47.6816" stroke="#669BB5" stroke-opacity="1.000000" stroke-width="2.000000" stroke-linejoin="round" stroke-linecap="round"/>
	<path id="Vector" d="M83.5918 15.3638C85.5742 15.3638 87.1816 16.9714 87.1816 18.9547L87.1816 76.4092C87.1816 78.3925 85.5742 80.0001 83.5918 80.0001L4.5918 80.0001C2.60742 80.0001 1 78.3925 1 76.4092L1 18.9547C1 16.9714 2.60742 15.3638 4.5918 15.3638L83.5918 15.3638Z" stroke="#669BB5" stroke-opacity="1.000000" stroke-width="2.000000" stroke-linejoin="round"/>
	<path id="Vector" d="M62.0449 15.3636L62.0449 8.18176C62.0449 6.2771 61.2891 4.45032 59.9414 3.10352C58.5957 1.75671 56.7695 1 54.8633 1L33.3184 1C31.4141 1 29.5879 1.75671 28.2402 3.10352C26.8926 4.45032 26.1367 6.2771 26.1367 8.18176L26.1367 15.3636" stroke="#669BB5" stroke-opacity="1.000000" stroke-width="2.000000" stroke-linejoin="round" stroke-linecap="round"/>
</svg>
