<svg width="121.371094" height="82.999878" viewBox="0 0 121.371 82.9999" fill="none" xmlns="http://www.w3.org/2000/svg" xmlns:xlink="http://www.w3.org/1999/xlink">
	<desc>
			Created with Pixso.
	</desc>
	<defs/>
	<path id="Vector" d="M86.2637 9.52649L108.965 9.52649C109.814 9.52087 110.646 9.77246 111.35 10.248C112.053 10.7235 112.596 11.4009 112.908 12.1909L120.369 30.8423" stroke="#669BB5" stroke-opacity="1.000000" stroke-width="2.000000" stroke-linejoin="round" stroke-linecap="round"/>
	<path id="Vector" d="M1 43.6316L86.2637 43.6316" stroke="#669BB5" stroke-opacity="1.000000" stroke-width="2.000000" stroke-linejoin="round" stroke-linecap="round"/>
	<path id="Vector" d="M92.6582 81.9999C85.5957 81.9999 79.8691 76.2738 79.8691 69.2103C79.8691 62.147 85.5957 56.4209 92.6582 56.4209C99.7227 56.4209 105.447 62.147 105.447 69.2103C105.447 76.2738 99.7227 81.9999 92.6582 81.9999Z" stroke="#669BB5" stroke-opacity="1.000000" stroke-width="2.000000" stroke-linejoin="round"/>
	<path id="Vector" d="M28.7109 81.9999C21.6484 81.9999 15.9219 76.2738 15.9219 69.2103C15.9219 62.147 21.6484 56.4209 28.7109 56.4209C35.7754 56.4209 41.5 62.147 41.5 69.2103C41.5 76.2738 35.7754 81.9999 28.7109 81.9999Z" stroke="#669BB5" stroke-opacity="1.000000" stroke-width="2.000000" stroke-linejoin="round"/>
	<path id="Vector" d="M79.8691 69.2104L41.5 69.2104" stroke="#669BB5" stroke-opacity="1.000000" stroke-width="2.000000" stroke-linejoin="round" stroke-linecap="round"/>
	<path id="Vector" d="M15.9219 69.2106L5.26367 69.2106C4.13281 69.2106 3.04883 68.7614 2.24805 67.9619C1.44922 67.1624 1 66.078 1 64.9474L1 5.26318C1 4.13245 1.44922 3.0481 2.24805 2.24866C3.04883 1.4491 4.13281 1 5.26367 1L86.2637 1L86.2637 58.1263" stroke="#669BB5" stroke-opacity="1.000000" stroke-width="2.000000" stroke-linejoin="round" stroke-linecap="round"/>
	<path id="Vector" d="M86.2637 30.8423L120.369 30.8423L120.369 64.9475C120.369 66.0782 119.92 67.1626 119.121 67.962C118.32 68.7616 117.236 69.2107 116.105 69.2107L105.447 69.2107" stroke="#669BB5" stroke-opacity="1.000000" stroke-width="2.000000" stroke-linejoin="round" stroke-linecap="round"/>
</svg>
