<svg width="64.097656" height="78.778809" viewBox="0 0 64.0977 78.7788" fill="none" xmlns="http://www.w3.org/2000/svg" xmlns:xlink="http://www.w3.org/1999/xlink">
	<desc>
			Created with Pixso.
	</desc>
	<defs/>
	<path id="Vector" d="M27.9453 27.5802L28.3105 23.726C28.3496 23.3218 28.7148 23.0261 29.1191 23.0557C29.5234 23.0951 29.8184 23.4598 29.7891 23.864L29.4238 27.7181C29.3848 28.1027 29.0703 28.3884 28.6855 28.3884C28.666 28.3884 28.6367 28.3884 28.6152 28.3884C28.2012 28.3392 27.9062 27.9844 27.9453 27.5802ZM32.2539 28.1322C32.668 28.1322 32.9922 27.797 32.9922 27.3831L32.9531 23.5781C32.9531 23.174 32.6172 22.8486 32.2148 22.8486L32.2051 22.8486C31.8008 22.8486 31.4648 23.1838 31.4746 23.5979L31.5137 27.4027C31.5234 27.8069 31.8496 28.1322 32.2539 28.1322ZM15.7324 43.8743C16.5703 43.1842 17.7637 43.0659 19.7344 42.8787L19.7539 42.8787C26.7441 42.2084 33.8496 41.6564 40.8594 41.2522C42.2285 41.1733 43.7871 41.0846 45.2949 41.4099C47.0586 41.7943 48.459 42.7012 49.2578 43.9728C50.2734 45.6091 50.1641 47.6594 50.0762 49.1676L49.5332 58.9558C49.4648 60.1387 49.375 61.7554 48.4199 62.9579C47.2363 64.4463 45.3145 64.752 43.3125 64.752C43.0469 64.752 42.7812 64.7421 42.5156 64.7421L20.8379 64.0422C19.0547 63.983 17.2109 63.8253 15.9199 62.5834C14.707 61.4202 14.4121 59.705 14.2734 58.0293C14.0566 55.3973 14.0273 52.736 14.1855 50.0844C14.1855 50.0745 14.1855 50.0646 14.1855 50.0547C14.2246 49.3154 14.2832 48.5762 14.3535 47.8369C14.5801 45.7964 14.8457 44.6135 15.7324 43.8743ZM48.5469 50.1632C39.3203 50.3604 30.084 50.5575 20.8594 50.7546L21.0957 53.8005C21.1348 54.2933 21.2031 55.2101 20.5918 55.8508C20.0215 56.4521 19.1523 56.4718 18.6895 56.4718C18.6504 56.4718 18.6113 56.4718 18.5723 56.4718C18.1387 56.4718 17.3594 56.4225 16.9258 55.7621C16.6289 55.3185 16.6699 54.8059 16.6992 54.5103L16.9844 50.8434C16.541 50.8531 16.0977 50.863 15.6543 50.8729C15.5449 53.2288 15.584 55.5945 15.7715 57.9307C15.8809 59.222 16.0684 60.671 16.9648 61.5286C17.8809 62.4059 19.3496 62.5242 20.9082 62.5735L42.584 63.2733C45.7773 63.3719 46.7246 62.7509 47.2754 62.051C47.8867 61.2723 47.9961 60.1584 48.0645 58.877L48.5469 50.1632ZM18.1582 54.9341C18.207 54.9539 18.334 54.9933 18.6602 54.9834C18.9062 54.9834 19.3691 54.9735 19.5176 54.8158C19.6758 54.6482 19.6367 54.1455 19.6172 53.9089L19.3691 50.7842C19.0645 50.7941 18.7695 50.7941 18.4629 50.804L18.168 54.6187C18.1582 54.6876 18.1484 54.8651 18.1582 54.9341ZM15.7324 49.3844C26.6934 49.1478 37.6543 48.9113 48.627 48.6846C48.6953 47.1665 48.6562 45.8162 48.0059 44.7712C47.4336 43.8545 46.3398 43.1646 44.9883 42.8688C44.2891 42.7209 43.5508 42.6716 42.8203 42.6716C42.1797 42.6716 41.5488 42.7111 40.9473 42.7406C33.959 43.1448 26.8711 43.687 19.9023 44.3573L19.8828 44.3573C18.1875 44.5248 17.1621 44.6234 16.6797 45.0177C16.2461 45.3726 16.0391 46.1512 15.8516 47.9946C15.8008 48.4579 15.7617 48.9211 15.7324 49.3844ZM2.25781 62.4354C-0.669922 47.9158 -0.177734 32.9819 0.582031 18.9255C0.701172 16.6978 0.876953 14.7065 1.76562 12.8633C2.31641 11.7198 3.13477 10.7341 4.12109 9.96521C5.58984 8.38806 7.78711 7.47131 10.3008 6.53491C11.7793 5.98291 13.5449 5.40137 15.3574 5.29285C16.5117 5.22388 19.3906 5.20422 21.1348 6.50537C21.9727 7.13623 22.584 7.82617 23.2344 8.70349C23.2148 8.21069 23.2051 7.71777 23.2246 7.22498C23.3223 4.57336 24.1406 2.68066 25.7188 1.44861C26.6738 0.699463 28.0352 0.226318 29.5625 0.0981445C30.7559 -0.000488281 32.0273 -0.069458 33.3184 0.117798C34.7168 0.314941 36.1758 0.581177 37.3496 1.47815C38.7793 2.57227 39.6074 4.53394 39.666 6.9884C39.666 7.15588 39.666 7.32349 39.666 7.49109C40.168 6.85034 40.7891 6.34766 41.627 5.92371C43.3438 5.06616 44.9199 4.8197 46.9121 4.7113C49.7109 4.55359 52.0176 5.36194 54.748 6.42651C57.4785 7.50098 59.5078 9.9751 61.5098 12.6366C61.5684 12.7155 61.6191 12.814 61.6387 12.9027C61.9922 13.3069 62.2891 13.7208 62.5059 14.1545C63.5605 16.264 63.6582 18.6692 63.7383 20.7983C64.2402 33.3368 64.7617 46.309 61.2148 58.6996C60.1992 62.2482 58.8379 65.7278 57.1816 69.0497L57.0547 71.031C57.0547 71.1 57.0449 71.1788 57.0449 71.2775C57.0059 72.1548 56.9355 73.9685 56.0293 75.6245C54.6191 78.2169 52.0566 78.7788 50.1055 78.7788C50.0547 78.7788 50.0059 78.7788 49.9668 78.7788C44.7422 78.7098 41.0566 78.6901 36.7871 78.6803C32.5977 78.6605 27.8574 78.6506 20.7207 78.562C20.2676 78.5521 19.6562 78.5718 18.9453 78.5817C13.3184 78.7 7.66992 78.6112 5.91406 76.2258C4.71289 74.5895 4.41602 71.7407 4.38672 68.8427C3.33203 66.4573 2.75977 64.9392 2.25781 62.4354ZM55.4375 69.9565C39.0059 69.168 22.3477 68.9708 5.88477 69.3849C5.94531 71.7999 6.2207 74.1163 7.11719 75.3287C7.53125 75.8807 8.70508 76.6102 11.9766 76.9355C14.3418 77.1721 16.9941 77.1129 18.9258 77.0735C19.5371 77.0636 20.0703 77.0538 20.5039 77.0538C20.582 77.0538 20.6719 77.0538 20.7402 77.0538C27.877 77.1327 32.6172 77.1523 36.7969 77.1721C41.0762 77.1918 44.7617 77.2017 49.9863 77.2706C50.0254 77.2706 50.0762 77.2706 50.1152 77.2706C54.7676 77.2706 55.457 73.8009 55.5664 71.1887C55.5664 71.0803 55.5762 70.9817 55.5762 70.9028L55.625 70.1832C55.6445 70.0255 55.7344 69.9565 55.4375 69.9565ZM54.9062 10.9608C56.1465 14.0461 57.0156 17.2991 57.4688 20.6406C57.9707 24.3667 57.9609 28.1223 57.4199 31.7991C57.6367 32.7848 57.8125 33.8198 57.9609 34.9139C58.957 42.504 58.4434 50.2223 57.9512 57.6941L57.4785 64.8899C58.3848 62.7312 59.1738 60.5133 59.8145 58.2659C63.2949 46.1118 62.7812 33.2579 62.2793 20.8378C62.1992 18.8663 62.1113 16.6288 61.1953 14.7953C60.3867 13.1985 57.6758 11.5029 54.9062 10.9608ZM53.2305 10.7932C52.9238 10.7932 52.6191 10.813 52.3125 10.8425C49.1973 11.2368 47.4043 12.3704 46.7148 14.401C47.6309 15.1403 48.4785 15.9585 49.248 16.8456C52.4023 20.4534 54.7676 23.7556 56.2949 27.9449C56.582 22.0995 55.5156 16.1458 53.2305 10.7932ZM39.7246 10.5961C39.7656 10.606 39.7949 10.6158 39.834 10.6257C41.875 11.3058 43.7773 12.2719 45.502 13.4745C45.9746 12.3606 46.7441 11.4635 47.7891 10.7932C48.9121 10.0737 50.332 9.61035 52.1348 9.38367C52.6387 9.32446 53.1895 9.3147 53.7617 9.35413C53.7812 9.35413 53.791 9.35413 53.8105 9.35413C55.0332 9.44275 56.3848 9.76807 57.666 10.2806C56.6113 9.18652 55.4863 8.29932 54.2148 7.80652C51.5742 6.77148 49.5137 6.05188 47 6.18994C45.1562 6.28845 43.7969 6.49548 42.2988 7.24463C41.0664 7.84595 40.4355 8.65417 39.7246 10.5961ZM33.6328 1.63586C33.9492 2.16809 34.127 2.69055 34.2148 2.96655C34.4512 3.68616 34.6582 4.4353 34.8164 5.17456L34.8164 5.18445C35.1309 6.63354 35.2891 8.11206 35.2891 9.5907C36.2266 9.70898 37.1523 9.88635 38.0586 10.1132C38.0684 9.81738 38.0898 9.51184 38.1094 9.22595C38.1582 8.45703 38.1973 7.73755 38.1777 7.00806C38.1484 5.84485 37.8926 3.73547 36.4434 2.63147C35.6934 2.0498 34.6973 1.80347 33.6328 1.63586ZM28.8027 4.64233C30.1934 4.48462 31.7305 4.44519 33.1406 4.52405C33.043 4.1593 32.9336 3.79456 32.8145 3.4397C32.4512 2.35547 32.0176 1.75415 31.4844 1.59644C31.0508 1.46826 30.5078 1.64575 30.084 2.0498C29.6016 2.51318 29.3066 3.19336 29.1094 3.73547C28.9902 4.02136 28.8926 4.3269 28.8027 4.64233ZM28.459 6.17017C28.2715 7.3136 28.2422 8.46692 28.3496 9.61035C28.3984 9.60059 28.459 9.60046 28.5078 9.5907C30.2812 9.36389 32.0664 9.3147 33.8105 9.44275C33.8008 8.29932 33.6934 7.14612 33.4766 6.02234C31.8691 5.90405 30.0352 5.96313 28.459 6.17017ZM24.8301 10.3497C25.5117 10.1526 26.2012 9.99487 26.8906 9.85681C26.7324 8.35852 26.8027 6.86023 27.0977 5.3717C27.0977 5.36194 27.0977 5.36194 27.0977 5.35205L27.0977 5.34216C27.2461 4.61279 27.4531 3.90308 27.709 3.21301C27.8672 2.76941 28.084 2.25684 28.3984 1.7738C27.6992 1.96118 27.0879 2.23718 26.6152 2.60181C25.4023 3.54822 24.7715 5.07605 24.6836 7.2644C24.6641 8.28955 24.7422 9.29492 24.8301 10.3497ZM17.7148 15.505C17.6641 15.5543 17.6152 15.5938 17.5566 15.6233C14.707 17.8116 12.3613 20.6998 10.7051 24.1597C7.14648 31.5526 6.32812 37.0037 5.99414 45.067C5.99414 47.0483 5.96484 49.0592 5.93359 51.0011C5.88477 54.6187 5.82617 58.3644 5.96484 62.0411C5.99414 62.8889 5.96484 63.9535 5.92383 65.1758C5.89453 66.0333 5.875 66.96 5.86523 67.9161C22.4355 67.5021 39.2129 67.6992 55.7539 68.4977L56.4727 57.6055C56.9648 50.2124 57.4688 42.5632 56.4922 35.121C55.4863 27.452 52.7852 23.1248 48.1426 17.8215C47.3242 16.885 46.4277 16.0374 45.4531 15.2783C45.4219 15.2585 45.3926 15.2389 45.373 15.2191C43.5996 13.849 41.5977 12.7844 39.3613 12.0452C36.0488 10.9412 32.3613 10.5961 28.6953 11.0791C27.2266 11.2664 25.8164 11.5818 24.457 12.0254C24.4375 12.0353 24.3574 12.0549 24.3379 12.0648C21.9336 12.8337 19.7051 13.9968 17.7148 15.505ZM10.3203 8.10217C10.4199 8.11206 10.5078 8.12195 10.6074 8.13184C10.9512 8.18103 11.3066 8.25989 11.6621 8.37817L11.6719 8.37817C11.6719 8.37817 11.6719 8.37817 11.6816 8.37817C14.0176 9.13721 16.3145 11.3058 17.5176 13.8195C19.2129 12.6267 21.0645 11.6606 23.0273 10.9412C21.9629 9.40332 21.3125 8.46692 20.2578 7.66846C19.3203 6.96863 17.5273 6.62366 15.457 6.75183C13.8398 6.85034 12.2734 7.36292 10.834 7.90503C10.6465 7.97412 10.4785 8.04309 10.3203 8.10217ZM9.50195 22.8585C9.49219 22.9966 9.49219 23.1444 9.48242 23.2825C11.1289 19.9309 13.4746 17.0033 16.2949 14.746C15.3867 12.6957 13.5938 10.8229 11.7402 10.0046C9.87695 13.1492 9.68945 17.8707 9.50195 22.8585ZM3.70703 62.1497C3.92383 63.2142 4.14062 64.0916 4.45508 65.0181C4.48633 63.9141 4.51562 62.8691 4.48633 62.0905C4.34766 58.3743 4.40625 54.6088 4.45508 50.9714C4.48633 49.0295 4.51562 47.0286 4.51562 45.0472C4.51562 45.0374 4.51562 45.0276 4.51562 45.0177C4.80078 38.0585 5.44141 33.0017 7.81641 27.0183C7.90625 25.5989 7.96484 24.1794 8.01367 22.7994C8.21094 17.7919 8.38867 13.0408 10.2617 9.5907C7.40234 9.24561 4.33789 10.9115 3.08594 13.504C2.31641 15.1107 2.16016 16.9442 2.05078 19.0044C1.31055 32.972 0.818359 47.7975 3.70703 62.1497ZM22.5234 26.5156C22.2773 26.2593 22.248 25.8749 22.4453 25.5791C24.4863 22.5924 26.9707 19.9507 29.8184 17.713C30.1055 17.4863 30.5176 17.5061 30.7852 17.7623C31.6328 18.5608 32.5098 19.3395 33.3574 20.0985C35.1211 21.6658 36.9453 23.2726 38.5527 25.1454C38.8086 25.4412 38.7891 25.8848 38.502 26.1608C37.2715 27.3535 36.0488 28.7236 34.8652 30.0444C33.6621 31.3851 32.4316 32.7749 31.1484 34.0071C31.0117 34.1451 30.8242 34.2141 30.6367 34.2141C30.4883 34.2141 30.332 34.1648 30.2031 34.0762C28.1914 32.6271 26.457 30.7444 24.623 28.7631C23.9531 28.0238 23.2539 27.2648 22.5234 26.5156ZM24.0137 25.934C24.5938 26.5452 25.166 27.1661 25.7188 27.7576C27.3438 29.5221 28.8926 31.188 30.5781 32.5088C31.6621 31.4246 32.7266 30.2318 33.7617 29.0686C34.7969 27.9055 35.8711 26.7029 36.9648 25.5989C35.5352 24.0316 33.9883 22.6614 32.3613 21.2124C31.6621 20.5914 30.9316 19.9507 30.2227 19.2902C27.8672 21.2124 25.7773 23.4402 24.0137 25.934Z" fill="#669BB5" fill-opacity="1.000000" fill-rule="nonzero"/>
</svg>
