<svg width="89.000000" height="88.678101" viewBox="0 0 89 88.6781" fill="none" xmlns="http://www.w3.org/2000/svg" xmlns:xlink="http://www.w3.org/1999/xlink">
	<desc>
			Created with Pixso.
	</desc>
	<defs/>
	<path id="Vector" d="M80.0996 78.0366L80.0996 83.3573C80.0996 85.3153 78.5039 86.9044 76.5391 86.9044L69.4199 86.9044C67.4551 86.9044 65.8594 85.3153 65.8594 83.3573L65.8594 79.8102" stroke="#669BB5" stroke-opacity="1.000000" stroke-width="2.000000"/>
	<path id="Vector" d="M23.1406 79.8102L23.1406 83.3573C23.1406 85.3153 21.5449 86.9044 19.5801 86.9044L12.4609 86.9044C10.4961 86.9044 8.90039 85.3153 8.90039 83.3573L8.90039 78.0366" stroke="#669BB5" stroke-opacity="1.000000" stroke-width="2.000000"/>
	<path id="Vector" d="M71.2012 1.77344L21.3613 1.77344C10.6816 1.77344 7.12109 4.81335 7.12109 14.1884C7.12109 21.2826 7.12109 45.9689 7.12109 52.9336C7.12109 63.1688 7.12109 72.7159 7.12109 72.7159C7.12109 78.59 11.9062 79.8102 17.8008 79.8102L71.2012 79.8102C77.0957 79.8102 81.8809 78.59 81.8809 72.7159C81.8809 72.7159 81.8809 64.8662 81.8809 52.9336C81.8809 45.8464 81.8809 23.0562 81.8809 15.9619C81.8809 6.80859 80.1016 1.77344 71.2012 1.77344Z" stroke="#669BB5" stroke-opacity="1.000000" stroke-width="2.000000"/>
	<path id="Vector" d="M68.5312 72.7159C65.0898 72.7159 62.3008 69.9368 62.3008 66.5085C62.3008 63.0802 65.0898 60.301 68.5312 60.301C71.9707 60.301 74.7617 63.0802 74.7617 66.5085C74.7617 69.9368 71.9707 72.7159 68.5312 72.7159Z" stroke="#669BB5" stroke-opacity="1.000000" stroke-width="2.000000"/>
	<path id="Vector" d="M20.4707 72.7159C17.0293 72.7159 14.2402 69.9368 14.2402 66.5085C14.2402 63.0802 17.0293 60.301 20.4707 60.301C23.9102 60.301 26.7012 63.0802 26.7012 66.5085C26.7012 69.9368 23.9102 72.7159 20.4707 72.7159Z" stroke="#669BB5" stroke-opacity="1.000000" stroke-width="2.000000"/>
	<path id="Vector" d="M81.8789 23.0562L85.4395 23.0562C86.4238 23.0562 87.2188 23.8507 87.2188 24.8297L87.2188 39.0182C87.2188 39.9972 86.4238 40.7917 85.4395 40.7917L81.8789 40.7917" stroke="#669BB5" stroke-opacity="1.000000" stroke-width="2.000000"/>
	<path id="Vector" d="M7.11914 23.0562L3.55859 23.0562C2.57617 23.0562 1.7793 23.8507 1.7793 24.8297L1.7793 39.0182C1.7793 39.9972 2.57617 40.7917 3.55859 40.7917L7.11914 40.7917" stroke="#669BB5" stroke-opacity="1.000000" stroke-width="2.000000"/>
	<path id="Vector" d="M64.0801 14.1885L26.6992 14.1885C25.7168 14.1885 24.9199 13.3939 24.9199 12.4149L24.9199 8.8678C24.9199 7.88879 25.7168 7.09424 26.6992 7.09424L64.0801 7.09424C65.0645 7.09424 65.8594 7.88879 65.8594 8.8678L65.8594 12.4149C65.8594 13.3939 65.0645 14.1885 64.0801 14.1885Z" stroke="#669BB5" stroke-opacity="1.000000" stroke-width="2.000000"/>
	<path id="Vector" d="M19.5801 51.4333C16.0195 51.4333 14.2402 49.6598 14.2402 46.1127C14.2402 40.792 14.2402 30.4008 14.2402 24.83C14.2402 21.2828 16.0195 19.5093 19.5801 19.5093C35.5996 19.5093 47.5488 19.5093 69.4199 19.5093C72.9805 19.5093 74.7598 21.2828 74.7598 24.83C74.7598 28.3771 74.7598 44.2983 74.7598 46.1127C74.7598 49.6598 71.2832 51.295 69.4199 51.295L19.5801 51.4333Z" stroke="#669BB5" stroke-opacity="1.000000" stroke-width="2.000000"/>
</svg>
