<svg width="90.000000" height="90.000000" viewBox="0 0 90 90" fill="none" xmlns="http://www.w3.org/2000/svg" xmlns:xlink="http://www.w3.org/1999/xlink">
	<desc>
			Created with Pixso.
	</desc>
	<defs/>
	<path id="Vector" d="M87.9473 77.2301L87.9473 48.0127C87.9473 44.6107 87.3789 41.2571 86.2598 38.0453L84.8652 34.0436L84.8652 15.9862C84.8652 15.9301 84.8613 15.8727 84.8516 15.8175L83.3809 6.13574C82.8418 2.58081 79.8398 0 76.2422 0L64.6387 0C61.043 0 58.0391 2.58081 57.5 6.13574L56.0293 15.8175C56.0195 15.8749 56.0156 15.9323 56.0156 15.9907L56.0469 24.1021L33.9121 24.1021L33.9121 15.9862C33.9121 15.9301 33.9082 15.8727 33.8984 15.8175L32.4277 6.13574C31.8887 2.58081 28.8848 0 25.2891 0L13.6836 0C10.0898 0 7.08594 2.58081 6.54688 6.13574L5.07422 15.8175C5.06641 15.8749 5.06055 15.9323 5.06055 15.9907L5.13281 34.0459L3.73828 38.0453C2.61914 41.2571 2.05078 44.6107 2.05078 48.0127L2.05078 77.2301C0.871094 77.5654 0 78.6398 0 79.9257L0 87.1864C0 88.7378 1.26172 90 2.8125 90L36.2344 90C37.7852 90 39.0469 88.7378 39.0469 87.1864L39.0469 79.9257C39.0469 78.6398 38.1738 77.5642 36.9941 77.2301L36.9941 53.4375L53.0059 53.4375L53.0059 77.2301C51.8262 77.5642 50.9531 78.6398 50.9531 79.9257L50.9531 87.1864C50.9531 88.7378 52.2148 90 53.7656 90L87.1875 90C88.7383 90 90 88.7378 90 87.1864L90 79.9257C90 78.6398 89.1289 77.5654 87.9473 77.2301ZM85.6973 48.0127L85.6973 48.321L55.2559 48.321L55.2559 48.0127C55.2559 46.7876 55.3594 45.5726 55.5176 44.3666L85.4355 44.3666C85.5938 45.5726 85.6973 46.7876 85.6973 48.0127ZM85.6973 50.571L85.6973 77.1132L55.2559 77.1132L55.2559 50.571L85.6973 50.571ZM59.7246 6.47437C60.0957 4.02637 62.1621 2.25 64.6387 2.25L76.2422 2.25C78.7168 2.25 80.7832 4.02637 81.1562 6.47437L82.4316 14.8612L58.4492 14.8612L59.7246 6.47437ZM82.6152 17.1112L82.6152 33.1088L58.334 33.1088L58.2695 17.1112L82.6152 17.1112ZM58.0137 35.3588L82.9414 35.3588L84.1348 38.7855C84.5176 39.8779 84.8027 40.9928 85.0469 42.1166L55.9062 42.1166C56.1484 40.9928 56.4375 39.8779 56.8184 38.7855L58.0137 35.3588ZM8.76953 6.47437C9.14258 4.02637 11.209 2.25 13.6836 2.25L25.2891 2.25C27.7637 2.25 29.8301 4.02637 30.2031 6.47437L31.4766 14.8612L7.49609 14.8612L8.76953 6.47437ZM31.6621 17.1112L31.6621 33.1088L7.38086 33.1088L7.31641 17.1112L31.6621 17.1112ZM5.86523 38.7855L7.05859 35.3588L31.9863 35.3588L33.1816 38.7855C33.5625 39.8779 33.8516 40.9928 34.0938 42.1166L4.95312 42.1166C5.19531 40.9928 5.48242 39.8779 5.86523 38.7855ZM4.30273 48.0127C4.30273 46.7876 4.40625 45.5726 4.56445 44.3666L34.4824 44.3666C34.6406 45.5726 34.7441 46.7876 34.7441 48.0127L34.7441 48.321L4.30273 48.321L4.30273 48.0127ZM4.30273 50.571L34.7441 50.571L34.7441 77.1132L4.30273 77.1132L4.30273 50.571ZM36.7969 87.1864C36.7969 87.4968 36.543 87.75 36.2344 87.75L2.8125 87.75C2.50391 87.75 2.25 87.4968 2.25 87.1864L2.25 79.9257C2.25 79.6151 2.50391 79.3621 2.8125 79.3621L36.2344 79.3621C36.543 79.3621 36.7969 79.6151 36.7969 79.9257L36.7969 87.1864ZM53.0059 51.1875L36.9941 51.1875L36.9941 48.0127C36.9941 44.6107 36.4258 41.2571 35.3066 38.0453L33.9121 34.0436L33.9121 26.3521L56.0586 26.3521L56.0879 34.0459L54.6934 38.0453C53.5742 41.2571 53.0059 44.6107 53.0059 48.0127L53.0059 51.1875ZM87.75 87.1864C87.75 87.4968 87.4961 87.75 87.1875 87.75L53.7656 87.75C53.457 87.75 53.2031 87.4968 53.2031 87.1864L53.2031 79.9257C53.2031 79.6151 53.457 79.3621 53.7656 79.3621L87.1875 79.3621C87.4961 79.3621 87.75 79.6151 87.75 79.9257L87.75 87.1864Z" fill="#669BB5" fill-opacity="1.000000" fill-rule="nonzero"/>
</svg>
