<svg width="98.978516" height="99.006958" viewBox="0 0 98.9785 99.007" fill="none" xmlns="http://www.w3.org/2000/svg" xmlns:xlink="http://www.w3.org/1999/xlink">
	<desc>
			Created with Pixso.
	</desc>
	<defs/>
	<path id="Vector" d="M14.918 16.5037C13.6172 16.5037 12.5605 17.5612 12.5605 18.8607C12.5605 20.1603 13.6172 21.2178 14.918 21.2178C16.2168 21.2178 17.2754 20.1603 17.2754 18.8607C17.2754 17.5612 16.2168 16.5037 14.918 16.5037ZM14.918 19.6465C14.4844 19.6465 14.1328 19.2937 14.1328 18.8607C14.1328 18.4279 14.4844 18.0751 14.918 18.0751C15.3516 18.0751 15.7031 18.4279 15.7031 18.8607C15.7031 19.2937 15.3516 19.6465 14.918 19.6465Z" fill="#669BB5" fill-opacity="1.000000" fill-rule="nonzero"/>
	<path id="Vector" d="M84.8457 21.199C86.1445 21.199 87.2031 20.1415 87.2031 18.8419C87.2031 17.5424 86.1445 16.4849 84.8457 16.4849C83.5449 16.4849 82.4883 17.5424 82.4883 18.8419C82.4883 20.1415 83.5449 21.199 84.8457 21.199ZM84.8457 18.0563C85.2793 18.0563 85.6309 18.4091 85.6309 18.8419C85.6309 19.2749 85.2793 19.6277 84.8457 19.6277C84.4121 19.6277 84.0605 19.2749 84.0605 18.8419C84.0605 18.4091 84.4121 18.0563 84.8457 18.0563Z" fill="#669BB5" fill-opacity="1.000000" fill-rule="nonzero"/>
	<path id="Vector" d="M17.2754 80.1259C17.2754 78.8263 16.2168 77.7688 14.918 77.7688C13.6172 77.7688 12.5605 78.8263 12.5605 80.1259C12.5605 81.4254 13.6172 82.4829 14.918 82.4829C16.2168 82.4829 17.2754 81.4254 17.2754 80.1259ZM14.1328 80.1259C14.1328 79.693 14.4844 79.3402 14.918 79.3402C15.3516 79.3402 15.7031 79.693 15.7031 80.1259C15.7031 80.5588 15.3516 80.9116 14.918 80.9116C14.4844 80.9116 14.1328 80.5588 14.1328 80.1259Z" fill="#669BB5" fill-opacity="1.000000" fill-rule="nonzero"/>
	<path id="Vector" d="M84.0605 77.7688C82.7598 77.7688 81.7031 78.8263 81.7031 80.1259C81.7031 81.4254 82.7598 82.4829 84.0605 82.4829C85.3594 82.4829 86.418 81.4254 86.418 80.1259C86.418 78.8263 85.3594 77.7688 84.0605 77.7688ZM84.0605 80.9116C83.627 80.9116 83.2754 80.5588 83.2754 80.1259C83.2754 79.693 83.627 79.3402 84.0605 79.3402C84.4941 79.3402 84.8457 79.693 84.8457 80.1259C84.8457 80.5588 84.4941 80.9116 84.0605 80.9116Z" fill="#669BB5" fill-opacity="1.000000" fill-rule="nonzero"/>
	<path id="Vector" d="M65.6016 39.5253L82.9277 23.9921C83.5234 24.2136 84.1641 24.3409 84.8359 24.3409C84.8516 24.3409 84.8652 24.3386 84.8809 24.3386L94.4883 36.6865C95.1172 37.3733 95.9473 37.7371 96.7324 37.7371C97.2148 37.7371 97.6816 37.5995 98.0742 37.3151C98.5215 36.9906 99.8438 35.6926 98.1074 32.6229L94.9648 27.123C94.1133 25.4182 93.2227 23.7407 92.4805 23.0288L90.0391 20.5878C90.2227 20.0409 90.3262 19.4579 90.3262 18.8497C90.3262 15.8225 87.8633 13.3594 84.8359 13.3594C84.5625 13.3594 84.2969 13.386 84.0352 13.4246L74.4062 1.05139C73.3926 -0.0563965 71.8516 -0.32666 70.8203 0.422119C70.375 0.746582 69.0508 2.04456 70.7891 5.11426L73.9277 10.6094C74.7383 12.2343 75.6699 13.9934 76.4141 14.7084L79.457 17.7506C79.3828 18.1064 79.3457 18.475 79.3457 18.8513C79.3457 18.9204 79.3535 18.9873 79.3555 19.0548L65.5312 27.4326C64.3379 23.2339 60.8809 19.9788 56.5605 19.098L56.5605 18.8607C56.5605 18.809 56.5547 18.7578 56.5449 18.7068C56.1914 16.9468 54.584 15.718 52.6309 15.718L46.3457 15.718C44.3945 15.718 42.7852 16.9468 42.4336 18.7068C42.4238 18.7578 42.418 18.809 42.418 18.8607L42.418 19.098C38.1016 19.978 34.6484 23.2277 33.4512 27.4358L20.3594 19.5018C20.3828 19.2944 20.3984 19.0847 20.3984 18.8702C20.3984 18.2699 20.2988 17.6932 20.1191 17.1519L22.5527 14.7194C23.3086 13.9934 24.2402 12.2343 25.0469 10.6133L28.1914 5.11108C29.9277 2.04456 28.6035 0.746582 28.1562 0.422119C27.127 -0.328247 25.584 -0.0563965 24.5312 1.09937L14.9766 13.3837C14.9551 13.3837 14.9316 13.3805 14.9082 13.3805C11.8809 13.3805 9.41992 15.8438 9.41992 18.871C9.41992 19.256 9.46094 19.6307 9.53516 19.9938L6.50977 23.0194C5.75586 23.7423 4.86523 25.4205 4.01367 27.1255L0.869141 32.6277C-0.867188 35.6942 0.457031 36.9922 0.904297 37.3167C1.29297 37.5988 1.75391 37.7362 2.23242 37.7362C3.02734 37.7362 3.87305 37.3599 4.53125 36.6394L14.1289 24.2993C14.3848 24.3354 14.6426 24.3606 14.9082 24.3606C15.377 24.3606 15.8301 24.2954 16.2637 24.1846L33.375 39.5253L34.2109 58.7316L16.2637 74.821C15.8301 74.7102 15.377 74.645 14.9082 74.645C14.6426 74.645 14.3828 74.6702 14.127 74.707L4.49023 62.319C3.47656 61.2104 1.93555 60.9417 0.904297 61.6897C0.457031 62.0142 -0.867188 63.3121 0.871094 66.3818L4.01172 71.8801C4.86328 73.5851 5.75586 75.2633 6.49805 75.976L9.53516 79.0134C9.46094 79.3756 9.41992 79.7512 9.41992 80.1362C9.41992 83.1635 11.8828 85.6266 14.9082 85.6266C14.9316 85.6266 14.9531 85.6235 14.9766 85.6235L24.5723 97.9557C25.1992 98.6425 26.0293 99.007 26.8164 99.007C27.2988 99.007 27.7656 98.8695 28.1562 98.5851C28.6035 98.2598 29.9277 96.9626 28.1895 93.8929L25.0508 88.3977C24.2402 86.7729 23.3086 85.0138 22.5645 84.2988L20.1191 81.8545C20.2988 81.3132 20.3984 80.7365 20.3984 80.1362C20.3984 79.9225 20.3828 79.7126 20.3594 79.5045L35.4336 70.3684C36.7383 72.9039 39.375 74.645 42.418 74.645L56.5605 74.645C59.6055 74.645 62.2461 72.8992 63.5488 70.3708L78.5996 79.4927C78.5762 79.7041 78.5586 79.917 78.5586 80.1346C78.5586 80.7404 78.6621 81.3218 78.8438 81.8671L76.4258 84.2854C75.668 85.0115 74.7383 86.7706 73.9297 88.3915L70.7852 93.8937C69.0488 96.9602 70.373 98.2582 70.8203 98.5828C71.209 98.8647 71.6699 99.0023 72.1484 99.0023C72.9434 99.0023 73.7891 98.626 74.4453 97.9054L84 85.6219C84.0176 85.6219 84.0332 85.6243 84.0488 85.6243C87.0762 85.6243 89.5391 83.1611 89.5391 80.1338C89.5391 79.532 89.4395 78.9537 89.2598 78.4116L91.6738 75.9963C92.4277 75.2736 93.3203 73.5953 94.1699 71.8904L97.3145 66.3882C99.0508 63.3215 97.7266 62.0236 97.2793 61.6991C96.248 60.9487 94.707 61.2206 93.6543 62.3763L84.1094 74.6473C84.0898 74.6473 84.0703 74.6442 84.0488 74.6442C83.5879 74.6442 83.1387 74.7079 82.709 74.8163L64.7676 58.7323L65.6016 39.5253ZM91.3809 24.1523C92.041 24.7872 93.1445 26.995 93.5586 27.8263C93.5645 27.8396 93.5918 27.8915 93.5996 27.9041L96.7402 33.4016C97.5547 34.8409 97.5332 35.7665 97.1504 36.0454C96.8223 36.2827 96.1426 36.1688 95.6875 35.6754L86.6328 24.0338C87.707 23.6598 88.6289 22.9629 89.2832 22.057L91.3809 24.1523ZM88.7539 18.8513C88.7539 21.012 86.9961 22.7704 84.8359 22.7704C82.6758 22.7704 80.918 21.0128 80.918 18.8513C80.918 16.6899 82.6738 14.9323 84.834 14.9323C86.9961 14.9323 88.7539 16.6899 88.7539 18.8513ZM77.5137 13.5856C76.8516 12.95 75.748 10.7399 75.334 9.90784C75.3262 9.89441 75.3027 9.84729 75.2949 9.83472L72.1543 4.33716C71.3379 2.89783 71.3613 1.97229 71.7441 1.69336C72.0664 1.45605 72.75 1.56848 73.207 2.06348L82.4297 13.9227C81.4375 14.4091 80.6133 15.183 80.0664 16.1392L77.5137 13.5856ZM79.6719 20.7001C80.0293 21.6908 80.6602 22.5488 81.4746 23.1836L65.6973 37.3285L65.9883 30.6461C65.9883 30.1088 65.9395 29.5839 65.8691 29.0653L79.6719 20.7001ZM46.3457 17.2894L52.6309 17.2894C53.6074 17.2894 54.6855 17.7906 54.9727 18.9C54.7168 18.8828 54.4629 18.8607 54.2031 18.8607L44.7754 18.8607C44.5137 18.8607 44.2598 18.8828 44.0039 18.9C44.291 17.7906 45.3711 17.2894 46.3457 17.2894ZM25.7305 2.11133C26.2266 1.56921 26.9082 1.45691 27.2324 1.69336C27.6172 1.97144 27.6387 2.89783 26.8262 4.33411L23.6836 9.83398C23.6738 9.84644 23.6504 9.89368 23.6445 9.90698C23.2285 10.739 22.125 12.95 21.4512 13.5966L19.3691 15.6803C18.7168 14.772 17.7969 14.0719 16.7246 13.6948L25.7305 2.11133ZM3.33008 35.6267C2.83398 36.1688 2.15234 36.2811 1.82812 36.0447C1.44531 35.7665 1.42188 34.8402 2.23633 33.4039L5.37891 27.9041C5.38672 27.8915 5.41211 27.8396 5.41797 27.8263C5.83398 26.995 6.93555 24.7872 7.60938 24.1414L10.1523 21.5989C10.7012 22.5527 11.5273 23.3242 12.5215 23.8066L3.33008 35.6267ZM10.9902 18.8702C10.9902 16.7095 12.748 14.9512 14.9082 14.9512C17.0703 14.9512 18.8262 16.7087 18.8262 18.8702C18.8262 21.0316 17.0703 22.7892 14.9082 22.7892C12.748 22.7892 10.9902 21.0316 10.9902 18.8702ZM17.8516 23.4972C18.7617 22.9158 19.4902 22.0767 19.9316 21.0796L33.1113 29.0685C33.0391 29.5973 32.9883 30.1323 32.9902 30.6808L33.2793 37.3285L17.8516 23.4972ZM7.59766 74.8531C6.93555 74.2175 5.83398 72.009 5.41797 71.1777C5.41211 71.1643 5.38672 71.1141 5.37891 71.1016L2.23633 65.604C1.42188 64.1647 1.44531 63.2391 1.82812 62.9602C2.15039 62.7245 2.83398 62.8361 3.28906 63.3311L12.5195 75.1989C11.5273 75.6821 10.6992 76.4529 10.1504 77.4067L7.59766 74.8531ZM10.9902 80.1354C10.9902 77.9747 12.748 76.2164 14.9082 76.2164C17.0703 76.2164 18.8262 77.974 18.8262 80.1354C18.8262 82.2969 17.0703 84.0544 14.9082 84.0544C12.748 84.0544 10.9902 82.296 10.9902 80.1354ZM21.4629 85.4199C22.127 86.0557 23.2285 88.2657 23.6445 89.0978C23.6504 89.1112 23.6738 89.1583 23.6836 89.1709L26.8242 94.6683C27.6387 96.1078 27.6172 97.0333 27.2324 97.3123C26.9082 97.5471 26.2266 97.4364 25.7715 96.9421L16.7246 85.3108C17.7969 84.9329 18.7188 84.2336 19.3691 83.3253L21.4629 85.4199ZM19.9316 77.926C19.4902 76.929 18.7617 76.0898 17.8516 75.5084L34.2988 60.7633L34.5605 66.7881C34.5605 67.514 34.668 68.2148 34.8535 68.8827L19.9316 77.926ZM43.375 73.0736L43.9648 70.1217C44.2207 69.1003 45.2207 68.3595 46.3457 68.3595L52.6309 68.3595C53.7559 68.3595 54.7559 69.1003 55.0039 70.0848L55.6016 73.0736L43.375 73.0736ZM57.1973 73.0414L56.5352 69.7399C56.1094 68.0294 54.4668 66.7881 52.6309 66.7881L46.3457 66.7881C44.5117 66.7881 42.8691 68.0294 42.4336 69.7769L41.7812 73.0414C38.6133 72.7208 36.1328 70.0369 36.1328 66.7543L34.9297 39.119L34.9297 39.116L34.5605 30.6461C34.5605 30.0082 34.627 29.3851 34.7402 28.7793L34.7402 28.7778C35.6211 24.0361 39.7812 20.4321 44.7754 20.4321L54.2031 20.4321C59.1973 20.4321 63.3574 24.0377 64.2383 28.7566C64.2402 28.7715 64.2422 28.7848 64.2441 28.7998C64.3516 29.389 64.416 29.9933 64.416 30.6124L62.8457 66.7881C62.8457 70.0385 60.3652 72.7208 57.1973 73.0414ZM73.248 96.8943C72.75 97.4364 72.0664 97.548 71.7441 97.3123C71.3613 97.0341 71.3379 96.1078 72.1523 94.6715L75.2949 89.1716C75.3027 89.1591 75.3262 89.1119 75.334 89.0986C75.748 88.2666 76.8516 86.0557 77.5254 85.4089L79.5977 83.3363C80.252 84.2438 81.1738 84.9415 82.25 85.3163L73.248 96.8943ZM84.0488 84.0544C81.8887 84.0544 80.1309 82.2969 80.1309 80.1354C80.1309 77.974 81.8887 76.2164 84.0488 76.2164C86.2109 76.2164 87.9688 77.974 87.9688 80.1354C87.9688 82.2969 86.2109 84.0544 84.0488 84.0544ZM94.8516 63.3899C95.3496 62.847 96.0312 62.7355 96.3555 62.9719C96.7383 63.2501 96.7617 64.1764 95.9473 65.6127L92.8047 71.1125C92.7969 71.1251 92.7715 71.1769 92.7656 71.1903C92.3496 72.0216 91.2461 74.2294 90.5742 74.8752L88.5078 76.9424C87.8535 76.0333 86.9316 75.334 85.8574 74.9569L94.8516 63.3899ZM81.1172 75.5013C80.2051 76.0812 79.4746 76.9204 79.0312 77.9174L64.1289 68.885C64.3105 68.2258 64.416 67.5369 64.416 66.8226L64.6797 60.7642L81.1172 75.5013Z" fill="#669BB5" fill-opacity="1.000000" fill-rule="nonzero"/>
	<path id="Vector" d="M56.5586 25.9321L42.416 25.9321C40.25 25.9321 38.4883 27.6945 38.4883 29.8606L38.4883 36.1461C38.4883 38.3123 40.25 40.0746 42.416 40.0746L56.5586 40.0746C58.7246 40.0746 60.4883 38.3123 60.4883 36.1461L60.4883 29.8606C60.4883 27.6945 58.7246 25.9321 56.5586 25.9321ZM58.916 36.1461C58.916 37.4457 57.8594 38.5032 56.5586 38.5032L42.416 38.5032C41.1172 38.5032 40.0605 37.4457 40.0605 36.1461L40.0605 29.8606C40.0605 28.561 41.1172 27.5035 42.416 27.5035L56.5586 27.5035C57.8594 27.5035 58.916 28.561 58.916 29.8606L58.916 36.1461Z" fill="#669BB5" fill-opacity="1.000000" fill-rule="nonzero"/>
</svg>
