<svg width="90.279297" height="85.890137" viewBox="0 0 90.2793 85.8901" fill="none" xmlns="http://www.w3.org/2000/svg" xmlns:xlink="http://www.w3.org/1999/xlink">
	<desc>
			Created with Pixso.
	</desc>
	<defs/>
	<path id="Vector" d="M13.2305 40.7002L81.8145 40.7002C82.082 40.7002 82.3359 40.5945 82.5254 40.4062C82.7129 40.2179 82.8184 39.9626 82.8184 39.6963L82.8184 1.00391C82.8184 0.737671 82.7129 0.4823 82.5254 0.294067C82.3359 0.105713 82.082 0 81.8145 0L13.2305 0C12.9648 0 12.709 0.105713 12.5215 0.294067C12.332 0.4823 12.2266 0.737671 12.2266 1.00391L12.2266 39.6963C12.2266 39.9626 12.332 40.2179 12.5215 40.4062C12.709 40.5945 12.9648 40.7002 13.2305 40.7002ZM68.3164 2.00781C69.3203 4.17419 73.0527 10.9606 80.8105 11.5067L80.8105 29.1935C73.0488 29.7417 69.3164 36.52 68.3164 38.6925L26.7285 38.6925C25.7246 36.5281 21.9922 29.7417 14.2344 29.1935L14.2344 11.5067C21.9922 10.9606 25.7285 4.17419 26.7285 2.00781L68.3164 2.00781ZM14.2344 31.2074C20.1367 31.6873 23.2812 36.3333 24.5078 38.6925L14.2344 38.6925L14.2344 31.2074ZM70.5488 38.6925C71.7969 36.3413 74.9668 31.6952 80.8105 31.2094L80.8105 38.6925L70.5488 38.6925ZM80.8105 9.49487C74.9082 9.01306 71.7637 4.36902 70.5371 2.00781L80.8105 2.00781L80.8105 9.49487ZM24.4961 2.00781C23.2559 4.36096 20.0703 9.01306 14.2344 9.49292L14.2344 2.00781L24.4961 2.00781Z" fill="#669BB5" fill-opacity="1.000000" fill-rule="nonzero"/>
	<path id="Vector" d="M89.7734 58.5197C89.0723 57.0747 87.9004 55.9122 86.4492 55.2251C84.998 54.5378 83.3555 54.3671 81.7949 54.741L61.3828 59.5356C61.1699 59.3933 60.9473 59.2657 60.7168 59.1542L45.2207 51.647C39.0254 48.6534 31.9883 47.8855 25.2949 49.4725L15.873 51.7152L8.79883 51.7152L8.79883 42.8809C8.79883 42.6146 8.69336 42.3593 8.50391 42.171C8.31641 41.9827 8.06055 41.877 7.79492 41.877L1.00391 41.877C0.738281 41.877 0.482422 41.9827 0.294922 42.171C0.105469 42.3593 0 42.6146 0 42.8809C0 43.1471 0.105469 43.4025 0.294922 43.5907C0.482422 43.7791 0.738281 43.8848 1.00391 43.8848L6.79102 43.8848L6.79102 83.8823L1.00391 83.8823C0.738281 83.8823 0.482422 83.988 0.294922 84.1763C0.105469 84.3646 0 84.6199 0 84.8862C0 85.1525 0.105469 85.4078 0.294922 85.5961C0.482422 85.7843 0.738281 85.8901 1.00391 85.8901L7.79492 85.8901C8.06055 85.8901 8.31641 85.7843 8.50391 85.5961C8.69336 85.4078 8.79883 85.1525 8.79883 84.8862L8.79883 72.0583L20.8457 72.0583L38.3359 78.8849C42.0996 80.3485 46.127 81.015 50.1621 80.8423C54.1973 80.6694 58.1523 79.6611 61.7773 77.881L87.5039 65.1855C88.6855 64.5992 89.5879 63.5692 90.0137 62.3203C90.4375 61.0715 90.3516 59.7052 89.7734 58.5197ZM86.6113 63.3845L60.8887 76.0619C57.5137 77.7216 53.832 78.6625 50.0762 78.825C46.3184 78.9873 42.5684 78.3678 39.0645 77.0055L21.3945 70.1268C21.2832 70.0811 21.166 70.0553 21.0449 70.0505L8.79883 70.0505L8.79883 53.723L15.9824 53.723C16.0605 53.7234 16.1387 53.7147 16.2148 53.6969L25.752 51.426C31.9961 49.9454 38.5586 50.6616 44.3359 53.454L59.832 60.9612C60.5859 61.3269 61.1875 61.9437 61.5332 62.7052C61.8809 63.4667 61.9512 64.3253 61.7344 65.1334C61.5176 65.9155 61.0293 66.5939 60.3535 67.0443C59.6797 67.4949 58.8652 67.6875 58.0605 67.5869L34.9922 64.6174C34.8613 64.6006 34.7285 64.6099 34.6016 64.6444C34.4746 64.679 34.3555 64.7383 34.25 64.8188C34.1465 64.8995 34.0586 64.9999 33.9941 65.1144C33.9277 65.2288 33.8848 65.355 33.8691 65.4857C33.8516 65.6166 33.8613 65.7494 33.8965 65.8766C33.9297 66.0038 33.9902 66.1229 34.0703 66.2273C34.1504 66.3315 34.252 66.4191 34.3652 66.4845C34.4805 66.55 34.6055 66.5924 34.7363 66.6091L57.8105 69.5786C58.0371 69.6082 58.2637 69.6229 58.4922 69.6228C59.6699 69.6199 60.8164 69.2308 61.7539 68.515C62.6895 67.7992 63.3672 66.7963 63.6797 65.6594C63.8809 64.9126 63.9238 64.1323 63.8086 63.3677C63.6934 62.603 63.4219 61.8706 63.0098 61.2162L82.248 56.6986C83.3672 56.429 84.5469 56.5509 85.5879 57.0441C86.6289 57.5371 87.4688 58.3718 87.9707 59.4092C88.3145 60.1171 88.3633 60.9321 88.1094 61.6766C87.8535 62.4213 87.3164 63.0352 86.6113 63.3845Z" fill="#669BB5" fill-opacity="1.000000" fill-rule="nonzero"/>
	<path id="Vector" d="M47.6328 29.5149L47.5488 29.5149C44.0371 29.4205 43.3984 27.2821 43.377 27.2039C43.3477 27.0723 43.293 26.9478 43.2168 26.8378C43.1387 26.7277 43.041 26.6342 42.9258 26.563C42.8125 26.4918 42.6836 26.4442 42.5508 26.4232C42.418 26.4021 42.2832 26.408 42.1523 26.4404C42.0215 26.4729 41.8984 26.5312 41.791 26.6119C41.6836 26.6927 41.5938 26.7944 41.5254 26.9108C41.459 27.0271 41.416 27.1559 41.3984 27.2893C41.3809 27.4227 41.3926 27.5582 41.4277 27.6877C41.4629 27.8282 42.2793 30.9203 46.5176 31.4484L46.5176 34.1107C46.5176 34.377 46.625 34.6323 46.8125 34.8206C47 35.0088 47.2559 35.1146 47.5215 35.1146C47.7891 35.1146 48.043 35.0088 48.2324 34.8206C48.4199 34.6323 48.5254 34.377 48.5254 34.1107L48.5254 31.4463C50.9258 31.0448 53.0684 29.0992 53.5449 26.71C53.8301 25.2823 53.8516 21.7145 47.8809 19.4136C44.6836 18.1808 43.0625 16.3496 43.4648 14.394C43.8105 12.6693 45.6387 11.1956 47.4102 11.1956L47.4941 11.1956C50.9824 11.29 51.6367 13.4042 51.668 13.5187C51.7383 13.7714 51.9043 13.9865 52.1328 14.1179C52.3594 14.2495 52.6289 14.287 52.8828 14.2224C53.1367 14.158 53.3555 13.9965 53.4922 13.7726C53.6289 13.5488 53.6719 13.2804 53.6133 13.0248C53.5801 12.8842 52.7617 9.79419 48.5254 9.26416L48.5254 6.60376C48.5254 6.33752 48.4199 6.08215 48.2324 5.89392C48.043 5.70557 47.7891 5.59985 47.5215 5.59985C47.2559 5.59985 47 5.70557 46.8125 5.89392C46.625 6.08215 46.5176 6.33752 46.5176 6.60376L46.5176 9.25403C44.0918 9.65564 41.9746 11.5972 41.498 13.9905C41.2129 15.42 41.1934 18.9879 47.1621 21.2888C50.3613 22.5216 51.9707 24.3528 51.5801 26.3083C51.2324 28.0411 49.4043 29.5149 47.6328 29.5149Z" fill="#669BB5" fill-opacity="1.000000" fill-rule="nonzero"/>
</svg>
