<svg width="84.000000" height="84.000000" viewBox="0 0 84 84" fill="none" xmlns="http://www.w3.org/2000/svg" xmlns:xlink="http://www.w3.org/1999/xlink">
	<desc>
			Created with Pixso.
	</desc>
	<defs/>
	<path id="Vector" d="M79.334 4.66663L46 4.66663L46 2C46 0.897339 45.1035 0 44 0L40 0C38.8965 0 38 0.897339 38 2L38 4.66663L4.66602 4.66663C2.09375 4.66663 0 6.76001 0 9.33264L0 56.0006C0 58.5734 2.09375 60.6666 4.66602 60.6666L17.3965 60.6666L7.39062 83.0613C7.29883 83.2681 7.31836 83.5067 7.44141 83.696C7.5625 83.8854 7.77344 84 8 84L14 84C14.2637 84 14.502 83.8459 14.6094 83.6053L19.4961 72.6666L38 72.6666L38 83.3334C38 83.702 38.2988 84 38.666 84L45.334 84C45.7012 84 46 83.702 46 83.3334L46 72.6666L64.5039 72.6666L69.3906 83.6053C69.498 83.8453 69.7363 84 70 84L76 84C76.2246 84 76.4355 83.8854 76.5586 83.696C76.6816 83.5067 76.6992 83.2673 76.6074 83.0613L66.6035 60.6666L79.334 60.6666C81.9062 60.6666 84 58.5734 84 56.0006L84 9.33264C84 6.76001 81.9062 4.66663 79.334 4.66663ZM39.334 2C39.334 1.63269 39.6328 1.33337 40 1.33337L44 1.33337C44.3672 1.33337 44.666 1.63269 44.666 2L44.666 4.66663L39.334 4.66663L39.334 2ZM13.5684 82.6666L9.02734 82.6666L18.8574 60.6666L23.3965 60.6666L20.5352 67.0734L18.4492 71.7394C18.4492 71.74 18.4492 71.7407 18.4492 71.7413L13.5684 82.6666ZM38 60.6666L38 66.6666L22.1777 66.6666L24.8574 60.6666L38 60.6666ZM44.666 60.6666L44.666 66.6666L39.334 66.6666L39.334 60.6666L44.666 60.6666ZM59.1426 60.6666L61.8223 66.6666L46 66.6666L46 60.6666L59.1426 60.6666ZM44.666 82.6666L39.334 82.6666L39.334 72.6666L44.666 72.6666L44.666 82.6666ZM20.0918 71.3334L21.582 68L62.418 68L63.9082 71.3334L20.0918 71.3334ZM74.9727 82.6666L70.4316 82.6666L65.5508 71.7413C65.5508 71.7407 65.5508 71.74 65.5508 71.7394L63.4648 67.074C63.4648 67.074 63.4648 67.0734 63.4648 67.0734L60.6035 60.6666L65.1426 60.6666L74.9727 82.6666ZM82.666 56.0006C82.666 57.8386 81.1719 59.3334 79.334 59.3334L65.5645 59.3334C65.5625 59.3334 65.5605 59.3334 65.5586 59.3334L59.5645 59.3334C59.5625 59.3334 59.5605 59.3334 59.5586 59.3334L24.4414 59.3334C24.4395 59.3334 24.4375 59.3334 24.4355 59.3334L18.4414 59.3334C18.4395 59.3334 18.4375 59.3334 18.4355 59.3334L4.66602 59.3334C2.82812 59.3334 1.33398 57.8386 1.33398 56.0006L1.33398 9.33264C1.33398 7.49536 2.82812 6 4.66602 6L79.334 6C81.1719 6 82.666 7.49536 82.666 9.33264L82.666 56.0006Z" fill="#669BB5" fill-opacity="1.000000" fill-rule="nonzero"/>
	<path id="Vector" d="M77.3301 8L6.66602 8C4.82812 8 3.33203 9.49536 3.33203 11.3334L3.33203 53.9987C3.33203 55.8373 4.82812 57.3334 6.66602 57.3334L77.3301 57.3334C79.1699 57.3334 80.666 55.8373 80.666 53.9987L80.666 11.3347C80.666 9.49597 79.1699 8 77.3301 8ZM9.33203 55.328L9.33203 48.672C9.33203 48.3014 9.63281 48 10.0039 48L19.3262 48C19.6973 48 19.998 48.3014 19.998 48.672L19.998 55.328C19.998 55.6986 19.6973 56 19.3262 56L10.0039 56C9.63281 56 9.33203 55.6986 9.33203 55.328ZM10.8828 46.6666L9.33594 41.2554C9.375 40.9247 9.6582 40.6666 9.99805 40.6666C10.1816 40.6666 10.457 40.6666 10.6914 41.5167L12.1621 46.6666L10.8828 46.6666ZM16.5977 46.6666L18.6367 39.5287C18.9004 38.6666 19.1914 38.6666 19.332 38.6666C19.5898 38.6666 19.8047 38.734 19.9082 38.8459C19.9785 38.9247 20.0117 39.0493 20.0039 39.218L17.877 46.6666L16.5977 46.6666ZM75.332 52L57.998 52L57.998 49.3334L75.332 49.3334L75.332 52ZM57.998 56L57.998 53.3334L75.332 53.3334L75.332 56L57.998 56ZM79.332 53.9987C79.332 55.1021 78.4336 56 77.3301 56L76.666 56L76.666 49.3334C76.666 48.598 76.0664 48 75.332 48L57.998 48C57.2637 48 56.666 48.598 56.666 49.3334L56.666 56L21.209 56C21.2832 55.7887 21.332 55.5647 21.332 55.328L21.332 48.672C21.332 47.5667 20.4316 46.6666 19.3262 46.6666L19.2637 46.6666L21.3066 39.5167C21.3184 39.476 21.3262 39.4347 21.3301 39.3927C21.3945 38.6641 21.127 38.2034 20.8906 37.946C20.5312 37.5507 19.9766 37.3334 19.332 37.3334C18.3906 37.3334 17.7285 37.9407 17.3574 39.15L15.2109 46.6666L13.5488 46.6666L11.9746 41.156C11.6406 39.9467 10.9766 39.3334 9.99805 39.3334C8.89648 39.3334 7.99805 40.2307 7.99805 41.3334C7.99805 41.3954 8.00781 41.4573 8.02344 41.5167L9.51562 46.734C8.64648 46.954 7.99805 47.736 7.99805 48.672L7.99805 55.328C7.99805 55.5647 8.04688 55.7887 8.12305 56L6.66602 56C5.5625 56 4.66602 55.1021 4.66602 53.9987L4.66602 11.3334C4.66602 10.2307 5.5625 9.33337 6.66602 9.33337L77.3301 9.33337C78.4336 9.33337 79.332 10.2313 79.332 11.3347L79.332 53.9987Z" fill="#669BB5" fill-opacity="1.000000" fill-rule="nonzero"/>
	<path id="Vector" d="M27.9297 19.0353C27.7031 18.5833 26.9648 18.5833 26.7383 19.0353L21.4043 29.7019C21.2402 30.0312 21.373 30.432 21.7031 30.5967C22.0312 30.762 22.4316 30.6279 22.5977 30.2986L24.4121 26.6666L30.2559 26.6666L32.0703 30.298C32.1875 30.532 32.4238 30.6666 32.668 30.6666C32.7676 30.6666 32.8691 30.6439 32.9648 30.5967C33.2949 30.432 33.4277 30.0312 33.2637 29.7019L27.9297 19.0353ZM25.0801 25.3333L27.334 20.824L29.5879 25.3333L25.0801 25.3333Z" fill="#669BB5" fill-opacity="1.000000" fill-rule="nonzero"/>
	<path id="Vector" d="M46.668 22.0001C46.668 20.1621 45.0625 18.6667 43.0918 18.6667L38 18.6667C37.6328 18.6667 37.334 18.9655 37.334 19.3334L37.334 24.6667L37.334 30.0001C37.334 30.368 37.6328 30.6667 38 30.6667L43.0918 30.6667C45.0625 30.6667 46.668 29.1714 46.668 27.3334C46.668 26.2394 46.0918 25.2748 45.2148 24.6667C46.0918 24.0587 46.668 23.0941 46.668 22.0001ZM45.334 27.3334C45.334 28.436 44.3281 29.3334 43.0918 29.3334L38.668 29.3334L38.668 25.3334L43.0918 25.3334C44.3281 25.3334 45.334 26.2307 45.334 27.3334ZM43.0918 24.0001L38.668 24.0001L38.668 20.0001L43.0918 20.0001C44.3281 20.0001 45.334 20.8975 45.334 22.0001C45.334 23.1028 44.3281 24.0001 43.0918 24.0001Z" fill="#669BB5" fill-opacity="1.000000" fill-rule="nonzero"/>
	<path id="Vector" d="M56 20.0001L58.668 20.0001C59.0352 20.0001 59.334 19.7014 59.334 19.3334C59.334 18.9655 59.0352 18.6667 58.668 18.6667L56 18.6667C53.4277 18.6667 51.334 20.7601 51.334 23.3334L51.334 26.0001C51.334 28.5734 53.4277 30.6667 56 30.6667L58.668 30.6667C59.0352 30.6667 59.334 30.368 59.334 30.0001C59.334 29.6321 59.0352 29.3334 58.668 29.3334L56 29.3334C54.1621 29.3334 52.668 27.8381 52.668 26.0001L52.668 23.3334C52.668 21.4954 54.1621 20.0001 56 20.0001Z" fill="#669BB5" fill-opacity="1.000000" fill-rule="nonzero"/>
</svg>
