<svg width="63.414062" height="94.286987" viewBox="0 0 63.4141 94.287" fill="none" xmlns="http://www.w3.org/2000/svg" xmlns:xlink="http://www.w3.org/1999/xlink">
	<desc>
			Created with Pixso.
	</desc>
	<defs/>
	<path id="Vector" d="M41.2266 8.51807C41.082 8.37329 40.8848 8.29199 40.6797 8.29199C40.4746 8.29199 40.2773 8.37329 40.1309 8.51807L8.52344 40.1655C8.37695 40.3108 8.29297 40.5084 8.29297 40.7147C8.29297 40.921 8.37305 41.1191 8.51953 41.2655C8.66406 41.4119 8.86133 41.4945 9.06836 41.4952C9.27344 41.496 9.47266 41.4148 9.61914 41.2694L41.2266 9.61414C41.373 9.46851 41.4531 9.27148 41.4531 9.06616C41.4531 8.86072 41.373 8.6637 41.2266 8.51807Z" fill="#669BB5" fill-opacity="1.000000" fill-rule="nonzero"/>
	<path id="Vector" d="M33.0566 5.54822C33.1836 5.38806 33.2441 5.18384 33.2227 4.9801C33.2012 4.77625 33.0996 4.58923 32.9395 4.45984C29.0469 1.33582 24.1387 -0.241577 19.1562 0.0300293C14.1719 0.301636 9.46484 2.4032 5.93555 5.93176C2.40625 9.46021 0.302734 14.1674 0.03125 19.1506C-0.242188 24.134 1.33398 29.0427 4.45703 32.9355C4.5293 33.0272 4.62109 33.1013 4.72656 33.1525C4.83008 33.2036 4.94531 33.2305 5.0625 33.231C5.24023 33.2317 5.41406 33.1714 5.55273 33.0599C5.63281 32.9958 5.69922 32.9165 5.74805 32.8267C5.79688 32.7367 5.82812 32.6381 5.83789 32.5361C5.84961 32.4343 5.83984 32.3313 5.81055 32.233C5.78125 32.1349 5.73438 32.0433 5.66992 31.9639C2.7832 28.3699 1.32617 23.8369 1.57812 19.2346C1.82812 14.6323 3.76953 10.2848 7.0293 7.02612C10.2891 3.76746 14.6387 1.82715 19.2402 1.57739C23.8418 1.32751 28.375 2.78589 31.9688 5.67261C32.1289 5.79968 32.334 5.85803 32.5371 5.83472C32.7422 5.8114 32.9277 5.70837 33.0566 5.54822Z" fill="#669BB5" fill-opacity="1.000000" fill-rule="nonzero"/>
	<path id="Vector" d="M25.9668 11.7595C26.1387 11.875 26.3477 11.9177 26.5508 11.8784C26.7539 11.839 26.9316 11.7208 27.0488 11.5497C27.1641 11.3785 27.207 11.1686 27.166 10.9659C27.127 10.7633 27.0098 10.5846 26.8379 10.4691C24.5684 8.96912 21.8496 8.30005 19.1426 8.57507C16.4375 8.85022 13.9082 10.0527 11.9863 11.9786C10.0664 13.9047 8.86914 16.4357 8.60156 19.1429C8.33203 21.8501 9.00781 24.567 10.5137 26.8331C10.584 26.9386 10.6797 27.0249 10.793 27.0846C10.9062 27.1443 11.0312 27.1753 11.1582 27.1752C11.3105 27.1769 11.4609 27.1306 11.5859 27.043C11.7559 26.929 11.875 26.7523 11.916 26.5514C11.957 26.3505 11.916 26.1416 11.8027 25.9702C10.498 24.0035 9.91211 21.6464 10.1445 19.2975C10.3789 16.9486 11.416 14.7524 13.082 13.0807C14.748 11.4088 16.9414 10.3641 19.2891 10.1234C21.6367 9.88269 23.9961 10.4607 25.9668 11.7595Z" fill="#669BB5" fill-opacity="1.000000" fill-rule="nonzero"/>
	<path id="Vector" d="M46.9492 78.9336L40.4023 57.5321C40.3535 57.3669 40.25 57.2229 40.1094 57.123C39.9688 57.0231 39.7988 56.9728 39.625 56.9802L31.8516 56.9802C31.6855 56.9813 31.5254 57.0355 31.3926 57.1349C31.2598 57.2341 31.1621 57.3734 31.1133 57.5321L24.5684 78.9336C24.5078 79.1305 24.5273 79.3435 24.623 79.5256C24.7188 79.7079 24.8848 79.8445 25.0801 79.9054C25.1562 79.9163 25.2324 79.9163 25.3066 79.9054C25.4785 79.9132 25.6465 79.8641 25.7871 79.7656C25.9277 79.6672 26.0332 79.525 26.084 79.3612L27.9883 73.1421L35.7617 67.6537L43.5352 73.1421L45.4414 79.3612C45.5059 79.5522 45.6426 79.7103 45.8242 79.8019C46.0039 79.8934 46.2129 79.9114 46.4062 79.8517C46.5977 79.7921 46.7598 79.6597 46.8574 79.4825C46.9551 79.3053 46.9785 79.0973 46.9258 78.9026L46.9492 78.9336ZM32.4355 58.535L39.0898 58.535L40.3184 62.5541L35.7617 65.7646L31.207 62.5541L32.4355 58.535ZM28.7031 70.7244L30.7246 64.1166L34.4102 66.7131L28.7031 70.7244ZM37.1543 66.7131L40.8301 64.1166L42.8516 70.7244L37.1543 66.7131Z" fill="#669BB5" fill-opacity="1.000000" fill-rule="nonzero"/>
	<path id="Vector" d="M35.7617 47.5426C36.4414 47.5426 37.1035 47.3413 37.668 46.9642C38.2324 46.5873 38.6719 46.0514 38.9297 45.4244C39.1895 44.7976 39.2578 44.1079 39.125 43.4426C38.9902 42.7773 38.6641 42.1665 38.1836 41.6874C37.7031 41.2083 37.0918 40.8823 36.4258 40.751C35.7617 40.6195 35.0703 40.6886 34.4453 40.9492C33.8184 41.21 33.2832 41.6505 32.9082 42.2153C32.5312 42.7802 32.332 43.4437 32.334 44.1221C32.3359 45.03 32.6973 45.9 33.3418 46.5413C33.9844 47.1825 34.8535 47.5426 35.7617 47.5426ZM35.7617 42.2485C36.1328 42.2485 36.4941 42.3585 36.8027 42.5643C37.1113 42.7701 37.3516 43.0627 37.4922 43.4052C37.6348 43.7474 37.6719 44.1241 37.5996 44.4875C37.5273 44.8511 37.3496 45.1848 37.0879 45.4469C36.8242 45.7089 36.4902 45.8873 36.127 45.9596C35.7637 46.0319 35.3867 45.9948 35.0449 45.853C34.7031 45.7112 34.4102 45.4711 34.2051 45.163C33.998 44.8549 33.8887 44.4927 33.8887 44.1221C33.8887 43.6252 34.0859 43.1487 34.4375 42.7974C34.7891 42.4459 35.2656 42.2485 35.7617 42.2485Z" fill="#669BB5" fill-opacity="1.000000" fill-rule="nonzero"/>
	<path id="Vector" d="M62.6348 84.7096L57.877 84.7096L42.166 41.8367C47.4082 36.4993 50.332 29.3088 50.3008 21.8281C50.2695 14.3474 47.2891 7.18103 42.0039 1.88672C41.8574 1.74194 41.6602 1.66064 41.4551 1.66064C41.25 1.66064 41.0527 1.74194 40.9062 1.88672L21.9473 20.8472L19.3809 18.2819C19.3086 18.209 19.2227 18.1511 19.1289 18.1117C19.0332 18.0721 18.9316 18.0519 18.8301 18.0519C18.7266 18.0519 18.625 18.0721 18.5312 18.1117C18.4355 18.1511 18.3496 18.209 18.2773 18.2819C18.1328 18.4275 18.0508 18.6245 18.0508 18.8298C18.0508 19.0353 18.1328 19.2323 18.2773 19.3779L20.8281 21.951L1.89062 40.9426C1.81641 41.0149 1.75977 41.101 1.7207 41.1957C1.67969 41.2904 1.66016 41.392 1.66016 41.4946C1.66016 41.5972 1.67969 41.6989 1.7207 41.7936C1.75977 41.8883 1.81641 41.9742 1.89062 42.0465C4.52148 44.6718 7.64453 46.7527 11.0801 48.1707C14.5176 49.5885 18.1992 50.3156 21.916 50.3102C23.4102 50.3097 24.9023 50.1926 26.377 49.9603L13.6445 84.6785L8.88672 84.6785C8.67969 84.6785 8.48242 84.7604 8.33594 84.9061C8.19141 85.052 8.10938 85.2496 8.10938 85.4558L8.10938 93.5096C8.10938 93.7158 8.19141 93.9135 8.33594 94.0593C8.48242 94.2051 8.67969 94.287 8.88672 94.287L62.6348 94.287C62.8418 94.287 63.0391 94.2051 63.1855 94.0593C63.3301 93.9135 63.4121 93.7158 63.4121 93.5096L63.4121 85.4869C63.4121 85.2808 63.3301 85.083 63.1855 84.9373C63.0391 84.7915 62.8418 84.7096 62.6348 84.7096ZM3.55469 41.448L41.4512 3.55029C46.1172 8.50684 48.7246 15.0511 48.7461 21.8582C48.7676 28.665 46.2012 35.2258 41.5684 40.2119L41.4902 39.9943C41.0605 38.8208 40.2793 37.8079 39.2559 37.0923C38.2305 36.3767 37.0098 35.9929 35.7617 35.9929C34.5117 35.9929 33.291 36.3767 32.2676 37.0923C31.2422 37.8079 30.4609 38.8208 30.0312 39.9943L27 48.2656C22.8301 49.0715 18.5273 48.8735 14.4492 47.6881C10.3711 46.5026 6.63477 44.3636 3.54688 41.448L3.55469 41.448ZM31.5391 40.5306C31.8574 39.6522 32.4395 38.8931 33.2051 38.3566C33.9688 37.8202 34.8809 37.5323 35.8145 37.5323C36.75 37.5323 37.6621 37.8202 38.4258 38.3566C39.1914 38.8931 39.7734 39.6522 40.0918 40.5306L56.2305 84.7096L15.293 84.7096L31.5391 40.5306ZM61.9043 92.7633L9.66406 92.7633L9.66406 86.2644L61.8574 86.2644L61.9043 92.7633Z" fill="#669BB5" fill-opacity="1.000000" fill-rule="nonzero"/>
	<path id="Vector" d="M39.2051 90.3844L49.5059 90.3844C49.7109 90.3844 49.9102 90.3025 50.0547 90.1566C50.2012 90.0109 50.2832 89.8131 50.2832 89.6069C50.2832 89.4008 50.2012 89.2031 50.0547 89.0573C49.9102 88.9115 49.7109 88.8296 49.5059 88.8296L39.2051 88.8296C38.998 88.8296 38.8008 88.9115 38.6562 89.0573C38.5098 89.2031 38.4277 89.4008 38.4277 89.6069C38.4277 89.8131 38.5098 90.0109 38.6562 90.1566C38.8008 90.3025 38.998 90.3844 39.2051 90.3844Z" fill="#669BB5" fill-opacity="1.000000" fill-rule="nonzero"/>
	<path id="Vector" d="M53.5879 90.3844L55.9199 90.3844C56.127 90.3844 56.3242 90.3025 56.4707 90.1566C56.6152 90.0109 56.6973 89.8131 56.6973 89.6069C56.6973 89.4008 56.6152 89.2031 56.4707 89.0573C56.3242 88.9115 56.127 88.8296 55.9199 88.8296L53.5879 88.8296C53.3809 88.8296 53.1836 88.9115 53.0391 89.0573C52.8926 89.2031 52.8105 89.4008 52.8105 89.6069C52.8105 89.8131 52.8926 90.0109 53.0391 90.1566C53.1836 90.3025 53.3809 90.3844 53.5879 90.3844Z" fill="#669BB5" fill-opacity="1.000000" fill-rule="nonzero"/>
</svg>
