<svg width="88.474609" height="72.042969" viewBox="0 0 88.4746 72.043" fill="none" xmlns="http://www.w3.org/2000/svg" xmlns:xlink="http://www.w3.org/1999/xlink">
	<desc>
			Created with Pixso.
	</desc>
	<defs/>
	<rect id="Rectangle 95" x="5.335938" y="5.337646" width="77.813522" height="45.714603" stroke="#669BB5" stroke-opacity="1.000000" stroke-width="2.000000"/>
	<path id="Vector" d="M46.4023 61.4802C46.4023 62.228 45.7949 62.8344 45.0469 62.8344C44.2988 62.8344 43.6934 62.228 43.6934 61.4802C43.6934 60.7323 44.2988 60.126 45.0469 60.126C45.7949 60.126 46.4023 60.7323 46.4023 61.4802Z" fill="#669BB5" fill-opacity="1.000000" fill-rule="evenodd"/>
	<path id="Subtract" d="M31.5977 69.9844L33.4043 69.9844L33.4043 65.9038L55.0703 65.9038L55.0703 69.9844L56.875 69.9844L56.875 65.9038L87.6621 65.9038C88.4746 65.9038 88.4746 64.7302 88.4746 63.9177L88.4746 1.08337C88.4746 0.270874 88.4746 0 87.6621 0L1.71484 0C0.902344 0 0 0.270874 0 1.08337L0 63.9177C0 64.7302 0.902344 65.9038 1.71484 65.9038L31.5977 65.9038L31.5977 69.9844ZM1.80469 1.80554L86.668 1.80554L86.668 57.7787L1.80469 57.7787L1.80469 1.80554ZM1.80469 64.0983L1.80469 59.5844L86.668 59.5844L86.668 64.0983L1.80469 64.0983Z" clip-rule="evenodd" fill="#669BB5" fill-opacity="1.000000" fill-rule="evenodd"/>
	<path id="Vector" d="M32.2266 19.1392L30.9629 17.8752L16.8789 31.7782L30.9629 45.8618L32.2266 44.5979L19.4062 31.7782L32.2266 19.1392Z" fill="#669BB5" fill-opacity="1.000000" fill-rule="nonzero"/>
	<path id="Vector" d="M59.0391 19.1392L71.8594 31.7782L59.0391 44.5979L60.3027 45.8618L74.3867 31.7782L60.3027 17.8752L59.0391 19.1392Z" fill="#669BB5" fill-opacity="1.000000" fill-rule="nonzero"/>
	<path id="Vector" d="M39.8594 45.2385L38.2148 44.4944L50.1562 18.0911L51.8027 18.8352L39.8594 45.2385Z" fill="#669BB5" fill-opacity="1.000000" fill-rule="evenodd"/>
	<path id="Vector" d="M28.4531 72.043L28.4531 69.9846L59.3281 69.9846L59.3281 72.043L28.4531 72.043Z" fill="#669BB5" fill-opacity="1.000000" fill-rule="evenodd"/>
</svg>
