<svg width="232.000000" height="62.000000" viewBox="0 0 232 62" fill="none" xmlns="http://www.w3.org/2000/svg" xmlns:xlink="http://www.w3.org/1999/xlink">
	<desc>
			Created with Pixso.
	</desc>
	<defs>
		<clipPath id="clip161_165">
			<rect id="Frame 11" width="229.670135" height="22.981125" transform="translate(0.636719 39.000977)" fill="white" fill-opacity="0"/>
		</clipPath>
		<clipPath id="clip161_124">
			<rect id="Logo" width="232.000000" height="62.000000" fill="white" fill-opacity="0"/>
		</clipPath>
	</defs>
	<g clip-path="url(#clip161_124)">
		<path id="Subtract" d="M15.5977 1.85254C7.33398 1.85254 0.636719 8.55078 0.636719 16.8125C0.636719 25.0752 7.33398 31.7734 15.5977 31.7734C23.1973 31.7734 29.4727 26.1064 30.4297 18.7686C30.5703 17.6943 29.6797 16.8125 28.5957 16.8125C27.5137 16.8125 26.6523 17.6973 26.4629 18.7637C25.541 23.9287 21.0273 27.8506 15.5977 27.8506C9.5 27.8506 4.55859 22.9092 4.55859 16.8125C4.55859 10.7168 9.5 5.77441 15.5977 5.77441C18 5.77441 20.2246 6.54297 22.0371 7.84668C22.4102 8.11523 22.8516 8.27539 23.3105 8.27539L24.127 8.26855C25.7051 8.25684 26.5586 6.50977 25.3613 5.47852C22.7402 3.21875 19.3281 1.85254 15.5977 1.85254Z" clip-rule="evenodd" fill="#FFFFFF" fill-opacity="1.000000" fill-rule="evenodd"/>
		<path id="Line 53" d="M14.6074 20.7715L14.5879 20.791C13.4902 20.791 12.627 19.9287 12.627 18.8301C12.627 17.7314 13.4902 16.8691 14.5879 16.8691L14.6074 16.8887L14.6074 20.7715ZM28.0723 16.8887L28.0918 16.8691C29.1895 16.8691 30.0527 17.7314 30.0527 18.8301C30.0527 19.9287 29.1895 20.791 28.0918 20.791L28.0723 20.7715L28.0723 16.8887Z" fill="#FFFFFF" fill-opacity="1.000000" fill-rule="nonzero"/>
		<path id="Line 53" d="M14.5879 18.8301L28.0918 18.8301" stroke="#FFFFFF" stroke-opacity="1.000000" stroke-width="3.922154" stroke-linecap="round"/>
		<path id="Line 58" d="M74.2285 5.25098L74.209 5.27051C73.1113 5.27246 72.2461 4.41211 72.2441 3.31348C72.2422 2.21582 73.1035 1.35059 74.2012 1.34863L74.2207 1.36816L74.2285 5.25098ZM101.268 1.3125L101.287 1.29199C102.385 1.29004 103.25 2.15137 103.252 3.24902C103.254 4.34766 102.393 5.21191 101.295 5.21484L101.275 5.19434L101.268 1.3125Z" fill="#FFFFFF" fill-opacity="1.000000" fill-rule="nonzero"/>
		<path id="Line 58" d="M74.2051 3.30957L101.291 3.25391" stroke="#FFFFFF" stroke-opacity="1.000000" stroke-width="3.922154" stroke-linecap="round"/>
		<path id="Line 57" d="M89.7051 30.2412L89.7246 30.2607C89.7246 31.3594 88.8613 32.2217 87.7637 32.2217C86.666 32.2217 85.8027 31.3594 85.8027 30.2607L85.8223 30.2412L89.7051 30.2412ZM85.8223 3.27344L85.8027 3.25391C85.8027 2.15527 86.666 1.29297 87.7637 1.29297C88.8613 1.29297 89.7246 2.15527 89.7246 3.25391L89.7051 3.27344L85.8223 3.27344Z" fill="#FFFFFF" fill-opacity="1.000000" fill-rule="nonzero"/>
		<path id="Line 57" d="M87.7637 30.2607L87.7637 3.25391" stroke="#FFFFFF" stroke-opacity="1.000000" stroke-width="3.922154" stroke-linecap="round"/>
		<path id="Line 59" d="M117.385 29.792L117.404 29.8115C117.404 30.9102 116.541 31.7725 115.443 31.7725C114.346 31.7725 113.482 30.9102 113.482 29.8115L113.502 29.792L117.385 29.792ZM113.502 2.82422L113.482 2.80469C113.482 1.70605 114.346 0.84375 115.443 0.84375C116.541 0.84375 117.404 1.70605 117.404 2.80469L117.385 2.82422L113.502 2.82422Z" fill="#FFFFFF" fill-opacity="1.000000" fill-rule="nonzero"/>
		<path id="Line 59" d="M115.443 29.8115L115.443 2.80469" stroke="#FFFFFF" stroke-opacity="1.000000" stroke-width="3.922154" stroke-linecap="round"/>
		<path id="Line 60" d="M144.391 29.792L144.41 29.8115C144.41 30.9102 143.547 31.7725 142.449 31.7725C141.352 31.7725 140.488 30.9102 140.488 29.8115L140.508 29.792L144.391 29.792ZM140.508 2.82422L140.488 2.80469C140.488 1.70605 141.352 0.84375 142.449 0.84375C143.547 0.84375 144.41 1.70605 144.41 2.80469L144.391 2.82422L140.508 2.82422Z" fill="#FFFFFF" fill-opacity="1.000000" fill-rule="nonzero"/>
		<path id="Line 60" d="M142.449 29.8115L142.449 2.80469" stroke="#FFFFFF" stroke-opacity="1.000000" stroke-width="3.922154" stroke-linecap="round"/>
		<path id="Line 61" d="M115.463 18.7539L115.443 18.7734C114.346 18.7734 113.482 17.9111 113.482 16.8125C113.482 15.7139 114.346 14.8516 115.443 14.8516L115.463 14.8711L115.463 18.7539ZM142.43 14.8711L142.449 14.8516C143.549 14.8516 144.412 15.7139 144.412 16.8125C144.412 17.9111 143.549 18.7734 142.449 18.7734L142.43 18.7539L142.43 14.8711Z" fill="#FFFFFF" fill-opacity="1.000000" fill-rule="nonzero"/>
		<path id="Line 61" d="M115.443 16.8125L142.449 16.8125" stroke="#FFFFFF" stroke-opacity="1.000000" stroke-width="3.922154" stroke-linecap="round"/>
		<path id="Line 62" d="M160.68 4.74609L160.66 4.76562C159.562 4.76562 158.699 3.90332 158.699 2.80469C158.699 1.70605 159.562 0.84375 160.66 0.84375L160.68 0.863281L160.68 4.74609ZM187.646 0.863281L187.666 0.84375C188.766 0.84375 189.629 1.70605 189.629 2.80469C189.629 3.90332 188.766 4.76562 187.666 4.76562L187.646 4.74609L187.646 0.863281Z" fill="#FFFFFF" fill-opacity="1.000000" fill-rule="nonzero"/>
		<path id="Line 62" d="M160.66 2.80469L187.666 2.80469" stroke="#FFFFFF" stroke-opacity="1.000000" stroke-width="3.922154" stroke-linecap="round"/>
		<path id="Line 63" d="M160.68 18.0811L160.66 18.1006C159.562 18.1006 158.699 17.2383 158.699 16.1396C158.699 15.041 159.562 14.1787 160.66 14.1787L160.68 14.1982L160.68 18.0811ZM187.646 14.1982L187.666 14.1787C188.766 14.1787 189.629 15.041 189.629 16.1396C189.629 17.2383 188.766 18.1006 187.666 18.1006L187.646 18.0811L187.646 14.1982Z" fill="#FFFFFF" fill-opacity="1.000000" fill-rule="nonzero"/>
		<path id="Line 63" d="M160.66 16.1396L187.666 16.1396" stroke="#FFFFFF" stroke-opacity="1.000000" stroke-width="3.922154" stroke-linecap="round"/>
		<path id="Line 64" d="M160.398 31.417L160.379 31.4365C159.281 31.4365 158.418 30.5742 158.418 29.4756C158.418 28.377 159.281 27.5146 160.379 27.5146L160.398 27.5342L160.398 31.417ZM187.365 27.5342L187.385 27.5146C188.484 27.5146 189.348 28.377 189.348 29.4756C189.348 30.5742 188.484 31.4365 187.385 31.4365L187.365 31.417L187.365 27.5342Z" fill="#FFFFFF" fill-opacity="1.000000" fill-rule="nonzero"/>
		<path id="Line 64" d="M160.379 29.4756L187.385 29.4756" stroke="#FFFFFF" stroke-opacity="1.000000" stroke-width="3.922154" stroke-linecap="round"/>
		<path id="Line 55" d="M68.457 29.2773L68.4844 29.2852C68.998 30.2559 68.6406 31.4219 67.6699 31.9365C66.7012 32.4512 65.5332 32.0928 65.0195 31.123L65.0273 31.0957L68.457 29.2773ZM50.7578 4.17969L50.7324 4.17188C50.2168 3.20117 50.5762 2.03516 51.5449 1.52051C52.5156 1.00586 53.6816 1.36426 54.1973 2.33496L54.1875 2.36133L50.7578 4.17969Z" fill="#FFFFFF" fill-opacity="1.000000" fill-rule="nonzero"/>
		<path id="Line 55" d="M66.752 30.2041L52.4648 3.25293" stroke="#FFFFFF" stroke-opacity="1.000000" stroke-width="3.922154" stroke-linecap="round"/>
		<path id="Line 56" d="M41.3945 31.0195L41.4043 31.0459C40.9316 32.0381 39.7832 32.4463 38.791 31.9756C37.7988 31.5039 37.3906 30.3545 37.8613 29.3623L37.8887 29.3525L41.3945 31.0195ZM50.6797 2.43848L50.6719 2.41113C51.1426 1.41992 52.293 1.01074 53.2832 1.48242C54.2754 1.95312 54.6855 3.10352 54.2129 4.09473L54.1875 4.10449L50.6797 2.43848Z" fill="#FFFFFF" fill-opacity="1.000000" fill-rule="nonzero"/>
		<path id="Line 56" d="M39.6328 30.2041L52.4414 3.25293" stroke="#FFFFFF" stroke-opacity="1.000000" stroke-width="3.922154" stroke-linecap="round"/>
		<path id="Line 65" d="M204.232 29.8057L204.252 29.8252C204.252 30.9238 203.389 31.7861 202.291 31.7861C201.193 31.7861 200.33 30.9238 200.33 29.8252L200.35 29.8057L204.232 29.8057ZM200.35 2.83789L200.33 2.81836C200.33 1.71973 201.193 0.857422 202.291 0.857422C203.389 0.857422 204.252 1.71973 204.252 2.81836L204.232 2.83789L200.35 2.83789Z" fill="#FFFFFF" fill-opacity="1.000000" fill-rule="nonzero"/>
		<path id="Line 65" d="M202.291 29.8252L202.291 2.81836" stroke="#FFFFFF" stroke-opacity="1.000000" stroke-width="3.922154" stroke-linecap="round"/>
		<path id="Line 66" d="M217.686 14.8281L217.658 14.8213C217.078 13.8887 217.357 12.7002 218.289 12.1211C219.223 11.542 220.412 11.8193 220.99 12.7529L220.984 12.7803L217.686 14.8281ZM230.902 28.7568L230.93 28.7637C231.508 29.6963 231.23 30.8848 230.297 31.4639C229.365 32.043 228.176 31.7656 227.598 30.832L227.604 30.8047L230.902 28.7568Z" fill="#FFFFFF" fill-opacity="1.000000" fill-rule="nonzero"/>
		<path id="Line 66" d="M219.324 13.7871L229.264 29.7979" stroke="#FFFFFF" stroke-opacity="1.000000" stroke-width="3.922154" stroke-linecap="round"/>
		<path id="Subtract" d="M201.844 14.2842C202.346 14.4072 202.871 14.4727 203.41 14.4727L223.504 14.4727C227.25 14.4727 230.287 11.4355 230.287 7.68945C230.287 3.94531 227.26 0.910156 223.518 0.907227C215.252 0.900391 202.324 0.893555 202.02 0.913086C201.961 0.916992 201.902 0.924805 201.844 0.935547L201.844 4.98047Q201.879 4.97363 201.914 4.96582Q202.143 4.91992 202.439 4.83496L216.154 4.82422L223.508 4.8291Q223.891 4.8291 224.246 4.92383Q224.438 4.97461 224.619 5.05176Q224.834 5.14258 225.029 5.26562Q225.299 5.43555 225.527 5.66602Q225.754 5.8916 225.922 6.15527L225.922 6.15527L225.922 6.15527Q226.049 6.35547 226.143 6.57715Q226.227 6.77539 226.279 6.98145L226.279 6.98145L226.279 6.98145L226.279 6.98145Q226.365 7.32422 226.365 7.68945Q226.365 8.05566 226.277 8.39941L226.277 8.40039L226.277 8.40039Q226.225 8.60449 226.143 8.80176Q226.049 9.02051 225.924 9.21875L225.924 9.21875Q225.756 9.48438 225.527 9.71191Q225.299 9.94043 225.033 10.1084L225.033 10.1084L225.033 10.1084Q224.836 10.2344 224.617 10.3271Q224.42 10.4102 224.215 10.4619Q223.871 10.5498 223.504 10.5498L203.41 10.5498Q203.068 10.5498 202.746 10.4678L202.746 10.4678Q202.559 10.4189 202.379 10.3438Q202.178 10.2578 201.996 10.1426L201.996 10.1426L201.996 10.1426L201.996 10.1426L201.996 10.1426L201.996 10.1426Q201.918 10.0938 201.844 10.0391L201.844 14.2842Z" clip-rule="evenodd" fill="#FFFFFF" fill-opacity="1.000000" fill-rule="evenodd"/>
		<g clip-path="url(#clip161_165)">
			<rect id="Rectangle 50" x="0.636719" y="40.429688" rx="0.367531" width="21.647577" height="2.450207" fill="#FFFFFF" fill-opacity="1.000000"/>
			<rect id="Rectangle 51" x="0.636719" y="60.717773" rx="0.367531" width="14.296956" height="2.450207" transform="rotate(-90 0.636719 60.717773)" fill="#FFFFFF" fill-opacity="1.000000"/>
			<rect id="Rectangle 54" x="49.861328" y="60.704102" rx="0.367531" width="12.900340" height="2.450207" transform="rotate(-90 49.861328 60.704102)" fill="#FFFFFF" fill-opacity="1.000000"/>
			<rect id="Rectangle 56" x="134.306641" y="60.717773" rx="0.367531" width="12.900340" height="2.450207" transform="rotate(-90 134.306641 60.717773)" fill="#FFFFFF" fill-opacity="1.000000"/>
			<rect id="Rectangle 55" x="109.804688" y="60.704102" rx="0.367531" width="20.275463" height="2.450208" transform="rotate(-90 109.804688 60.704102)" fill="#FFFFFF" fill-opacity="1.000000"/>
			<rect id="Rectangle 58" x="210.031250" y="40.429688" rx="0.367531" width="20.275463" height="2.450208" fill="#FFFFFF" fill-opacity="1.000000"/>
			<rect id="Rectangle 59" x="210.031250" y="49.017578" rx="0.367531" width="20.275463" height="2.450208" fill="#FFFFFF" fill-opacity="1.000000"/>
			<rect id="Rectangle 60" x="210.031250" y="58.267578" rx="0.367531" width="20.275463" height="2.450208" fill="#FFFFFF" fill-opacity="1.000000"/>
			<rect id="Rectangle 57" x="180.761719" y="60.386719" rx="0.367531" width="20.275463" height="2.450208" transform="rotate(-90 180.761719 60.386719)" fill="#FFFFFF" fill-opacity="1.000000"/>
			<rect id="Rectangle 53" x="26.160156" y="59.411133" rx="4.900414" width="17.690493" height="19.062611" transform="rotate(-90 26.160156 59.411133)" stroke="#FFFFFF" stroke-opacity="1.000000" stroke-width="2.584969"/>
			<rect id="Rectangle 52" x="0.636719" y="46.420898" rx="0.367531" width="21.647577" height="2.450207" fill="#FFFFFF" fill-opacity="1.000000"/>
			<path id="Subtract" d="M49.8594 48.8721L67.832 48.8721C69.8613 48.8721 71.5078 47.2266 71.5078 45.1963L71.5078 44.1064C71.5078 42.0762 69.8613 40.4307 67.832 40.4307L49.8594 40.4307L49.8594 43.0156L67.832 43.0156C68.4336 43.0156 68.9219 43.5039 68.9219 44.1064L68.9219 45.1963C68.9219 45.7988 68.4336 46.2871 67.832 46.2871L49.8594 46.2871L49.8594 48.8721Z" clip-rule="evenodd" fill="#FFFFFF" fill-opacity="1.000000" fill-rule="evenodd"/>
			<path id="Subtract" d="M134.307 48.8838L152.279 48.8838C154.309 48.8838 155.955 47.2383 155.955 45.208L155.955 44.1182C155.955 42.0879 154.309 40.4424 152.279 40.4424L134.307 40.4424L134.307 43.0273L152.279 43.0273C152.881 43.0273 153.369 43.5156 153.369 44.1182L153.369 45.208C153.369 45.8105 152.881 46.2988 152.279 46.2988L134.307 46.2988L134.307 48.8838Z" clip-rule="evenodd" fill="#FFFFFF" fill-opacity="1.000000" fill-rule="evenodd"/>
			<path id="Subtract" d="M61.0273 50.2432L68.4316 60.5557C68.5059 60.6484 68.6113 60.709 68.7305 60.709L71.0488 60.709C71.3516 60.709 71.5234 60.3672 71.3457 60.124L64.082 50.2432L61.0273 50.2432Z" clip-rule="evenodd" fill="#FFFFFF" fill-opacity="1.000000" fill-rule="evenodd"/>
			<path id="Subtract" d="M145.473 50.2549L152.877 60.5674C152.951 60.6592 153.057 60.7207 153.176 60.7207L155.494 60.7207C155.795 60.7207 155.969 60.3779 155.791 60.1357L148.527 50.2549L145.473 50.2549Z" clip-rule="evenodd" fill="#FFFFFF" fill-opacity="1.000000" fill-rule="evenodd"/>
			<path id="Subtract" d="M85.3789 40.4287C85.377 40.4854 85.375 40.543 85.375 40.6006L85.375 55.8164C85.375 58.5225 87.5684 60.7168 90.2754 60.7168L102.123 60.7168C104.828 60.7168 107.023 58.5225 107.023 55.8164L107.023 40.6006C107.023 40.543 107.021 40.4854 107.02 40.4287L104.432 40.4287C104.436 40.4854 104.438 40.543 104.438 40.6006L104.438 55.8164C104.438 57.0947 103.4 58.1318 102.123 58.1318L90.2754 58.1318C88.9961 58.1318 87.9609 57.0947 87.9609 55.8164L87.9609 40.6006C87.9609 40.543 87.9629 40.4854 87.9668 40.4287L85.3789 40.4287Z" clip-rule="evenodd" fill="#FFFFFF" fill-opacity="1.000000" fill-rule="evenodd"/>
			<path id="Subtract" d="M110.824 59.3789L128.17 40.5547C128.242 40.4766 128.344 40.4316 128.453 40.4316L131.105 40.4336C131.43 40.4336 131.6 40.7988 131.383 41.0303L112.924 60.707L111.822 60.707L110.855 59.8828C110.703 59.752 110.688 59.5264 110.824 59.3789Z" clip-rule="evenodd" fill="#FFFFFF" fill-opacity="1.000000" fill-rule="evenodd"/>
			<rect id="Rectangle 58" x="185.796875" y="60.631836" rx="0.367531" width="20.275463" height="2.450208" transform="rotate(-90 185.796875 60.631836)" fill="#FFFFFF" fill-opacity="1.000000"/>
			<rect id="Rectangle 59" x="204.994141" y="60.631836" rx="0.367531" width="20.275463" height="2.450208" transform="rotate(-90 204.994141 60.631836)" fill="#FFFFFF" fill-opacity="1.000000"/>
			<path id="Subtract" d="M188.35 40.502L207.027 59.1963C207.193 59.374 207.152 59.6504 206.932 59.7607L205.521 60.4678C205.373 60.543 205.186 60.5166 205.072 60.3965L186.152 41.333C185.957 41.125 186.057 40.7949 186.344 40.7363L187.998 40.3975C188.125 40.3721 188.262 40.4082 188.35 40.502Z" clip-rule="evenodd" fill="#FFFFFF" fill-opacity="1.000000" fill-rule="evenodd"/>
			<path id="Subtract" d="M122.377 52.3047L128.301 60.5547C128.375 60.6465 128.48 60.708 128.6 60.708L131.158 60.708C131.459 60.708 131.633 60.3652 131.455 60.123L124.297 50.3857L122.377 52.3047ZM121.16 49.4648L120.338 49.4648L120.682 49.9434L121.16 49.4648Z" clip-rule="evenodd" fill="#FFFFFF" fill-opacity="1.000000" fill-rule="evenodd"/>
			<path id="Rectangle 58" d="M157.529 60.0273L166.1 40.7695C166.158 40.6377 166.289 40.5518 166.436 40.5518L168.387 40.5518C168.65 40.5518 168.828 40.8193 168.727 41.0615L160.629 60.3193C160.57 60.4561 160.438 60.5449 160.289 60.5449L157.865 60.5449C157.6 60.5449 157.422 60.2705 157.529 60.0273Z" fill="#FFFFFF" fill-opacity="1.000000" fill-rule="nonzero"/>
			<path id="Rectangle 60" d="M178.938 60.0254L169.176 40.6318C169.113 40.5078 168.986 40.4297 168.848 40.4297L166.467 40.4297C166.191 40.4297 166.014 40.7236 166.143 40.9688L176.352 60.3613C176.422 60.4775 176.541 60.5576 176.676 60.5576L178.609 60.5576C178.883 60.5576 179.061 60.2695 178.938 60.0254Z" fill="#FFFFFF" fill-opacity="1.000000" fill-rule="nonzero"/>
			<path id="Subtract" d="M172.301 58.1816L158.857 58.1816C158.723 58.1816 158.6 58.2549 158.535 58.374L157.602 60.0889C157.469 60.334 157.646 60.6318 157.924 60.6318L173.621 60.6318L172.301 58.1816Z" clip-rule="evenodd" fill="#FFFFFF" fill-opacity="1.000000" fill-rule="evenodd"/>
		</g>
	</g>
</svg>
