<svg width="1130.000000" height="618.000000" viewBox="0 0 1130 618" fill="none" xmlns="http://www.w3.org/2000/svg" xmlns:xlink="http://www.w3.org/1999/xlink">
	<desc>
			Created with Pixso.
	</desc>
	<defs>
		<filter id="filter_103_1109_dd" x="0.000000" y="0.000000" width="1130.000000" height="618.000000" filterUnits="userSpaceOnUse" color-interpolation-filters="sRGB">
			<feFlood flood-opacity="0" result="BackgroundImageFix"/>
			<feColorMatrix in="SourceAlpha" type="matrix" values="0 0 0 0 0 0 0 0 0 0 0 0 0 0 0 0 0 0 127 0" result="hardAlpha"/>
			<feOffset dx="0" dy="8"/>
			<feGaussianBlur stdDeviation="8"/>
			<feComposite in2="hardAlpha" operator="out" k2="-1" k3="1"/>
			<feColorMatrix type="matrix" values="0 0 0 0 0.20392 0 0 0 0 0.21176 0 0 0 0 0.37255 0 0 0 0.15 0"/>
			<feBlend mode="normal" in2="BackgroundImageFix" result="effect_dropShadow_1"/>
			<feBlend mode="normal" in="SourceGraphic" in2="effect_dropShadow_1" result="shape"/>
		</filter>
		<filter id="filter_103_1160_dd" x="360.000000" y="459.000000" width="411.000000" height="109.000000" filterUnits="userSpaceOnUse" color-interpolation-filters="sRGB">
			<feFlood flood-opacity="0" result="BackgroundImageFix"/>
			<feColorMatrix in="SourceAlpha" type="matrix" values="0 0 0 0 0 0 0 0 0 0 0 0 0 0 0 0 0 0 127 0" result="hardAlpha"/>
			<feOffset dx="0" dy="8"/>
			<feGaussianBlur stdDeviation="8"/>
			<feComposite in2="hardAlpha" operator="out" k2="-1" k3="1"/>
			<feColorMatrix type="matrix" values="0 0 0 0 0.20392 0 0 0 0 0.21176 0 0 0 0 0.37255 0 0 0 0.25 0"/>
			<feBlend mode="normal" in2="BackgroundImageFix" result="effect_dropShadow_1"/>
			<feBlend mode="normal" in="SourceGraphic" in2="effect_dropShadow_1" result="shape"/>
		</filter>
	</defs>
	<g filter="url(#filter_103_1109_dd)">
		<rect id="Rectangle 33" x="24.000000" y="16.000000" width="1082.000000" height="570.000000" fill="#FFFFFF" fill-opacity="1.000000"/>
	</g>
	<path id="Monthly allowance" d="M708.436 85L708.436 70.4541L711.658 70.4541L715.979 80.9961L716.146 80.9961L720.467 70.4541L723.689 70.4541L723.689 85L721.16 85L721.16 75.0049L721.028 75.0049L717.005 84.9561L715.12 84.9561L711.097 74.9854L710.965 74.9854L710.965 85L708.436 85ZM763.555 76.123C762.178 76.123 761.197 77.0312 761.197 78.6084L761.197 85L758.629 85L758.629 70.4541L761.138 70.4541L761.138 75.9424L761.27 75.9424C761.773 74.707 762.838 73.9502 764.512 73.9502C766.778 73.9502 768.272 75.4199 768.272 78.0518L768.272 85L765.699 85L765.699 78.4521C765.699 76.9824 764.903 76.123 763.555 76.123ZM770.887 70.4541L773.456 70.4541L773.456 85L770.887 85L770.887 70.4541ZM804.076 70.4541L806.644 70.4541L806.644 85L804.076 85L804.076 70.4541ZM809.289 70.4541L811.858 70.4541L811.858 85L809.289 85L809.289 70.4541ZM754.093 74.0918L756.246 74.0918L756.246 76.0791L754.093 76.0791L754.093 81.7188C754.093 82.7539 754.615 82.9834 755.26 82.9834C755.577 82.9834 755.87 82.9199 756.012 82.8857L756.446 84.8926C756.168 84.9854 755.665 85.127 754.933 85.1514C752.999 85.2051 751.51 84.1992 751.525 82.1436L751.525 76.0791L749.977 76.0791L749.977 74.0918L751.525 74.0918L751.525 71.4795L754.093 71.4795L754.093 74.0918ZM736.434 79.5898C736.434 82.9639 734.402 85.2148 731.204 85.2148C728.011 85.2148 725.979 82.9639 725.979 79.5898C725.979 76.2061 728.011 73.9502 731.204 73.9502C734.402 73.9502 736.434 76.2061 736.434 79.5898ZM743.485 76.123C742.128 76.123 741.176 77.0312 741.176 78.6084L741.176 85L738.607 85L738.607 74.0918L741.063 74.0918L741.063 75.9424L741.19 75.9424C741.688 74.7314 742.811 73.9502 744.442 73.9502C746.693 73.9502 748.187 75.4395 748.178 78.0518L748.178 85L745.609 85L745.609 78.4521C745.609 76.9971 744.813 76.123 743.485 76.123ZM798.922 83.501C798.454 84.4189 797.433 85.2197 795.719 85.2197C793.639 85.2197 792.072 84.082 792.072 81.9385C792.072 79.4824 794.093 78.8477 796.213 78.623C798.136 78.418 798.913 78.3789 798.913 77.6416L798.913 77.5977C798.913 76.5283 798.258 75.918 797.062 75.918C795.807 75.918 795.085 76.5576 794.826 77.2998L792.428 76.958C792.995 74.9707 794.757 73.9502 797.047 73.9502C799.132 73.9502 801.481 74.8145 801.481 77.7002L801.481 85L799.01 85L799.01 83.501L798.922 83.501ZM824.488 79.5898C824.488 82.9639 822.456 85.2148 819.258 85.2148C816.065 85.2148 814.033 82.9639 814.033 79.5898C814.033 76.2061 816.065 73.9502 819.258 73.9502C822.456 73.9502 824.488 76.2061 824.488 79.5898ZM849.448 83.501C848.979 84.4189 847.959 85.2197 846.245 85.2197C844.165 85.2197 842.597 84.082 842.597 81.9385C842.597 79.4824 844.619 78.8477 846.738 78.623C848.662 78.418 849.438 78.3789 849.438 77.6416L849.438 77.5977C849.438 76.5283 848.784 75.918 847.588 75.918C846.333 75.918 845.61 76.5576 845.351 77.2998L842.954 76.958C843.52 74.9707 845.283 73.9502 847.573 73.9502C849.658 73.9502 852.007 74.8145 852.007 77.7002L852.007 85L849.536 85L849.536 83.501L849.448 83.501ZM859.48 76.123C858.122 76.123 857.17 77.0312 857.17 78.6084L857.17 85L854.602 85L854.602 74.0918L857.058 74.0918L857.058 75.9424L857.185 75.9424C857.683 74.7314 858.806 73.9502 860.437 73.9502C862.688 73.9502 864.182 75.4395 864.172 78.0518L864.172 85L861.604 85L861.604 78.4521C861.604 76.9971 860.808 76.123 859.48 76.123ZM876.225 81.2695C876.039 83.5889 874.296 85.2148 871.552 85.2148C868.29 85.2148 866.328 82.8906 866.328 79.5898C866.328 76.2549 868.344 73.9502 871.537 73.9502C874.203 73.9502 876.049 75.5029 876.225 77.8711L873.769 77.8711C873.569 76.8164 872.812 76.0205 871.572 76.0205C869.99 76.0205 868.93 77.3438 868.93 79.5459C868.93 81.7773 869.97 83.1201 871.572 83.1201C872.704 83.1201 873.549 82.4414 873.769 81.2695L876.225 81.2695ZM887.915 82.0752C887.461 83.9697 885.713 85.2148 883.174 85.2148C879.883 85.2148 877.876 83.0322 877.876 79.6094C877.876 76.2451 879.912 73.9502 883.037 73.9502C885.722 73.9502 888.022 75.6299 888.022 79.458L888.022 80.249L880.425 80.249C880.444 82.1143 881.548 83.208 883.208 83.208C884.316 83.208 885.166 82.7295 885.517 81.8018L887.915 82.0752ZM781.476 86.3232C780.856 88.0615 779.699 89.0918 777.697 89.0918C776.994 89.0918 776.369 88.9648 776.022 88.8232L776.618 86.8164C777.741 87.1436 778.493 87.0605 778.966 85.8154L779.186 85.2295L775.231 74.0918L777.961 74.0918L780.475 82.3291L780.588 82.3291L783.107 74.0918L785.841 74.0918L781.476 86.3232ZM831.295 85L828.614 85L825.528 74.0918L828.15 74.0918L830.069 81.7627L830.167 81.7627L832.13 74.0918L834.722 74.0918L836.68 81.7188L836.788 81.7188L838.677 74.0918L841.304 74.0918L838.214 85L835.538 85L833.492 77.627L833.341 77.627L831.295 85ZM883.071 75.9521C881.538 75.9521 880.508 77.124 880.43 78.5156L885.556 78.5156C885.542 77.0312 884.551 75.9521 883.071 75.9521ZM728.582 79.5801C728.582 81.5771 729.451 83.1543 731.219 83.1543C732.957 83.1543 733.826 81.5771 733.826 79.5801C733.826 77.583 732.957 75.9863 731.219 75.9863C729.451 75.9863 728.582 77.583 728.582 79.5801ZM816.636 79.5801C816.636 81.5771 817.505 83.1543 819.273 83.1543C821.011 83.1543 821.88 81.5771 821.88 79.5801C821.88 77.583 821.011 75.9863 819.273 75.9863C817.505 75.9863 816.636 77.583 816.636 79.5801ZM794.547 81.8945C794.547 82.8418 795.319 83.3301 796.388 83.3301C797.936 83.3301 798.918 82.2998 798.918 81.0889L798.918 79.7998C798.586 80.0732 797.233 80.2393 796.559 80.332C795.407 80.498 794.547 80.9082 794.547 81.8945ZM845.073 81.8945C845.073 82.8418 845.845 83.3301 846.914 83.3301C848.462 83.3301 849.443 82.2998 849.443 81.0889L849.443 79.7998C849.111 80.0732 847.759 80.2393 847.085 80.332C845.932 80.498 845.073 80.9082 845.073 81.8945Z" fill="#2B2B2B" fill-opacity="1.000000" fill-rule="evenodd"/>
	<path id="One-time assistance" d="M200.84 74.2285C200.84 75.3784 199.844 76.3159 198.613 76.3159C197.383 76.3159 196.379 75.3784 196.379 74.2285C196.379 73.064 197.383 72.1265 198.613 72.1265C199.844 72.1265 200.84 73.064 200.84 74.2285ZM310.996 74.2285C310.996 75.3784 310 76.3159 308.769 76.3159C307.539 76.3159 306.535 75.3784 306.535 74.2285C306.535 73.064 307.539 72.1265 308.769 72.1265C310 72.1265 310.996 73.064 310.996 74.2285ZM121.624 72.8809C127.344 72.8809 131.65 77.041 131.65 84.0942C131.65 91.1401 127.344 95.3003 121.624 95.3003C115.889 95.3003 111.597 91.1328 111.597 84.0942C111.597 77.041 115.889 72.8809 121.624 72.8809ZM190.217 78.6377L193.447 78.6377L193.447 81.6187L190.217 81.6187L190.217 90.0781C190.217 91.6309 191.001 91.9751 191.967 91.9751C192.443 91.9751 192.883 91.8799 193.095 91.8286L193.747 94.8389C193.33 94.978 192.575 95.1904 191.477 95.2271C188.576 95.3076 186.342 93.7988 186.364 90.7153L186.364 81.6187L184.043 81.6187L184.043 78.6377L186.364 78.6377L186.364 74.7192L190.217 74.7192L190.217 78.6377ZM336.062 78.6377L339.292 78.6377L339.292 81.6187L336.062 81.6187L336.062 90.0781C336.062 91.6309 336.846 91.9751 337.812 91.9751C338.289 91.9751 338.728 91.8799 338.94 91.8286L339.592 94.8389C339.175 94.978 338.42 95.1904 337.322 95.2271C334.421 95.3076 332.188 93.7988 332.209 90.7153L332.209 81.6187L329.888 81.6187L329.888 78.6377L332.209 78.6377L332.209 74.7192L336.062 74.7192L336.062 78.6377ZM121.624 91.748C125.183 91.748 127.673 89.0527 127.673 84.0942C127.673 79.1284 125.183 76.4331 121.624 76.4331C118.079 76.4331 115.574 79.1284 115.574 84.0942C115.574 89.0527 118.079 91.748 121.624 91.748ZM142.548 81.6846C140.511 81.6846 139.083 83.0469 139.083 85.4126L139.083 95L135.231 95L135.231 78.6377L138.915 78.6377L138.915 81.4136L139.105 81.4136C139.852 79.5972 141.537 78.4253 143.983 78.4253C147.36 78.4253 149.601 80.6592 149.586 84.5776L149.586 95L145.734 95L145.734 85.1782C145.734 82.9956 144.54 81.6846 142.548 81.6846ZM167.878 90.6128C167.197 93.4546 164.575 95.3223 160.766 95.3223C155.83 95.3223 152.819 92.0483 152.819 86.9141C152.819 81.8677 155.874 78.4253 160.561 78.4253C164.589 78.4253 168.039 80.9448 168.039 86.687L168.039 87.8735L156.643 87.8735C156.672 90.6714 158.327 92.312 160.817 92.312C162.48 92.312 163.754 91.5942 164.282 90.2026L167.878 90.6128ZM208.352 95L204.499 95L204.499 78.6377L208.183 78.6377L208.183 81.4136L208.374 81.4136C209.055 79.5532 210.695 78.4253 212.893 78.4253C215.097 78.4253 216.687 79.5605 217.309 81.4136L217.485 81.4136C218.21 79.5972 220.019 78.4253 222.392 78.4253C225.395 78.4253 227.504 80.3589 227.504 84.0137L227.504 95L223.637 95L223.637 84.6143C223.637 82.5854 222.407 81.6699 220.847 81.6699C218.986 81.6699 217.888 82.9517 217.888 84.7974L217.888 95L214.108 95L214.108 84.4531C214.108 82.7686 212.988 81.6699 211.355 81.6699C209.692 81.6699 208.352 83.0396 208.352 85.0464L208.352 95ZM245.786 90.6128C245.105 93.4546 242.483 95.3223 238.675 95.3223C233.738 95.3223 230.728 92.0483 230.728 86.9141C230.728 81.8677 233.782 78.4253 238.469 78.4253C242.498 78.4253 245.947 80.9448 245.947 86.687L245.947 87.8735L234.551 87.8735C234.58 90.6714 236.236 92.312 238.726 92.312C240.388 92.312 241.663 91.5942 242.19 90.2026L245.786 90.6128ZM266.165 92.7515C265.462 94.1284 263.931 95.3296 261.36 95.3296C258.24 95.3296 255.889 93.623 255.889 90.4077C255.889 86.7236 258.921 85.7715 262.1 85.4346C264.986 85.127 266.15 85.0684 266.15 83.9624L266.15 83.8965C266.15 82.2925 265.169 81.377 263.374 81.377C261.492 81.377 260.408 82.3364 260.02 83.4497L256.424 82.937C257.273 79.9561 259.917 78.4253 263.352 78.4253C266.48 78.4253 270.003 79.7217 270.003 84.0503L270.003 95L266.297 95L266.297 92.7515L266.165 92.7515ZM280.238 78.4253C284.076 78.4253 286.295 80.1904 286.823 82.959L283.307 83.3472C283.014 82.2705 282.077 81.2964 280.297 81.2964C278.685 81.2964 277.462 82.0654 277.47 83.1714C277.462 84.1235 278.121 84.6948 279.784 85.0684L282.575 85.6689C285.665 86.3354 287.167 87.7637 287.174 90.1001C287.167 93.1982 284.281 95.3223 280.187 95.3223C276.173 95.3223 273.646 93.5425 273.17 90.5396L276.928 90.1733C277.257 91.6455 278.407 92.4146 280.18 92.4146C282.011 92.4146 283.226 91.5723 283.226 90.4517C283.226 89.5215 282.523 88.9136 281.022 88.584L278.231 87.998C275.082 87.3535 273.617 85.7715 273.624 83.3911C273.617 80.3589 276.298 78.4253 280.238 78.4253ZM296.708 78.4253C300.546 78.4253 302.765 80.1904 303.293 82.959L299.777 83.3472C299.484 82.2705 298.547 81.2964 296.767 81.2964C295.156 81.2964 293.932 82.0654 293.94 83.1714C293.932 84.1235 294.592 84.6948 296.254 85.0684L299.045 85.6689C302.136 86.3354 303.637 87.7637 303.644 90.1001C303.637 93.1982 300.751 95.3223 296.657 95.3223C292.643 95.3223 290.117 93.5425 289.64 90.5396L293.398 90.1733C293.727 91.6455 294.877 92.4146 296.65 92.4146C298.481 92.4146 299.697 91.5723 299.697 90.4517C299.697 89.5215 298.993 88.9136 297.492 88.584L294.701 87.998C291.552 87.3535 290.087 85.7715 290.095 83.3911C290.087 80.3589 292.768 78.4253 296.708 78.4253ZM320.998 78.4253C324.836 78.4253 327.055 80.1904 327.583 82.959L324.067 83.3472C323.774 82.2705 322.836 81.2964 321.057 81.2964C319.445 81.2964 318.222 82.0654 318.23 83.1714C318.222 84.1235 318.881 84.6948 320.544 85.0684L323.335 85.6689C326.425 86.3354 327.927 87.7637 327.934 90.1001C327.927 93.1982 325.041 95.3223 320.947 95.3223C316.933 95.3223 314.406 93.5425 313.93 90.5396L317.688 90.1733C318.017 91.6455 319.167 92.4146 320.939 92.4146C322.771 92.4146 323.986 91.5723 323.986 90.4517C323.986 89.5215 323.283 88.9136 321.782 88.584L318.991 87.998C315.842 87.3535 314.377 85.7715 314.384 83.3911C314.377 80.3589 317.058 78.4253 320.998 78.4253ZM352.031 92.7515C351.328 94.1284 349.798 95.3296 347.227 95.3296C344.107 95.3296 341.756 93.623 341.756 90.4077C341.756 86.7236 344.788 85.7715 347.967 85.4346C350.852 85.127 352.017 85.0684 352.017 83.9624L352.017 83.8965C352.017 82.2925 351.035 81.377 349.241 81.377C347.359 81.377 346.275 82.3364 345.886 83.4497L342.29 82.937C343.14 79.9561 345.784 78.4253 349.219 78.4253C352.346 78.4253 355.869 79.7217 355.869 84.0503L355.869 95L352.163 95L352.163 92.7515L352.031 92.7515ZM367.079 81.6846C365.043 81.6846 363.614 83.0469 363.614 85.4126L363.614 95L359.762 95L359.762 78.6377L363.446 78.6377L363.446 81.4136L363.636 81.4136C364.383 79.5972 366.068 78.4253 368.514 78.4253C371.891 78.4253 374.132 80.6592 374.117 84.5776L374.117 95L370.265 95L370.265 85.1782C370.265 82.9956 369.071 81.6846 367.079 81.6846ZM392.197 89.4043C391.918 92.8833 389.304 95.3223 385.188 95.3223C380.295 95.3223 377.351 91.8359 377.351 86.8848C377.351 81.8823 380.376 78.4253 385.166 78.4253C389.165 78.4253 391.933 80.7544 392.197 84.3066L388.513 84.3066C388.212 82.7246 387.077 81.5308 385.217 81.5308C382.844 81.5308 381.254 83.5156 381.254 86.8188C381.254 90.166 382.814 92.1802 385.217 92.1802C386.916 92.1802 388.183 91.1621 388.513 89.4043L392.197 89.4043ZM409.732 90.6128C409.051 93.4546 406.428 95.3223 402.62 95.3223C397.683 95.3223 394.673 92.0483 394.673 86.9141C394.673 81.8677 397.727 78.4253 402.415 78.4253C406.443 78.4253 409.893 80.9448 409.893 86.687L409.893 87.8735L398.496 87.8735C398.526 90.6714 400.181 92.312 402.671 92.312C404.334 92.312 405.608 91.5942 406.135 90.2026L409.732 90.6128ZM200.532 95L196.679 95L196.679 78.6377L200.532 78.6377L200.532 95ZM310.688 95L306.836 95L306.836 78.6377L310.688 78.6377L310.688 95ZM160.612 81.4282C158.313 81.4282 156.767 83.186 156.65 85.2734L164.34 85.2734C164.318 83.0469 162.832 81.4282 160.612 81.4282ZM238.521 81.4282C236.221 81.4282 234.676 83.186 234.558 85.2734L242.249 85.2734C242.227 83.0469 240.74 81.4282 238.521 81.4282ZM402.466 81.4282C400.166 81.4282 398.621 83.186 398.504 85.2734L406.194 85.2734C406.172 83.0469 404.685 81.4282 402.466 81.4282ZM171.398 84.3286L181.22 84.3286L181.22 87.5L171.398 87.5L171.398 84.3286ZM259.602 90.3418C259.602 91.7627 260.76 92.4951 262.364 92.4951C264.685 92.4951 266.158 90.9497 266.158 89.1333L266.158 87.1997C265.66 87.6099 263.631 87.8589 262.62 87.998C260.892 88.2471 259.602 88.8623 259.602 90.3418ZM345.469 90.3418C345.469 91.7627 346.626 92.4951 348.23 92.4951C350.552 92.4951 352.024 90.9497 352.024 89.1333L352.024 87.1997C351.526 87.6099 349.497 87.8589 348.487 87.998C346.758 88.2471 345.469 88.8623 345.469 90.3418Z" fill="#2B2B2B" fill-opacity="1.000000" fill-rule="evenodd"/>
	<line id="Line 1" x1="24.000000" y1="126.000000" x2="551.000000" y2="126.000000" stroke="#FAC151" stroke-opacity="1.000000" stroke-width="2.000000"/>
	<line id="Line 2" x1="583.000000" y1="126.000000" x2="1103.000000" y2="126.000000" stroke="#E8E8E8" stroke-opacity="1.000000" stroke-width="2.000000"/>
	<rect id="Rectangle 12" x="65.000000" y="167.000000" width="210.000000" height="68.000000" fill="#669BB5" fill-opacity="1.000000"/>
	<rect id="Rectangle 13" x="328.000000" y="167.000000" width="210.000000" height="68.000000" fill="#F0F0F0" fill-opacity="1.000000"/>
	<rect id="Rectangle 14" x="591.000000" y="167.000000" width="210.000000" height="68.000000" fill="#F0F0F0" fill-opacity="1.000000"/>
	<rect id="Rectangle 15" x="854.000000" y="167.000000" width="210.000000" height="68.000000" fill="#F0F0F0" fill-opacity="1.000000"/>
	<path id="$20" d="M148.293 216.088L146.31 216.088L146.31 213.324C140.889 213.025 137.469 210.286 137.353 205.239L142.408 205.239C142.558 207.414 144.093 208.65 146.31 208.916L146.31 202.558L144.741 202.159C140.565 201.155 137.992 199.063 138 195.419C137.984 191.227 141.445 188.347 146.31 187.973L146.31 185.184L148.293 185.184L148.293 187.957C153.274 188.289 156.503 191.227 156.578 195.386L151.564 195.386C151.398 193.709 150.219 192.622 148.293 192.364L148.293 198.382L149.497 198.665C153.797 199.636 156.901 201.819 156.91 205.936C156.901 210.211 153.739 213.025 148.293 213.324L148.293 216.088ZM177.896 213L160.265 213L160.265 209.231L169.072 201.08C171.313 198.922 172.525 197.569 172.525 195.602C172.525 193.427 170.906 192.074 168.731 192.074C166.474 192.074 164.98 193.526 164.988 195.892L160.024 195.892C160.016 191.036 163.577 187.932 168.765 187.932C174.069 187.932 177.572 190.961 177.572 195.253C177.572 198.067 176.202 200.383 171.122 205.023L167.511 208.559L167.511 208.725L177.896 208.725L177.896 213ZM201.365 200.657C201.357 208.808 197.605 213.54 191.379 213.54C185.153 213.531 181.377 208.783 181.401 200.657C181.41 192.555 185.178 187.932 191.379 187.932C197.58 187.932 201.381 192.572 201.365 200.657ZM186.722 200.657C186.714 206.359 188.548 209.207 191.379 209.207C194.21 209.207 196.044 206.359 196.027 200.657C196.027 195.045 194.193 192.223 191.379 192.223C188.557 192.223 186.731 195.045 186.722 200.657ZM143.363 195.07C143.33 196.564 144.625 197.378 146.31 197.884L146.31 192.381C144.4 192.646 143.363 193.709 143.363 195.07ZM148.293 203.064L148.293 208.891C150.344 208.617 151.622 207.48 151.639 205.928C151.622 204.442 150.443 203.67 148.293 203.064Z" fill="#FFFFFF" fill-opacity="1.000000" fill-rule="evenodd"/>
	<path id="$50" d="M411.293 216.088L409.31 216.088L409.31 213.324C403.889 213.025 400.469 210.286 400.353 205.239L405.408 205.239C405.558 207.414 407.093 208.65 409.31 208.916L409.31 202.558L407.741 202.159C403.565 201.155 400.992 199.063 401 195.419C400.984 191.227 404.445 188.347 409.31 187.973L409.31 185.184L411.293 185.184L411.293 187.957C416.274 188.289 419.503 191.227 419.578 195.386L414.564 195.386C414.398 193.709 413.219 192.622 411.293 192.364L411.293 198.382L412.497 198.665C416.797 199.636 419.901 201.819 419.91 205.936C419.901 210.211 416.739 213.025 411.293 213.324L411.293 216.088ZM464.86 200.657C464.852 208.808 461.1 213.54 454.874 213.54C448.648 213.531 444.872 208.783 444.897 200.657C444.905 192.555 448.673 187.932 454.874 187.932C461.075 187.932 464.877 192.572 464.86 200.657ZM441.535 204.757C441.551 209.754 437.808 213.34 432.296 213.34C427.183 213.34 423.447 210.286 423.356 206.011L428.428 206.011C428.544 207.928 430.221 209.231 432.296 209.231C434.753 209.231 436.504 207.455 436.504 204.89C436.504 202.292 434.711 200.491 432.23 200.482C430.769 200.482 429.291 201.122 428.536 202.143L423.887 201.312L425.058 188.272L440.173 188.272L440.173 192.547L429.366 192.547L428.727 198.739L428.868 198.739C429.739 197.519 431.615 196.614 433.782 196.614C438.239 196.614 441.551 200.018 441.535 204.757ZM450.217 200.657C450.209 206.359 452.044 209.207 454.874 209.207C457.705 209.207 459.539 206.359 459.523 200.657C459.523 195.045 457.688 192.223 454.874 192.223C452.052 192.223 450.226 195.045 450.217 200.657ZM406.363 195.07C406.33 196.564 407.625 197.378 409.31 197.884L409.31 192.381C407.4 192.646 406.363 193.709 406.363 195.07ZM411.293 203.064L411.293 208.891C413.344 208.617 414.622 207.48 414.639 205.928C414.622 204.442 413.443 203.67 411.293 203.064Z" fill="#6F6E6E" fill-opacity="1.000000" fill-rule="evenodd"/>
	<path id="$100" d="M665.293 216.088L663.31 216.088L663.31 213.324C657.889 213.025 654.469 210.286 654.353 205.239L659.408 205.239C659.558 207.414 661.093 208.65 663.31 208.916L663.31 202.558L661.741 202.159C657.565 201.155 654.992 199.063 655 195.419C654.984 191.227 658.445 188.347 663.31 187.973L663.31 185.184L665.293 185.184L665.293 187.957C670.274 188.289 673.503 191.227 673.578 195.386L668.564 195.386C668.398 193.709 667.219 192.622 665.293 192.364L665.293 198.382L666.497 198.665C670.797 199.636 673.901 201.819 673.91 205.936C673.901 210.211 670.739 213.025 665.293 213.324L665.293 216.088ZM713.584 200.657C713.575 208.808 709.823 213.54 703.598 213.54C697.372 213.531 693.595 208.783 693.62 200.657C693.629 192.555 697.397 187.932 703.598 187.932C709.798 187.932 713.6 192.572 713.584 200.657ZM736.983 200.657C736.974 208.808 733.223 213.54 726.997 213.54C720.771 213.531 716.995 208.783 717.019 200.657C717.028 192.555 720.796 187.932 726.997 187.932C733.198 187.932 736.999 192.572 736.983 200.657ZM683.108 188.272L688.023 188.272L688.023 213L682.801 213L682.801 193.236L682.652 193.236L676.991 196.789L676.991 192.148L683.108 188.272ZM698.941 200.657C698.933 206.359 700.767 209.207 703.598 209.207C706.428 209.207 708.263 206.359 708.246 200.657C708.246 195.045 706.412 192.223 703.598 192.223C700.776 192.223 698.949 195.045 698.941 200.657ZM722.34 200.657C722.332 206.359 724.166 209.207 726.997 209.207C729.828 209.207 731.662 206.359 731.645 200.657C731.645 195.045 729.811 192.223 726.997 192.223C724.175 192.223 722.349 195.045 722.34 200.657ZM660.363 195.07C660.33 196.564 661.625 197.378 663.31 197.884L663.31 192.381C661.4 192.646 660.363 193.709 660.363 195.07ZM665.293 203.064L665.293 208.891C667.344 208.617 668.622 207.48 668.639 205.928C668.622 204.442 667.443 203.67 665.293 203.064Z" fill="#6F6E6E" fill-opacity="1.000000" fill-rule="evenodd"/>
	<path id="Another amount" d="M883.952 203.052L882.631 207L879.537 207L885.171 191L888.749 191L894.388 207L891.294 207L889.968 203.052L883.952 203.052ZM937.195 197.235C935.681 197.235 934.601 198.234 934.601 199.969L934.601 207L931.776 207L931.776 191L934.537 191L934.537 197.037L934.682 197.037C935.235 195.678 936.406 194.845 938.248 194.845C940.74 194.845 942.384 196.462 942.384 199.357L942.384 207L939.553 207L939.553 199.797C939.553 198.181 938.678 197.235 937.195 197.235ZM926.787 195.001L929.155 195.001L929.155 197.187L926.787 197.187L926.787 203.391C926.787 204.529 927.361 204.782 928.07 204.782C928.419 204.782 928.742 204.712 928.897 204.674L929.375 206.882C929.069 206.984 928.516 207.14 927.71 207.167C925.583 207.226 923.945 206.119 923.961 203.858L923.961 197.187L922.259 197.187L922.259 195.001L923.961 195.001L923.961 192.127L926.787 192.127L926.787 195.001ZM1048.67 195.001L1051.04 195.001L1051.04 197.187L1048.67 197.187L1048.67 203.391C1048.67 204.529 1049.24 204.782 1049.95 204.782C1050.3 204.782 1050.62 204.712 1050.78 204.674L1051.26 206.882C1050.95 206.984 1050.4 207.14 1049.59 207.167C1047.47 207.226 1045.83 206.119 1045.84 203.858L1045.84 197.187L1044.14 197.187L1044.14 195.001L1045.84 195.001L1045.84 192.127L1048.67 192.127L1048.67 195.001ZM886.901 194.281L884.736 200.727L889.189 200.727L887.024 194.281L886.901 194.281ZM961.125 207L958.299 207L958.299 195.001L961.039 195.001L961.039 196.999L961.162 196.999C961.603 195.608 962.752 194.829 964.127 194.829C964.438 194.829 964.884 194.861 965.142 194.904L965.142 197.509C964.9 197.429 964.304 197.343 963.826 197.343C962.274 197.343 961.125 198.422 961.125 199.948L961.125 207ZM901.743 197.235C900.25 197.235 899.203 198.234 899.203 199.969L899.203 207L896.377 207L896.377 195.001L899.079 195.001L899.079 197.037L899.219 197.037C899.767 195.705 901.002 194.845 902.796 194.845C905.272 194.845 906.916 196.483 906.905 199.357L906.905 207L904.08 207L904.08 199.797C904.08 198.197 903.204 197.235 901.743 197.235ZM920.775 201.049C920.775 204.76 918.541 207.236 915.023 207.236C911.51 207.236 909.276 204.76 909.276 201.049C909.276 197.327 911.51 194.845 915.023 194.845C918.541 194.845 920.775 197.327 920.775 201.049ZM955.788 203.783C955.288 205.867 953.365 207.236 950.572 207.236C946.952 207.236 944.745 204.835 944.745 201.07C944.745 197.37 946.984 194.845 950.422 194.845C953.376 194.845 955.906 196.693 955.906 200.904L955.906 201.774L947.548 201.774C947.57 203.826 948.784 205.029 950.61 205.029C951.829 205.029 952.764 204.502 953.15 203.482L955.788 203.783ZM979.458 205.351C978.943 206.361 977.82 207.242 975.935 207.242C973.647 207.242 971.923 205.99 971.923 203.632C971.923 200.931 974.146 200.232 976.478 199.985C978.594 199.76 979.448 199.717 979.448 198.906L979.448 198.857C979.448 197.681 978.728 197.01 977.412 197.01C976.032 197.01 975.237 197.713 974.952 198.53L972.315 198.154C972.938 195.968 974.877 194.845 977.396 194.845C979.689 194.845 982.273 195.796 982.273 198.97L982.273 207L979.555 207L979.555 205.351L979.458 205.351ZM987.953 207L985.127 207L985.127 195.001L987.829 195.001L987.829 197.037L987.969 197.037C988.468 195.672 989.671 194.845 991.283 194.845C992.899 194.845 994.065 195.678 994.521 197.037L994.65 197.037C995.182 195.705 996.509 194.845 998.249 194.845C1000.45 194.845 1002 196.263 1002 198.943L1002 207L999.162 207L999.162 199.384C999.162 197.896 998.26 197.225 997.116 197.225C995.751 197.225 994.946 198.165 994.946 199.518L994.946 207L992.174 207L992.174 199.266C992.174 198.03 991.353 197.225 990.155 197.225C988.936 197.225 987.953 198.229 987.953 199.701L987.953 207ZM1015.86 201.049C1015.86 204.76 1013.63 207.236 1010.11 207.236C1006.6 207.236 1004.36 204.76 1004.36 201.049C1004.36 197.327 1006.6 194.845 1010.11 194.845C1013.63 194.845 1015.86 197.327 1015.86 201.049ZM1037 197.235C1035.51 197.235 1034.46 198.234 1034.46 199.969L1034.46 207L1031.64 207L1031.64 195.001L1034.34 195.001L1034.34 197.037L1034.48 197.037C1035.02 195.705 1036.26 194.845 1038.05 194.845C1040.53 194.845 1042.17 196.483 1042.16 199.357L1042.16 207L1039.34 207L1039.34 199.797C1039.34 198.197 1038.46 197.235 1037 197.235ZM1023.34 204.685C1024.6 204.685 1025.9 203.783 1025.9 201.951L1025.9 195.001L1028.73 195.001L1028.73 207L1025.99 207L1025.99 204.868L1025.86 204.868C1025.31 206.21 1024.05 207.156 1022.25 207.156C1019.89 207.156 1018.25 205.523 1018.25 202.639L1018.25 195.001L1021.08 195.001L1021.08 202.204C1021.08 203.729 1021.99 204.685 1023.34 204.685ZM950.459 197.047C948.773 197.047 947.64 198.336 947.554 199.867L953.193 199.867C953.177 198.234 952.087 197.047 950.459 197.047ZM912.139 201.038C912.139 203.235 913.095 204.97 915.039 204.97C916.951 204.97 917.907 203.235 917.907 201.038C917.907 198.841 916.951 197.085 915.039 197.085C913.095 197.085 912.139 198.841 912.139 201.038ZM1007.22 201.038C1007.22 203.235 1008.18 204.97 1010.12 204.97C1012.04 204.97 1012.99 203.235 1012.99 201.038C1012.99 198.841 1012.04 197.085 1010.12 197.085C1008.18 197.085 1007.22 198.841 1007.22 201.038ZM974.646 203.584C974.646 204.626 975.495 205.163 976.671 205.163C978.374 205.163 979.453 204.03 979.453 202.698L979.453 201.28C979.088 201.581 977.6 201.763 976.859 201.865C975.591 202.048 974.646 202.499 974.646 203.584Z" fill="#6F6E6E" fill-opacity="1.000000" fill-rule="evenodd"/>
	<g filter="url(#filter_103_1160_dd)">
		<rect id="Frame 5" width="363.000000" height="61.000000" transform="translate(384.000000 475.000000)" fill="#669BB5" fill-opacity="1.000000"/>
		<path id="donate" d="M532.017 492.932C538.574 492.932 543.596 497.547 543.596 505.64C543.596 513.725 538.574 518.34 532.017 518.34C525.426 518.34 520.446 513.692 520.446 505.64C520.446 497.547 525.426 492.932 532.017 492.932ZM517.01 505.615C517.01 513.343 512.453 518 504.916 518L496.15 518L496.15 493.272L504.99 493.272C512.453 493.272 517.01 497.912 517.01 505.615ZM562.945 493.272L568.149 493.272L568.149 518L563.634 518L552.876 502.436L552.693 502.436L552.693 518L547.464 518L547.464 493.272L552.054 493.272L562.721 508.828L562.945 508.828L562.945 493.272ZM578.549 512.364L576.715 518L571.112 518L579.654 493.272L586.385 493.272L594.91 518L589.307 518L587.473 512.364L578.549 512.364ZM601.466 497.58L593.895 497.58L593.895 493.272L614.207 493.272L614.207 497.58L606.637 497.58L606.637 518L601.466 518L601.466 497.58ZM634.274 518L617.565 518L617.565 493.272L634.224 493.272L634.224 497.58L622.794 497.58L622.794 503.474L633.369 503.474L633.369 507.782L622.794 507.782L622.794 513.692L634.274 513.692L634.274 518ZM532.017 513.717C535.81 513.717 538.301 510.878 538.301 505.64C538.301 500.394 535.81 497.555 532.017 497.555C528.215 497.555 525.741 500.394 525.741 505.64C525.741 510.878 528.215 513.717 532.017 513.717ZM501.379 497.754L501.379 513.518L504.7 513.518C509.348 513.518 511.797 511.127 511.797 505.615C511.797 500.12 509.348 497.754 504.708 497.754L501.379 497.754ZM582.924 498.925L579.878 508.28L586.161 508.28L583.115 498.925L582.924 498.925Z" fill="#FFFFFF" fill-opacity="1.000000" fill-rule="evenodd"/>
	</g>
	<rect id="Rectangle 18" x="591.000000" y="375.000000" width="473.000000" height="60.000000" fill="#F0F0F0" fill-opacity="1.000000"/>
	<path id="Email Address" d="M655.363 398.91C655.363 399.41 654.934 399.816 654.41 399.816C653.887 399.816 653.453 399.41 653.453 398.91C653.453 398.41 653.887 398 654.41 398C654.934 398 655.363 398.41 655.363 398.91ZM628.523 410L621.41 410L621.41 398.363L628.434 398.363L628.434 399.613L622.816 399.613L622.816 403.547L628.066 403.547L628.066 404.797L622.816 404.797L622.816 408.75L628.523 408.75L628.523 410ZM657.522 398.363L658.862 398.363L658.862 410L657.522 410L657.522 398.363ZM667.65 406.703L666.478 410L665.001 410L669.275 398.363L670.728 398.363L675.001 410L673.525 410L672.353 406.703L667.65 406.703ZM682.476 408.66C682.183 409.137 681.612 410.184 679.933 410.184C677.749 410.184 676.226 408.434 676.226 405.66C676.226 402.91 677.749 401.16 679.956 401.16C681.659 401.16 682.183 402.203 682.476 402.66L682.593 402.66L682.593 398.363L683.933 398.363L683.933 410L682.636 410L682.636 408.66L682.476 408.66ZM692.407 408.66C692.114 409.137 691.544 410.184 689.864 410.184C687.681 410.184 686.157 408.434 686.157 405.66C686.157 402.91 687.681 401.16 689.888 401.16C691.591 401.16 692.114 402.203 692.407 402.66L692.525 402.66L692.525 398.363L693.864 398.363L693.864 410L692.568 410L692.568 408.66L692.407 408.66ZM669.954 400.203L668.091 405.453L671.907 405.453L670.044 400.203L669.954 400.203ZM697.839 410L696.499 410L696.499 401.273L697.796 401.273L697.796 402.59L697.886 402.59C698.206 401.727 699.113 401.137 700.159 401.137C700.359 401.137 700.71 401.148 700.863 401.16L700.863 402.523C700.773 402.5 700.402 402.434 700.046 402.434C698.773 402.434 697.839 403.297 697.839 404.477L697.839 410ZM632.135 410L630.795 410L630.795 401.273L632.092 401.273L632.092 402.637L632.205 402.637C632.568 401.703 633.408 401.16 634.545 401.16C635.693 401.16 636.455 401.703 636.885 402.637L636.978 402.637C637.428 401.734 638.342 401.16 639.592 401.16C641.146 401.16 642.252 402.109 642.252 404.16L642.252 410L640.908 410L640.908 404.16C640.908 402.871 640.092 402.363 639.135 402.363C637.908 402.363 637.205 403.191 637.205 404.316L637.205 410L635.842 410L635.842 404.023C635.842 403.027 635.131 402.363 634.115 402.363C633.068 402.363 632.135 403.266 632.135 404.547L632.135 410ZM649.864 408.816C649.591 409.387 648.794 410.203 647.274 410.203C645.614 410.203 644.294 409.227 644.294 407.523C644.294 405.523 646.063 405.164 647.68 404.953C649.274 404.75 649.93 404.809 649.93 404.16L649.93 404.113C649.93 402.996 649.325 402.34 648.091 402.34C646.813 402.34 646.114 403.023 645.817 403.66L644.544 403.203C645.227 401.613 646.727 401.16 648.044 401.16C649.161 401.16 651.274 401.477 651.274 404.25L651.274 410L649.93 410L649.93 408.816L649.864 408.816ZM709.318 407.977C708.908 409.297 707.615 410.184 705.841 410.184C703.318 410.184 701.771 408.387 701.771 405.703C701.771 403.023 703.341 401.16 705.705 401.16C707.521 401.16 709.455 402.273 709.455 405.523L709.455 406.09L703.119 406.09C703.181 407.961 704.267 408.977 705.841 408.977C706.892 408.977 707.681 408.523 708.021 407.613L709.318 407.977ZM714.589 401.16C716.32 401.16 717.261 401.988 717.683 403.227L716.476 403.566C716.245 402.965 715.761 402.316 714.589 402.316C713.523 402.316 712.726 402.863 712.726 403.613C712.726 404.285 713.195 404.629 714.226 404.887L715.523 405.203C717.081 405.586 717.839 406.352 717.839 407.566C717.839 409.074 716.46 410.184 714.433 410.184C712.648 410.184 711.425 409.391 711.113 407.91L712.386 407.59C712.624 408.527 713.312 409 714.409 409C715.659 409 716.456 408.387 716.456 407.637C716.456 407.035 716.038 406.613 715.159 406.41L713.706 406.066C712.101 405.691 711.386 404.887 711.386 403.684C711.386 402.203 712.749 401.16 714.589 401.16ZM722.953 401.16C724.683 401.16 725.625 401.988 726.047 403.227L724.839 403.566C724.609 402.965 724.125 402.316 722.953 402.316C721.886 402.316 721.089 402.863 721.089 403.613C721.089 404.285 721.558 404.629 722.589 404.887L723.886 405.203C725.445 405.586 726.203 406.352 726.203 407.566C726.203 409.074 724.824 410.184 722.797 410.184C721.011 410.184 719.789 409.391 719.476 407.91L720.75 407.59C720.988 408.527 721.675 409 722.773 409C724.023 409 724.82 408.387 724.82 407.637C724.82 407.035 724.402 406.613 723.523 406.41L722.07 406.066C720.464 405.691 719.75 404.887 719.75 403.684C719.75 402.203 721.113 401.16 722.953 401.16ZM655.066 410L653.727 410L653.727 401.273L655.066 401.273L655.066 410ZM677.569 405.637C677.569 407.5 678.433 408.977 680.112 408.977C681.726 408.977 682.612 407.613 682.612 405.637C682.612 403.684 681.749 402.363 680.112 402.363C678.409 402.363 677.569 403.797 677.569 405.637ZM687.501 405.637C687.501 407.5 688.364 408.977 690.044 408.977C691.657 408.977 692.544 407.613 692.544 405.637C692.544 403.684 691.681 402.363 690.044 402.363C688.341 402.363 687.501 403.797 687.501 405.637ZM705.705 402.363C704.169 402.363 703.208 403.574 703.119 404.934L708.091 404.934C708.091 403.453 707.158 402.363 705.705 402.363ZM645.637 407.59C645.637 408.523 646.411 409 647.477 409C649.067 409 649.93 407.934 649.93 406.84L649.93 405.613C649.704 405.887 648.18 406.047 647.614 406.113C646.567 406.25 645.637 406.566 645.637 407.59Z" fill="#4A4A4A" fill-opacity="1.000000" fill-rule="evenodd"/>
	<rect id="Rectangle 17" x="65.000000" y="375.000000" width="473.000000" height="60.000000" fill="#F0F0F0" fill-opacity="1.000000"/>
	<path id="Your name" d="M115.613 405.203L111.41 398.363L113.023 398.363L116.25 403.797L116.387 403.797L119.613 398.363L121.227 398.363L117.023 405.203L117.023 410L115.613 410L115.613 405.203ZM141.816 410L140.477 410L140.477 401.273L141.773 401.273L141.773 402.59L141.863 402.59C142.184 401.727 143.09 401.137 144.137 401.137C144.336 401.137 144.688 401.148 144.84 401.16L144.84 402.523C144.75 402.5 144.379 402.434 144.023 402.434C142.75 402.434 141.816 403.297 141.816 404.477L141.816 410ZM129.136 405.684C129.136 408.387 127.546 410.184 125.183 410.184C122.819 410.184 121.225 408.387 121.225 405.684C121.225 402.953 122.819 401.16 125.183 401.16C127.546 401.16 129.136 402.953 129.136 405.684ZM154.501 402.363C153.216 402.363 152.271 403.227 152.271 404.75L152.271 410L150.931 410L150.931 401.273L152.228 401.273L152.228 402.637L152.341 402.637C152.751 401.75 153.568 401.16 154.888 401.16C156.654 401.16 157.841 402.227 157.841 404.453L157.841 410L156.501 410L156.501 404.547C156.501 403.176 155.744 402.363 154.501 402.363ZM165.455 408.816C165.181 409.387 164.385 410.203 162.865 410.203C161.205 410.203 159.885 409.227 159.885 407.523C159.885 405.523 161.654 405.164 163.271 404.953C164.865 404.75 165.521 404.809 165.521 404.16L165.521 404.113C165.521 402.996 164.916 402.34 163.681 402.34C162.404 402.34 161.705 403.023 161.408 403.66L160.135 403.203C160.818 401.613 162.318 401.16 163.635 401.16C164.752 401.16 166.865 401.477 166.865 404.25L166.865 410L165.521 410L165.521 408.816L165.455 408.816ZM170.657 410L169.317 410L169.317 401.273L170.614 401.273L170.614 402.637L170.728 402.637C171.091 401.703 171.931 401.16 173.067 401.16C174.216 401.16 174.978 401.703 175.407 402.637L175.501 402.637C175.95 401.734 176.864 401.16 178.114 401.16C179.669 401.16 180.775 402.109 180.775 404.16L180.775 410L179.431 410L179.431 404.16C179.431 402.871 178.614 402.363 177.657 402.363C176.431 402.363 175.728 403.191 175.728 404.316L175.728 410L174.364 410L174.364 404.023C174.364 403.027 173.653 402.363 172.638 402.363C171.591 402.363 170.657 403.266 170.657 404.547L170.657 410ZM190.363 407.977C189.953 409.297 188.66 410.184 186.887 410.184C184.363 410.184 182.816 408.387 182.816 405.703C182.816 403.023 184.387 401.16 186.75 401.16C188.566 401.16 190.5 402.273 190.5 405.523L190.5 406.09L184.164 406.09C184.227 407.961 185.312 408.977 186.887 408.977C187.938 408.977 188.727 408.523 189.066 407.613L190.363 407.977ZM134.431 408.816C135.431 408.816 136.681 408.066 136.681 406.434L136.681 401.273L138.021 401.273L138.021 410L136.681 410L136.681 408.523L136.591 408.523C136.181 409.41 135.318 410.113 134.001 410.113C132.365 410.113 131.181 409.047 131.181 406.816L131.181 401.273L132.521 401.273L132.521 406.727C132.521 408 133.318 408.816 134.431 408.816ZM122.569 405.684C122.569 407.434 123.386 408.977 125.183 408.977C126.975 408.977 127.796 407.434 127.796 405.684C127.796 403.934 126.975 402.363 125.183 402.363C123.386 402.363 122.569 403.934 122.569 405.684ZM186.75 402.363C185.215 402.363 184.254 403.574 184.164 404.934L189.137 404.934C189.137 403.453 188.203 402.363 186.75 402.363ZM161.228 407.59C161.228 408.523 162.002 409 163.068 409C164.658 409 165.521 407.934 165.521 406.84L165.521 405.613C165.295 405.887 163.771 406.047 163.205 406.113C162.158 406.25 161.228 406.566 161.228 407.59Z" fill="#4A4A4A" fill-opacity="1.000000" fill-rule="evenodd"/>
	<rect id="Rectangle 16" x="65.000000" y="275.000000" width="999.000000" height="60.000000" fill="#F0F0F0" fill-opacity="1.000000"/>
	<path id="Who you want to help" d="M114.977 311L113.523 311L110.34 299.363L111.773 299.363L114.203 308.84L114.316 308.84L116.797 299.363L118.387 299.363L120.863 308.84L120.977 308.84L123.41 299.363L124.84 299.363L121.66 311L120.203 311L117.637 301.727L117.547 301.727L114.977 311ZM130.045 303.363C128.721 303.363 127.748 304.227 127.748 305.75L127.748 311L126.408 311L126.408 299.363L127.748 299.363L127.748 303.637L127.865 303.637C128.272 302.734 129.057 302.16 130.432 302.16C132.217 302.16 133.408 303.211 133.408 305.453L133.408 311L132.069 311L132.069 305.547C132.069 304.16 131.307 303.363 130.045 303.363ZM246.954 303.363C245.63 303.363 244.657 304.227 244.657 305.75L244.657 311L243.317 311L243.317 299.363L244.657 299.363L244.657 303.637L244.775 303.637C245.181 302.734 245.966 302.16 247.341 302.16C249.126 302.16 250.317 303.211 250.317 305.453L250.317 311L248.978 311L248.978 305.547C248.978 304.16 248.216 303.363 246.954 303.363ZM262.09 299.363L263.43 299.363L263.43 311L262.09 311L262.09 299.363ZM215.16 302.273L217.023 302.273L217.023 303.41L215.16 303.41L215.16 308.5C215.16 309.637 215.727 309.816 216.316 309.816C216.613 309.816 216.797 309.773 216.91 309.75L217.184 310.953C217 311.023 216.684 311.113 216.184 311.113C215.047 311.113 213.816 310.387 213.816 308.863L213.816 303.41L212.5 303.41L212.5 302.273L213.816 302.273L213.816 300.184L215.16 300.184L215.16 302.273ZM225.478 302.273L227.342 302.273L227.342 303.41L225.478 303.41L225.478 308.5C225.478 309.637 226.045 309.816 226.635 309.816C226.931 309.816 227.115 309.773 227.228 309.75L227.502 310.953C227.318 311.023 227.002 311.113 226.502 311.113C225.365 311.113 224.135 310.387 224.135 308.863L224.135 303.41L222.818 303.41L222.818 302.273L224.135 302.273L224.135 300.184L225.478 300.184L225.478 302.273ZM143.363 306.684C143.363 309.387 141.773 311.184 139.41 311.184C137.047 311.184 135.453 309.387 135.453 306.684C135.453 303.953 137.047 302.16 139.41 302.16C141.773 302.16 143.363 303.953 143.363 306.684ZM165.999 306.684C165.999 309.387 164.409 311.184 162.046 311.184C159.683 311.184 158.089 309.387 158.089 306.684C158.089 303.953 159.683 302.16 162.046 302.16C164.409 302.16 165.999 303.953 165.999 306.684ZM200 309.816C199.727 310.387 198.93 311.203 197.411 311.203C195.75 311.203 194.43 310.227 194.43 308.523C194.43 306.523 196.2 306.164 197.817 305.953C199.411 305.75 200.067 305.809 200.067 305.16L200.067 305.113C200.067 303.996 199.461 303.34 198.227 303.34C196.95 303.34 196.25 304.023 195.953 304.66L194.68 304.203C195.364 302.613 196.864 302.16 198.18 302.16C199.297 302.16 201.411 302.477 201.411 305.25L201.411 311L200.067 311L200.067 309.816L200 309.816ZM207.433 303.363C206.148 303.363 205.203 304.227 205.203 305.75L205.203 311L203.863 311L203.863 302.273L205.16 302.273L205.16 303.637L205.273 303.637C205.683 302.75 206.5 302.16 207.82 302.16C209.586 302.16 210.773 303.227 210.773 305.453L210.773 311L209.433 311L209.433 305.547C209.433 304.176 208.675 303.363 207.433 303.363ZM236.772 306.684C236.772 309.387 235.182 311.184 232.819 311.184C230.456 311.184 228.862 309.387 228.862 306.684C228.862 303.953 230.456 302.16 232.819 302.16C235.182 302.16 236.772 303.953 236.772 306.684ZM259.909 308.977C259.499 310.297 258.206 311.184 256.432 311.184C253.909 311.184 252.362 309.387 252.362 306.703C252.362 304.023 253.932 302.16 256.295 302.16C258.112 302.16 260.045 303.273 260.045 306.523L260.045 307.09L253.71 307.09C253.772 308.961 254.858 309.977 256.432 309.977C257.483 309.977 258.272 309.523 258.612 308.613L259.909 308.977ZM267.225 314.273L265.886 314.273L265.886 302.273L267.183 302.273L267.183 303.66L267.343 303.66C267.636 303.203 268.159 302.16 269.862 302.16C272.069 302.16 273.593 303.91 273.593 306.66C273.593 309.434 272.069 311.184 269.886 311.184C268.206 311.184 267.636 310.137 267.343 309.66L267.225 309.66L267.225 314.273ZM153.342 312.273C152.834 313.629 151.983 314.273 150.772 314.273C150.319 314.273 149.932 314.184 149.795 314.113L150.135 312.934C151.115 313.184 151.717 313.059 152.205 311.727L152.455 311.047L149.229 302.273L150.682 302.273L153.092 309.227L153.182 309.227L155.592 302.273L157.045 302.273L153.342 312.273ZM171.295 309.816C172.295 309.816 173.545 309.066 173.545 307.434L173.545 302.273L174.885 302.273L174.885 311L173.545 311L173.545 309.523L173.455 309.523C173.045 310.41 172.181 311.113 170.865 311.113C169.228 311.113 168.045 310.047 168.045 307.816L168.045 302.273L169.385 302.273L169.385 307.727C169.385 309 170.181 309.816 171.295 309.816ZM185.137 311L183.817 311L181.161 302.273L182.567 302.273L184.453 308.953L184.547 308.953L186.411 302.273L187.84 302.273L189.68 308.934L189.774 308.934L191.661 302.273L193.067 302.273L190.411 311L189.09 311L187.18 304.297L187.047 304.297L185.137 311ZM136.797 306.684C136.797 308.434 137.613 309.977 139.41 309.977C141.203 309.977 142.023 308.434 142.023 306.684C142.023 304.934 141.203 303.363 139.41 303.363C137.613 303.363 136.797 304.934 136.797 306.684ZM159.433 306.684C159.433 308.434 160.249 309.977 162.046 309.977C163.839 309.977 164.659 308.434 164.659 306.684C164.659 304.934 163.839 303.363 162.046 303.363C160.249 303.363 159.433 304.934 159.433 306.684ZM230.206 306.684C230.206 308.434 231.022 309.977 232.819 309.977C234.612 309.977 235.432 308.434 235.432 306.684C235.432 304.934 234.612 303.363 232.819 303.363C231.022 303.363 230.206 304.934 230.206 306.684ZM256.295 303.363C254.76 303.363 253.799 304.574 253.71 305.934L258.682 305.934C258.682 304.453 257.749 303.363 256.295 303.363ZM269.706 303.363C268.069 303.363 267.206 304.684 267.206 306.637C267.206 308.613 268.093 309.977 269.706 309.977C271.386 309.977 272.249 308.5 272.249 306.637C272.249 304.797 271.409 303.363 269.706 303.363ZM195.774 308.59C195.774 309.523 196.547 310 197.614 310C199.203 310 200.067 308.934 200.067 307.84L200.067 306.613C199.84 306.887 198.317 307.047 197.75 307.113C196.703 307.25 195.774 307.566 195.774 308.59Z" fill="#4A4A4A" fill-opacity="1.000000" fill-rule="evenodd"/>
	<path id="Polygon 1" d="M1010.43 316.991L998.08 301.234C997.051 299.921 997.986 298 999.654 298L1024.35 298C1026.01 298 1026.95 299.921 1025.92 301.234L1013.57 316.991C1012.77 318.013 1011.23 318.013 1010.43 316.991Z" fill="#9D9D9D" fill-opacity="1.000000" fill-rule="evenodd"/>
</svg>
