<svg width="174.000000" height="174.000000" viewBox="0 0 174 174" fill="none" xmlns="http://www.w3.org/2000/svg" xmlns:xlink="http://www.w3.org/1999/xlink">
	<desc>
			Created with Pixso.
	</desc>
	<defs/>
	<path id="Vector" d="M166.748 117.171C165.717 113.617 162.979 104.176 153.717 96.5204C150.352 93.7414 144.092 88.567 134.766 88.2485C134.16 88.2293 131.473 88.1856 128.078 88.8086C124.932 87.4179 122.131 86.4956 119.969 85.9139C114.24 84.3728 108.318 83.7345 102.363 84.0349L101.91 84.0585L101.611 84.3977C101.559 84.4572 96.2754 90.3601 87.877 90.3601L87.7617 90.3601C80.043 90.3102 76.4766 84.7716 76.3301 84.5376L76.0352 84.0626L75.4746 84.0349C69.5176 83.7372 63.5977 84.3728 57.8672 85.9139C53.8438 86.9967 47.6504 89.2025 41.0059 93.5697C38.9434 94.9251 37.2012 96.2578 35.6152 97.6065C25.0176 99.8593 17.4707 109.677 18.3984 120.719C18.8848 126.52 21.6074 131.785 26.0684 135.544C30.0488 138.901 34.9902 140.698 40.1445 140.697C40.7637 140.697 41.3828 140.672 42.0059 140.619C54.0176 139.617 62.9727 129.059 61.9668 117.083C61.4805 111.282 58.7559 106.016 54.2969 102.257C50.166 98.7743 44.9941 96.9908 39.6367 97.1363C40.4375 96.5401 41.2695 95.9441 42.1816 95.3448C48.5859 91.1341 54.5488 89.0086 58.4238 87.9687C63.7695 86.5314 69.293 85.9153 74.8457 86.1355C75.9961 87.6932 80.1211 92.4384 87.748 92.4869L87.8789 92.4869C96.1406 92.4869 101.553 87.5229 102.9 86.1396C108.492 85.9042 114.039 86.5232 119.414 87.9688C120.873 88.3601 122.627 88.9059 124.588 89.6579C120.916 90.7778 116.986 92.7665 114.115 96.3141C107.949 103.928 104.078 111.833 102.604 119.809C101.598 125.248 100.344 132.018 104.385 136.299C106.934 139.003 110.605 139.626 113.283 140.08C114.617 140.306 115.973 140.42 117.336 140.42C120.268 140.418 123.236 139.9 126.096 138.88C126.154 138.884 126.215 138.885 126.273 138.889C128.953 140.061 131.805 140.691 134.705 140.691C135.279 140.691 135.857 140.667 136.434 140.619C138.875 140.416 141.141 139.794 143.207 138.86C143.934 138.81 144.664 138.776 145.385 138.714C149.023 139.756 152.758 140.238 156.514 140.148C160.924 140.042 163.586 139.978 165.738 138.269C171.531 133.669 167.932 121.253 166.748 117.171ZM55.2461 131.599C51.8438 135.611 47.0801 138.062 41.8281 138.501C36.5664 138.941 31.4668 137.31 27.4453 133.92C23.4199 130.528 20.9629 125.777 20.5234 120.542C20.4609 119.792 20.4512 119.047 20.4727 118.306C21.2051 118.555 22.0645 118.807 23.1641 118.999C24.0918 119.16 25.4746 119.33 27.1836 119.33C29.1113 119.33 31.4551 119.113 34.0234 118.42C35.666 117.979 38.4121 117.239 41.3828 115.107C42.5156 114.294 43.5625 113.363 44.5059 112.332C46.1055 113.802 47.9238 114.978 49.9238 115.832C53.8477 117.507 58.1953 117.424 59.8438 117.317C60.2656 122.532 58.6367 127.603 55.2461 131.599ZM38.5371 99.3008C39.0996 99.2538 39.6582 99.2316 40.2148 99.2316C44.8691 99.2316 49.3262 100.853 52.9199 103.881C56.4102 106.823 58.7168 110.788 59.5547 115.202C58.0449 115.285 54.1582 115.326 50.7637 113.877C48.6699 112.983 46.8008 111.692 45.207 110.04L44.3711 109.173L43.6113 110.108C42.5996 111.352 41.4316 112.452 40.1367 113.381C37.4805 115.287 34.9688 115.964 33.4688 116.368C29.0195 117.566 25.334 117.218 23.5293 116.903C22.3223 116.692 21.4355 116.402 20.6641 116.12C21.1777 112.492 22.6855 109.069 25.1172 106.202C26.9941 103.991 29.293 102.274 31.8496 101.087C33.3613 100.385 34.957 99.8564 36.625 99.5545C37.2539 99.4407 37.8906 99.3547 38.5371 99.3008ZM142.656 136.765C140.713 137.685 138.576 138.307 136.256 138.501C132.994 138.773 129.738 138.169 126.732 136.778C124.975 135.964 123.303 134.882 121.768 133.542C117.721 130.004 115.172 125.158 114.951 120.579C114.822 117.89 115.496 115.165 116.953 112.47C119.988 112.488 123.018 112.376 126.039 112.142L126.363 112.116C131.719 111.7 135.945 111.372 140.857 109.668C143.695 108.683 146.447 107.418 149.053 105.902C151.346 108.398 153.898 112.247 154.268 117.249C154.811 124.653 150.312 133.14 142.656 136.765ZM164.408 136.605C162.818 137.869 160.561 137.923 156.461 138.021C153.186 138.101 149.912 137.69 146.713 136.848C153.236 132.227 156.916 124.205 156.395 117.094C155.949 111.026 152.672 106.52 150 103.808L149.408 103.206L148.686 103.644C145.99 105.28 143.121 106.631 140.158 107.66C135.506 109.273 131.602 109.576 126.199 109.996L125.873 110.021C122.703 110.269 119.498 110.373 116.344 110.338L115.721 110.331L115.408 110.868C113.533 114.097 112.662 117.398 112.822 120.681C113.068 125.825 115.887 131.231 120.361 135.141C121.357 136.012 122.408 136.78 123.5 137.452C120.227 138.337 116.855 138.531 113.643 137.984C111.127 137.558 107.998 137.027 105.938 134.842C102.637 131.345 103.734 125.421 104.701 120.194C106.109 112.57 109.836 104.985 115.775 97.6489C119.023 93.6381 123.832 91.8324 127.807 91.0195C129.193 90.736 130.475 90.5696 131.555 90.479C132.617 90.3898 133.49 90.3656 134.059 90.3656C134.352 90.3656 134.568 90.3698 134.691 90.3753C143.289 90.6675 148.965 95.3573 152.365 98.1654C161.111 105.396 163.719 114.38 164.699 117.764C167.609 127.803 167.512 134.142 164.408 136.605ZM52.3086 76.4152L53.5215 76.8735C56.2461 77.9037 58.8711 78.8965 60.9863 78.8965C62.1094 78.8965 63.0898 78.6154 63.8613 77.9106C65.0527 76.8264 65.1465 74.8768 65.3418 70.8738C65.3809 70.1087 65.3965 69.338 65.4023 68.5671C69.4355 71.4821 73.8633 73.557 78.5898 74.7411C82.25 75.6578 85.4355 75.8669 87.5762 75.8669C88.5234 75.8669 89.2676 75.8253 89.7578 75.7879C92.2461 75.5885 97.1445 74.8796 101.975 72.3526C104.74 70.9062 107.258 68.9567 109.467 66.659C109.586 68.3391 109.691 69.7802 109.773 70.9001C110.15 75.9278 110.229 76.9746 111.252 77.9106C112.025 78.6154 113.004 78.8965 114.129 78.8965C116.244 78.8965 118.869 77.9037 121.594 76.8735L122.807 76.4152C127.168 74.7785 130.613 73.4852 132.883 70.2119C134.025 68.5683 135.141 65.6827 134.76 56.7475C134.537 51.5176 134.344 47.0022 132.68 40.6107C130.281 31.3957 127.295 19.928 117.176 11.0039C112.326 6.72493 107 4.09355 102.016 2.47273L102.012 2.47023L102.012 2.47144C96.4434 0.662033 91.3164 0.120026 87.7598 0.0141907L87.7598 0C87.6953 0.00137329 87.623 0.00544739 87.5586 0.00709534C87.4922 0.00544739 87.4199 0.00138855 87.3555 0L87.3555 0.0141907C80.6133 0.214783 68.207 1.94579 57.9395 11.0039C47.8242 19.9252 44.8379 31.393 42.4355 40.6107C40.7715 47.0023 40.5781 51.5176 40.3555 56.7475C39.9746 65.6827 41.0898 68.5683 42.2305 70.2119C44.502 73.4852 47.9473 74.7785 52.3086 76.4152ZM100.982 70.4695C96.4902 72.8206 91.9141 73.4825 89.5879 73.6666C88.0938 73.7843 84.084 73.9228 79.1094 72.678C74.3281 71.4803 69.873 69.3044 65.8438 66.2296C64.0742 62.7714 62.9434 59.0924 62.5273 55.2645C61.8203 48.7621 63.291 43.3066 64.7891 39.6691C70.2031 40.6093 79.9922 41.1479 90.1758 36.0039C98.0547 32.0272 102.941 26.2698 105.654 22.1407L104.762 21.5578L105.658 22.1338C105.805 21.9074 105.961 21.6327 106.121 21.3301C109.891 24.4577 112.838 28.4477 114.674 32.9688C116.199 36.7184 116.623 40.0056 116.742 41.6298C117.574 53.128 110.947 65.2562 100.982 70.4695ZM115.764 12.5962C125.393 21.0911 128.289 32.2099 130.615 41.1451C132.223 47.3179 132.402 51.519 132.629 56.8389C133.031 66.2629 131.65 68.2526 131.129 69.0017C129.238 71.7295 126.381 72.8012 122.057 74.4254L120.836 74.8838C117.451 76.1646 113.947 77.4855 112.693 76.3418C112.33 76.0095 112.219 74.9834 111.902 70.7422C111.785 69.1803 111.627 67.0161 111.447 64.4102L111.424 64.4117C116.541 58.0181 119.457 49.6055 118.869 41.4775C118.744 39.7273 118.285 36.1908 116.652 32.1712C114.596 27.1124 111.244 22.6788 106.949 19.2683C107.518 17.387 107.818 14.8274 107.145 11.5453C106.668 9.21223 105.686 7.24203 104.707 5.73691C108.432 7.29146 112.234 9.4823 115.764 12.5962ZM42.4863 56.8389C42.7129 51.519 42.8926 47.3179 44.502 41.1424C46.8301 32.2072 49.7266 21.087 59.3516 12.5963C69.1875 3.91945 81.1426 2.30762 87.5586 2.13557C90.8711 2.22446 95.6602 2.70763 100.879 4.34117C101.711 5.17958 104.24 7.98958 105.057 11.9718C106.062 16.8796 104.564 19.8993 103.869 20.9756C101.299 24.8885 96.6699 30.3423 89.2109 34.1069C79.0371 39.2468 69.2676 38.3925 64.3496 37.4246L63.5137 37.2612L63.168 38.0394C61.4629 41.8901 59.5977 48.0463 60.4043 55.4944C60.7949 59.087 61.7871 62.5534 63.2969 65.8487L63.2266 65.8516C63.2988 67.4855 63.293 69.1388 63.207 70.8918C63.0645 73.7691 62.9629 75.8475 62.4219 76.3404C61.168 77.4869 57.6621 76.1646 54.2793 74.8838L53.0586 74.4254C48.7344 72.8012 45.877 71.7295 43.9844 69.0017C43.4648 68.2526 42.084 66.2629 42.4863 56.8389ZM39.9766 145.619C34.5312 145.619 29.3379 146.458 24.5996 147.971C24.1484 146.839 23.2832 145.329 21.6465 144.183C21.0684 143.777 19.8438 143.057 18.1602 142.793C16.0488 142.462 14.4043 143.033 13.1992 143.449C12.3105 143.758 11.2754 144.355 9.02344 145.677C5.89648 147.51 5.32422 147.997 4.76562 148.665C4.33594 149.178 3.33398 150.378 2.99805 152.207C2.66992 153.996 3.15625 155.393 3.50977 156.414C4.06055 158.001 4.86133 159.322 5.70508 160.402C2.50586 164.423 0.490234 169.051 0 174L2.14258 174C2.61523 169.653 4.37891 165.581 7.15039 161.998C8.13281 162.945 9.01953 163.57 9.45508 163.843C11.3574 165.038 13.0938 165.499 13.9648 165.669C14.7539 165.821 15.6367 165.993 16.5723 165.993C17.5156 165.993 18.5137 165.817 19.5156 165.269C21.373 164.248 22.2031 162.502 22.5352 161.552C22.8535 160.63 23.123 158.884 21.7734 154.387C21.5 153.473 21.1855 152.562 20.8457 151.656C26.4688 149.175 33.0039 147.746 39.9766 147.746C59.8652 147.746 76.2207 159.324 77.8125 174L79.9551 174C78.3828 158.15 61.0586 145.619 39.9766 145.619ZM20.0371 149.703C19.8867 149.356 19.7578 149.003 19.5977 148.66L17.6621 149.552C17.8223 149.899 17.9551 150.258 18.1074 150.609C18.3867 151.259 18.6602 151.908 18.9043 152.568C19.2031 153.374 19.4863 154.183 19.7285 154.996C20.3281 156.986 20.9473 159.617 20.5176 160.857C20.2891 161.518 19.7188 162.729 18.4863 163.405C17.1738 164.126 15.75 163.85 14.3672 163.579C13.6484 163.44 12.2031 163.053 10.5918 162.043C10.2031 161.798 9.39453 161.229 8.50977 160.356C8.05273 159.906 7.58594 159.369 7.13281 158.745C6.51367 157.895 5.93555 156.9 5.52734 155.719C5.21875 154.833 4.86914 153.829 5.09766 152.591C5.33008 151.311 6.05664 150.445 6.4043 150.028C6.75781 149.604 7.18164 149.225 10.1055 147.511C12.1758 146.295 13.2031 145.701 13.8984 145.458C15 145.079 16.248 144.648 17.8281 144.895C19.0879 145.092 19.9922 145.623 20.4199 145.922C21.5879 146.741 22.2344 147.823 22.582 148.662C21.7148 148.984 20.8691 149.336 20.0371 149.703ZM168.295 160.402C169.139 159.322 169.939 158.001 170.49 156.414C170.844 155.393 171.33 153.996 171.002 152.209C170.666 150.378 169.664 149.178 169.232 148.665C168.672 147.994 168.098 147.509 164.979 145.677C162.727 144.356 161.693 143.759 160.801 143.449C159.594 143.033 157.945 142.461 155.842 142.793C154.156 143.057 152.932 143.777 152.355 144.183C150.717 145.329 149.852 146.839 149.4 147.971C144.662 146.458 139.469 145.619 134.023 145.619C112.941 145.619 95.6172 158.15 94.0449 174L96.1875 174C97.7793 159.324 114.135 147.746 134.023 147.746C140.996 147.746 147.531 149.175 153.154 151.656C152.814 152.561 152.5 153.472 152.225 154.387C150.875 158.884 151.146 160.63 151.465 161.552C151.797 162.502 152.627 164.248 154.484 165.269C155.484 165.817 156.48 165.993 157.426 165.993C158.363 165.993 159.25 165.821 160.041 165.668C160.906 165.499 162.643 165.038 164.545 163.843C164.98 163.57 165.867 162.945 166.85 161.998C169.621 165.581 171.385 169.653 171.857 174L174 174C173.51 169.051 171.494 164.423 168.295 160.402ZM165.49 160.356C164.605 161.229 163.797 161.798 163.408 162.043C161.797 163.053 160.352 163.44 159.629 163.581C158.25 163.848 156.824 164.125 155.514 163.405C154.281 162.729 153.711 161.518 153.482 160.857C153.053 159.617 153.672 156.986 154.27 154.997C154.514 154.183 154.797 153.373 155.096 152.567C155.34 151.907 155.613 151.258 155.893 150.609C156.043 150.257 156.178 149.898 156.338 149.55L154.398 148.661C154.24 149.003 154.111 149.356 153.961 149.703C153.129 149.336 152.285 148.984 151.418 148.662C151.768 147.823 152.412 146.741 153.58 145.922C154.008 145.623 154.912 145.092 156.174 144.895C157.752 144.647 158.998 145.078 160.102 145.458C160.801 145.701 161.824 146.296 163.896 147.511C166.814 149.223 167.242 149.604 167.596 150.028C167.945 150.445 168.67 151.311 168.904 152.592C169.131 153.829 168.781 154.833 168.473 155.719C168.064 156.9 167.486 157.895 166.867 158.745C166.414 159.369 165.947 159.906 165.49 160.356Z" fill="#FFFFFF" fill-opacity="1.000000" fill-rule="nonzero"/>
</svg>
