<svg width="101.000000" height="100.634705" viewBox="0 0 101 100.635" fill="none" xmlns="http://www.w3.org/2000/svg" xmlns:xlink="http://www.w3.org/1999/xlink">
	<desc>
			Created with Pixso.
	</desc>
	<defs/>
	<path id="Vector" d="M99.9023 50.3174L94.5234 50.3174C96.6094 46.2701 97.707 41.7853 97.707 37.1911C97.707 21.549 84.9727 8.75085 69.2734 8.75085C62.6855 8.75085 56.209 11.0479 51.1582 15.314L29.6406 15.314L29.6406 13.1263C29.6406 5.90683 23.7129 0 16.4668 0C9.22266 0 3.29297 5.90683 3.29297 13.1263L3.29297 50.3174L1.09766 50.3174C0.439453 50.3174 0 50.7549 0 51.4112L0 57.9743C0 58.6307 0.439453 59.0682 1.09766 59.0682L2.30469 59.0682L7.68555 99.6503C7.79492 100.197 8.23438 100.635 8.7832 100.635L92.2168 100.635C92.7656 100.635 93.2051 100.197 93.3145 99.6503L98.6953 59.0682L99.9023 59.0682C100.561 59.0682 101 58.6307 101 57.9743L101 51.4112C101 50.7549 100.561 50.3174 99.9023 50.3174ZM69.2734 10.9386C83.7637 10.9386 95.5117 22.7522 95.5117 37.1911C95.5117 41.7853 94.3027 46.3795 91.998 50.3174L60.3809 50.3174L60.3809 41.6759C62.0273 44.8481 65.3203 47.0358 69.1621 47.0358C74.6523 47.0358 79.043 42.6604 79.043 37.1911C79.043 31.7218 74.6523 27.3464 69.1621 27.3464C65.3203 27.3464 62.0273 29.5341 60.3809 32.7063L60.3809 30.4092C60.3809 29.4247 60.709 28.5496 61.3691 27.8933L64.1133 25.1587C65.2109 24.0648 65.7598 22.6428 65.7598 21.1114C65.7598 17.9392 63.125 15.4234 60.0508 15.4234L54.8906 15.4234C59.1719 12.47 64.1133 10.9386 69.2734 10.9386ZM61.4785 37.1911C61.4785 32.925 64.8809 29.5341 69.1621 29.5341C73.4453 29.5341 76.8477 32.925 76.8477 37.1911C76.8477 41.4571 73.4453 44.8481 69.1621 44.8481C64.8809 44.8481 61.4785 41.4571 61.4785 37.1911ZM60.1602 17.5017C62.1367 17.5017 63.6738 19.1425 63.6738 21.002C63.6738 21.9865 63.3438 22.8616 62.6855 23.5179L59.9414 26.2525C58.8438 27.3464 58.2949 28.7684 58.2949 30.2998L58.2949 50.3174L29.6406 50.3174L29.6406 17.5017L60.1602 17.5017ZM5.48828 13.1263C5.48828 7.11005 10.4297 2.18771 16.4668 2.18771C22.5059 2.18771 27.4453 7.11005 27.4453 13.1263L27.4453 50.3174L5.48828 50.3174L5.48828 13.1263ZM85.7402 59.0682L86.9473 66.7252L77.0684 66.7252L75.8594 59.0682L85.7402 59.0682ZM93.9746 77.6638L90.9004 77.6638L89.4727 68.9129L95.0723 68.9129L93.9746 77.6638ZM64.5527 77.6638L54.6719 77.6638L53.2441 68.9129L63.125 68.9129L64.5527 77.6638ZM65.4297 68.9129L75.3105 68.9129L76.7383 77.6638L66.8574 77.6638L65.4297 68.9129ZM43.0352 79.8515L52.916 79.8515L54.3418 88.6023L44.4629 88.6023L43.0352 79.8515ZM42.1562 88.6023L32.2754 88.6023L30.8496 79.8515L40.7285 79.8515L42.1562 88.6023ZM55.1113 79.8515L64.9922 79.8515L66.418 88.6023L56.5371 88.6023L55.1113 79.8515ZM52.4766 77.6638L42.5957 77.6638L41.168 68.9129L51.0488 68.9129L52.4766 77.6638ZM40.4004 77.6638L30.5195 77.6638L29.0918 68.9129L38.9727 68.9129L40.4004 77.6638ZM28.3242 77.6638L18.4434 77.6638L17.0156 68.9129L26.8965 68.9129L28.3242 77.6638ZM16.248 77.6638L6.91602 77.6638L5.70898 68.9129L14.7109 68.9129L16.248 77.6638ZM7.24609 79.8515L16.5781 79.8515L18.0039 88.6023L8.45312 88.6023L7.24609 79.8515ZM18.8828 79.8515L28.7637 79.8515L30.1895 88.6023L20.3105 88.6023L18.8828 79.8515ZM30.4102 90.79L31.6172 98.447L21.7363 98.447L20.5293 90.79L30.4102 90.79ZM32.6055 90.79L42.4863 90.79L43.6934 98.447L33.8125 98.447L32.6055 90.79ZM44.6816 90.79L54.5625 90.79L55.7695 98.447L45.8887 98.447L44.6816 90.79ZM56.7578 90.79L66.6387 90.79L67.8457 98.447L57.9648 98.447L56.7578 90.79ZM68.834 90.79L78.7148 90.79L79.9219 98.447L70.041 98.447L68.834 90.79ZM68.5039 88.6023L67.0781 79.8515L76.957 79.8515L78.3848 88.6023L68.5039 88.6023ZM79.2637 79.8515L89.1426 79.8515L90.5703 88.6023L80.6895 88.6023L79.2637 79.8515ZM92.6562 88.1648L91.3398 79.8515L93.7539 79.8515L92.6562 88.1648ZM88.7051 77.6638L78.8242 77.6638L77.3965 68.9129L87.2773 68.9129L88.7051 77.6638ZM73.6641 59.0682L74.8711 66.7252L64.9922 66.7252L63.7832 59.0682L73.6641 59.0682ZM61.5879 59.0682L62.7949 66.7252L52.916 66.7252L51.707 59.0682L61.5879 59.0682ZM49.5117 59.0682L50.7188 66.7252L40.8398 66.7252L39.6309 59.0682L49.5117 59.0682ZM37.4355 59.0682L38.6426 66.7252L28.7637 66.7252L27.5547 59.0682L37.4355 59.0682ZM25.3594 59.0682L26.5684 66.7252L16.6875 66.7252L15.4785 59.0682L25.3594 59.0682ZM13.2832 59.0682L14.4922 66.7252L5.59961 66.7252L4.61133 59.0682L13.2832 59.0682ZM8.7832 90.79L18.4434 90.79L19.6504 98.447L9.77148 98.447L8.7832 90.79ZM82.2266 98.447L81.0195 90.79L90.9004 90.79L91.668 95.8218L91.2285 98.447L82.2266 98.447ZM95.4004 66.7252L89.1426 66.7252L87.9355 59.0682L96.3887 59.0682L95.4004 66.7252ZM98.8047 56.8805L97.707 56.8805L3.29297 56.8805L2.19531 56.8805L2.19531 52.5051L4.39062 52.5051L28.543 52.5051L98.8047 52.5051L98.8047 56.8805Z" fill="#FFFFFF" fill-opacity="1.000000" fill-rule="nonzero"/>
	<path id="Vector" d="M16.4668 10.9386C14.8203 10.9386 6.58594 11.048 6.58594 14.2202C6.58594 17.3923 14.8203 17.5017 16.4668 17.5017C18.1133 17.5017 26.3477 17.3923 26.3477 14.2202C26.3477 11.048 18.1133 10.9386 16.4668 10.9386ZM16.4668 15.314C12.623 15.314 9.98828 14.6577 9.11133 14.2202C10.0996 13.7826 12.623 13.1263 16.4668 13.1263C20.3086 13.1263 22.9434 13.7826 23.8223 14.2202C22.9434 14.6577 20.3086 15.314 16.4668 15.314Z" fill="#FFFFFF" fill-opacity="1.000000" fill-rule="nonzero"/>
	<path id="Vector" d="M16.4668 24.0648C14.8203 24.0648 6.58594 24.1742 6.58594 27.3464C6.58594 30.5186 14.8203 30.628 16.4668 30.628C18.1133 30.628 26.3477 30.5186 26.3477 27.3464C26.3477 24.1742 18.1133 24.0648 16.4668 24.0648ZM16.4668 28.4402C12.623 28.4402 9.98828 27.7839 9.11133 27.3464C10.0996 26.9088 12.623 26.2525 16.4668 26.2525C20.3086 26.2525 22.9434 26.9088 23.8223 27.3464C22.9434 27.7839 20.3086 28.4402 16.4668 28.4402Z" fill="#FFFFFF" fill-opacity="1.000000" fill-rule="nonzero"/>
	<path id="Vector" d="M16.4668 37.1912C14.8203 37.1912 6.58594 37.3005 6.58594 40.4727C6.58594 43.6449 14.8203 43.7543 16.4668 43.7543C18.1133 43.7543 26.3477 43.6449 26.3477 40.4727C26.3477 37.3005 18.1133 37.1912 16.4668 37.1912ZM16.4668 41.5666C12.623 41.5666 9.98828 40.9103 9.11133 40.4727C10.0996 40.0352 12.623 39.3789 16.4668 39.3789C20.3086 39.3789 22.9434 40.0352 23.8223 40.4727C22.9434 40.9103 20.3086 41.5666 16.4668 41.5666Z" fill="#FFFFFF" fill-opacity="1.000000" fill-rule="nonzero"/>
</svg>
