<svg width="104.000000" height="81.189819" viewBox="0 0 104 81.1898" fill="none" xmlns="http://www.w3.org/2000/svg" xmlns:xlink="http://www.w3.org/1999/xlink">
	<desc>
			Created with Pixso.
	</desc>
	<defs/>
	<path id="Vector" d="M104 79.9236L104 23.2032C103.996 21.204 103.197 19.2879 101.779 17.8743C100.361 16.4606 98.4395 15.6645 96.4336 15.6601L96.1387 15.6601L96.1387 14.3089C96.1387 13.1328 95.6699 12.0051 94.8359 11.1733C94.002 10.3415 92.8711 9.8736 91.6914 9.87234L81.209 9.87234C80.623 9.87036 80.0449 9.98419 79.5039 10.2072C78.9629 10.4303 78.4727 10.7581 78.0605 11.1716C77.8223 11.4094 77.6895 11.7318 77.6895 12.0678C77.6895 12.4038 77.8242 12.726 78.0625 12.9635C78.3008 13.201 78.625 13.3342 78.9609 13.334C79.2988 13.3338 79.6211 13.2001 79.8594 12.9623C80.0371 12.7849 80.2461 12.6442 80.4785 12.5485C80.7109 12.4528 80.959 12.404 81.2109 12.4048L91.6934 12.4048C91.9453 12.4048 92.1934 12.454 92.4258 12.5497C92.6562 12.6454 92.8672 12.7857 93.0449 12.9625C93.2227 13.1393 93.3633 13.3492 93.459 13.5802C93.5547 13.8112 93.6035 14.0588 93.6035 14.3089L93.6035 15.6601L69.7695 15.6601L69.7695 7.00204C69.7676 5.146 69.0273 3.36642 67.7109 2.05377C66.3945 0.741089 64.6094 0.00250244 62.748 0L43.0137 0C41.1504 0.00250244 39.3652 0.741089 38.0508 2.05377C36.7344 3.36642 35.9941 5.146 35.9922 7.00204L35.9922 15.6601L29.0039 15.6601L29.0039 14.3089C29.002 13.1326 28.5332 12.0049 27.6973 11.1732C26.8633 10.3414 25.7324 9.8736 24.5527 9.87234L14.0684 9.87234C13.3535 9.87207 12.6484 10.0437 12.0137 10.3727C11.3789 10.7017 10.832 11.1783 10.4219 11.7622C10.2266 12.0373 10.1484 12.3784 10.207 12.7104C10.2637 13.0424 10.4512 13.3383 10.7266 13.5328C11.002 13.7274 11.3438 13.8047 11.6777 13.7477C12.0117 13.6908 12.3066 13.5043 12.502 13.2292C12.6797 12.9778 12.9121 12.7725 13.1855 12.6306C13.459 12.4887 13.7617 12.4145 14.0684 12.4142L24.5527 12.4142C25.0586 12.4142 25.5449 12.6148 25.9023 12.9719C26.2617 13.329 26.4629 13.8133 26.4629 14.3183L26.4629 15.6696L7.56641 15.6696C5.5625 15.674 3.64258 16.4688 2.22461 17.8804C0.806641 19.292 0.0078125 21.2056 0 23.2032L0 79.9236C0 80.0899 0.0332031 80.2545 0.0976562 80.4082C0.160156 80.5618 0.253906 80.7014 0.371094 80.819C0.490234 80.9365 0.630859 81.0298 0.783203 81.0934C0.9375 81.1571 1.10352 81.1898 1.26953 81.1898L102.73 81.1898C102.896 81.1898 103.062 81.1571 103.217 81.0934C103.369 81.0298 103.51 80.9365 103.629 80.819C103.746 80.7014 103.84 80.5618 103.902 80.4082C103.967 80.2545 104 80.0899 104 79.9236ZM38.5312 7.00204C38.5332 5.81744 39.0059 4.68167 39.8457 3.84378C40.6855 3.00592 41.8242 2.53433 43.0137 2.53247L62.748 2.53247C63.9355 2.53433 65.0762 3.00592 65.916 3.84378C66.7559 4.68167 67.2285 5.81744 67.2285 7.00204L67.2285 15.6601L38.5312 15.6601L38.5312 7.00204ZM101.459 78.6668L2.54102 78.6668L2.54102 23.2032C2.54102 21.8743 3.07031 20.5999 4.01367 19.66C4.95508 18.7201 6.23438 18.1915 7.56641 18.1902L96.4316 18.1902C97.7637 18.1915 99.041 18.7198 99.9844 19.6592C100.926 20.5986 101.455 21.8723 101.457 23.2008L101.459 78.6668Z" fill="#FFFFFF" fill-opacity="1.000000" fill-rule="nonzero"/>
	<path id="Vector" d="M58.7422 6.5863L47.0176 6.5863C45.9453 6.58691 44.918 7.01166 44.1582 7.76727C43.4004 8.52289 42.9746 9.54761 42.9727 10.6165L42.9727 12.4048C42.9727 12.7406 43.1074 13.0627 43.3438 13.3002C43.582 13.5376 43.9062 13.6711 44.2422 13.6711C44.5801 13.6711 44.9023 13.5376 45.1406 13.3002C45.3789 13.0627 45.5137 12.7406 45.5137 12.4048L45.5137 10.6165C45.5137 10.2191 45.6719 9.8381 45.9551 9.55728C46.2363 9.27649 46.6191 9.11877 47.0176 9.11877L58.7422 9.11877C59.1426 9.11877 59.5234 9.27649 59.8066 9.55728C60.0879 9.8381 60.248 10.2191 60.248 10.6165L60.248 12.4048C60.248 12.7406 60.3809 13.0627 60.6191 13.3002C60.8574 13.5376 61.1816 13.6711 61.5176 13.6711C61.8555 13.6711 62.1777 13.5376 62.416 13.3002C62.6543 13.0627 62.7891 12.7406 62.7891 12.4048L62.7891 10.6165C62.7871 9.54761 62.3613 8.52289 61.6016 7.76727C60.8438 7.01166 59.8145 6.58691 58.7422 6.5863Z" fill="#FFFFFF" fill-opacity="1.000000" fill-rule="nonzero"/>
	<path id="Vector" d="M66.9922 42.9053L60.1914 42.9053L60.1914 36.1135C60.1914 35.9472 60.1582 35.7826 60.0938 35.629C60.0312 35.4753 59.9375 35.3358 59.8184 35.2182C59.7012 35.1006 59.5605 35.0073 59.4062 34.9437C59.252 34.88 59.0879 34.8473 58.9199 34.8473L46.8496 34.8473C46.6816 34.8473 46.5176 34.88 46.3633 34.9437C46.209 35.0073 46.0684 35.1006 45.9512 35.2182C45.834 35.3358 45.7402 35.4753 45.6758 35.629C45.6113 35.7826 45.5801 35.9472 45.5801 36.1135L45.5801 42.9053L38.7695 42.9053C38.4316 42.9053 38.1074 43.0387 37.8691 43.2761C37.6309 43.5135 37.4961 43.8355 37.4961 44.1715L37.4961 56.1936C37.4961 56.5297 37.6309 56.8517 37.8691 57.0891C38.1074 57.3265 38.4316 57.4599 38.7695 57.4599L45.5801 57.4599L45.5801 64.2564C45.5801 64.5922 45.7129 64.9143 45.9512 65.1518C46.1895 65.3892 46.5117 65.5226 46.8496 65.5226L58.9121 65.5226C59.0781 65.5239 59.2441 65.492 59.4004 65.429C59.5547 65.3659 59.6973 65.2728 59.8164 65.1551C59.9336 65.0374 60.0293 64.8974 60.0938 64.7432C60.1582 64.5889 60.1914 64.4235 60.1914 64.2564L60.1914 57.4599L66.9922 57.4599C67.1582 57.4599 67.3242 57.4271 67.4785 57.3635C67.6328 57.2999 67.7715 57.2066 67.8906 57.089C68.0078 56.9714 68.1016 56.8318 68.166 56.6782C68.2285 56.5246 68.2617 56.3599 68.2617 56.1936L68.2617 44.1763C68.2637 44.0096 68.2305 43.8444 68.166 43.6903C68.1035 43.5361 68.0098 43.3959 67.8926 43.2779C67.7734 43.1598 67.6328 43.0661 67.4785 43.0022C67.3242 42.9382 67.1602 42.9053 66.9922 42.9053ZM65.7227 54.9274L58.9121 54.9274C58.5742 54.9274 58.252 55.0608 58.0137 55.2983C57.7754 55.5357 57.6406 55.8578 57.6406 56.1936L57.6406 62.9854L48.1191 62.9854L48.1191 56.1936C48.1191 55.8578 47.9863 55.5357 47.748 55.2983C47.5098 55.0608 47.1855 54.9274 46.8496 54.9274L40.0488 54.9274L40.0488 45.4378L46.8496 45.4378C47.1855 45.4378 47.5098 45.3044 47.748 45.0669C47.9863 44.8294 48.1191 44.5074 48.1191 44.1715L48.1191 37.3798L57.6406 37.3798L57.6406 44.1763C57.6406 44.5121 57.7754 44.8342 58.0137 45.0716C58.252 45.3091 58.5742 45.4425 58.9121 45.4425L65.7227 45.4425L65.7227 54.9274Z" fill="#FFFFFF" fill-opacity="1.000000" fill-rule="nonzero"/>
</svg>
