<svg width="120.505859" height="65.958618" viewBox="0 0 120.506 65.9586" fill="none" xmlns="http://www.w3.org/2000/svg" xmlns:xlink="http://www.w3.org/1999/xlink">
	<desc>
			Created with Pixso.
	</desc>
	<defs/>
	<path id="Vector" d="M94.8164 64.9586C88 64.9586 82.4727 59.4518 82.4727 52.6589C82.4727 45.8659 88 40.3591 94.8164 40.3591C101.635 40.3591 107.162 45.8659 107.162 52.6589C107.162 59.4518 101.635 64.9586 94.8164 64.9586Z" stroke="#FFFFFF" stroke-opacity="1.000000" stroke-width="2.000000"/>
	<path id="Vector" d="M25.6875 64.9586C18.8711 64.9586 13.3438 59.4518 13.3438 52.6589C13.3438 45.8659 18.8711 40.3591 25.6875 40.3591C32.5059 40.3591 38.0332 45.8659 38.0332 52.6589C38.0332 59.4518 32.5059 64.9586 25.6875 64.9586Z" stroke="#FFFFFF" stroke-opacity="1.000000" stroke-width="2.000000"/>
	<path id="Vector" d="M107.162 52.6589L114.568 52.6589C117.184 52.6589 119.506 50.3441 119.506 47.739L119.506 32.9793C119.506 28.2809 104.693 23.1396 92.3477 20.6796C88.2012 19.8531 77.5352 5.91989 77.5352 5.91989C75.0664 3.45996 72.5977 1 67.6602 1C67.6602 1 47.5859 1 45.4688 1C43.3535 1 40.502 1.80933 40.502 5.66406C40.502 9.5188 40.502 20.6796 40.502 20.6796L8.40625 20.6796C4.25586 20.6796 1 22.6008 1 28.0594L1 48.4967C1 51.1018 3.32227 52.6589 5.9375 52.6589L13.3438 52.6589M38.0332 52.6589L82.4727 52.6589" stroke="#FFFFFF" stroke-opacity="1.000000" stroke-width="2.000000"/>
	<path id="Vector" d="M10.875 20.6796L92.3477 20.6796" stroke="#FFFFFF" stroke-opacity="1.000000" stroke-width="2.000000" stroke-linejoin="round" stroke-linecap="round"/>
	<path id="Vector" d="M57.7852 1L57.7852 20.6796" stroke="#FFFFFF" stroke-opacity="1.000000" stroke-width="2.000000"/>
</svg>
