<svg width="205.000000" height="163.000000" viewBox="0 0 205 163" fill="none" xmlns="http://www.w3.org/2000/svg" xmlns:xlink="http://www.w3.org/1999/xlink">
	<desc>
			Created with Pixso.
	</desc>
	<defs/>
	<path id="Vector" d="M204.121 115.12L193.35 104.324L193.35 99.5724C193.355 97.4068 192.934 95.2616 192.109 93.2607C191.285 91.2597 190.074 89.4428 188.549 87.9149L138.113 37.2046C134.133 33.2304 127.596 33.3188 123.516 37.4165C121.963 38.9673 120.926 40.9636 120.549 43.1305L115.822 38.3969C113.891 36.4583 111.359 35.2529 108.531 35.4692C106.057 35.5246 103.68 36.4431 101.805 38.0672C99.9316 39.6914 98.6777 41.9201 98.2598 44.3713L70.3027 16.2608C64.9629 10.9116 57.8008 7.7981 50.2656 7.54854L43.3613 0.62468C42.9512 0.221603 42.4004 -0.00288391 41.8281 3.05176e-05C41.2539 0.00292969 40.707 0.232986 40.3008 0.640198C39.8965 1.04741 39.668 1.59888 39.6641 2.17474C39.6621 2.75063 39.8848 3.30438 40.2852 3.71568L47.7891 11.2578C47.9902 11.4601 48.2305 11.6205 48.4941 11.7296C48.7578 11.8387 49.041 11.8944 49.3262 11.8936C56.0371 11.9073 62.4727 14.5864 67.2285 19.3474L92.2891 44.5171C89.8633 44.9602 87.6621 46.2325 86.0625 48.1186C84.4609 50.0047 83.5566 52.3888 83.5039 54.8675C83.4707 56.2238 83.7129 57.5727 84.2129 58.8326C84.7129 60.0925 85.4629 61.2373 86.416 62.1976L88.8848 64.6793C86.7051 65.0639 84.6992 66.1208 83.1445 67.7033C81.5898 69.2858 80.5645 71.3155 80.209 73.5108L72.3008 65.5624C71.8926 65.1594 71.3418 64.9349 70.7695 64.9378C70.1953 64.9407 69.6465 65.1707 69.2422 65.578C68.8359 65.9852 68.6074 66.5367 68.6055 67.1125C68.6016 67.6884 68.8262 68.2422 69.2266 68.6534L97.5 97.0731L101.287 100.879C103.57 103.171 103.482 106.991 101.076 109.393C98.668 111.795 94.8867 111.892 92.6055 109.605L60.5371 77.3701C60.1133 77.0512 59.5918 76.8964 59.0645 76.9341C58.5371 76.9718 58.0391 77.1994 57.666 77.5752C57.293 77.951 57.0664 78.4498 57.0293 78.9799C56.9902 79.51 57.1445 80.0359 57.4629 80.4611L85.7344 108.876C86.2754 109.425 86.6992 110.077 86.9844 110.794C87.2676 111.511 87.4043 112.278 87.3867 113.049C87.3457 114.686 86.6777 116.243 85.5195 117.394C83.125 119.801 79.3301 119.894 77.0508 117.602L44.8281 85.2124C44.7246 85.1087 44.6113 85.0156 44.4902 84.9343L43.6543 84.0997C53.5527 67.5407 39.1562 51.5999 39.0078 51.4233C38.8164 51.1999 38.584 51.0175 38.3223 50.8869C38.0586 50.7563 37.7734 50.6803 37.4824 50.6633C37.1895 50.6463 36.8965 50.6888 36.6211 50.7881C36.3457 50.8874 36.0938 51.0416 35.8789 51.2414C35.6641 51.4411 35.4922 51.6824 35.3711 51.9507C35.252 52.2191 35.1875 52.5089 35.1816 52.803C35.1758 53.097 35.2305 53.3892 35.3379 53.662C35.4473 53.9348 35.6113 54.1826 35.8184 54.3906C35.9551 54.5319 48.9258 68.8919 39.0957 83.1371C38.8086 83.559 38.6758 84.0678 38.7207 84.5767C38.7656 85.0856 38.9844 85.563 39.3418 85.9278L55.9824 102.655C56.9277 103.604 57.6797 104.732 58.1934 105.974C58.7051 107.216 58.9688 108.547 58.9688 109.892C58.9688 111.237 58.7051 112.568 58.1934 113.81C57.6797 115.052 56.9277 116.18 55.9824 117.129L55.1035 118.013C55.0371 118.081 54.957 118.135 54.8691 118.172C54.7832 118.209 54.6875 118.229 54.5938 118.229C54.498 118.229 54.4043 118.209 54.3164 118.172C54.2285 118.135 54.1504 118.081 54.084 118.013L22.1289 85.9101C18.7852 82.5617 16.8535 78.0466 16.7344 73.3032L16.3359 57.6759C16.3281 57.3885 16.2637 57.1052 16.1504 56.8414L13.2422 50.2972C13.1328 50.0568 12.9844 49.8361 12.8027 49.6437L3.69727 40.4987C3.28711 40.0957 2.73633 39.8712 2.16406 39.8741C1.58984 39.877 1.04297 40.1071 0.636719 40.5143C0.232422 40.9215 0.00195312 41.4729 0 42.0488C-0.00195312 42.6247 0.220703 43.1785 0.621094 43.5898L9.4375 52.4477L12.0039 58.2279L12.3945 73.418C12.541 79.2795 14.9258 84.8596 19.0547 89.0011L51.0137 121.13C51.9668 122.081 53.2539 122.615 54.5977 122.615C55.9414 122.615 57.2305 122.081 58.1816 121.13L59.0605 120.247C60.4082 118.903 61.4766 117.305 62.207 115.545C62.9375 113.784 63.3145 111.896 63.3184 109.989L73.9883 120.711C74.9238 121.646 76.0332 122.386 77.2539 122.888C78.4746 123.39 79.7812 123.645 81.1016 123.638C83.6797 123.625 86.168 122.675 88.1055 120.962C90.0449 119.25 91.3008 116.891 91.6445 114.321C93.166 115.193 94.8906 115.65 96.6426 115.646L96.8398 115.646C99.334 115.589 101.73 114.657 103.611 113.011C105.494 111.365 106.742 109.108 107.143 106.633L124.965 124.543C123.242 125.97 119.078 127.868 110.287 124.954C101.783 122.132 95.4785 123.453 90.4629 129.14C89.1797 130.597 87.4922 133.71 88.1172 136.316C88.2637 136.959 88.5684 137.556 89.002 138.052C89.4355 138.548 89.9863 138.927 90.6035 139.155L128.355 152.279C133.002 154.117 138.039 154.725 142.984 154.045L152.957 152.663L162.357 162.117C162.547 162.37 162.787 162.579 163.062 162.731C163.34 162.882 163.645 162.972 163.959 162.994C164.273 163.017 164.588 162.971 164.883 162.861C165.178 162.75 165.445 162.577 165.668 162.353C165.891 162.13 166.062 161.861 166.172 161.564C166.283 161.268 166.328 160.951 166.305 160.636C166.283 160.32 166.193 160.013 166.043 159.735C165.893 159.458 165.684 159.216 165.432 159.026L155.271 148.817C155.037 148.574 154.748 148.392 154.43 148.286C154.111 148.179 153.771 148.15 153.439 148.203L142.391 149.731C138.154 150.307 133.842 149.772 129.871 148.176L92.3379 135.3C92.2109 134.859 92.7031 133.181 93.7129 132.024C96.4062 128.972 100.324 126.239 108.93 129.092C119.842 132.721 125.479 129.935 128.039 127.63L137.295 136.93C137.498 137.132 137.738 137.293 138.002 137.402C138.266 137.511 138.547 137.566 138.834 137.565C139.264 137.567 139.684 137.439 140.041 137.2C140.4 136.96 140.68 136.619 140.844 136.22C141.008 135.82 141.051 135.381 140.967 134.957C140.883 134.533 140.676 134.144 140.371 133.839L86.0566 79.2247C83.7812 76.9418 83.8594 73.1266 86.2617 70.7289C88.666 68.3311 92.4395 68.2163 94.7109 70.5169L120.629 96.5697C121.037 96.9728 121.588 97.1973 122.162 97.1944C122.734 97.1914 123.283 96.9614 123.688 96.5542C124.094 96.147 124.322 95.5955 124.324 95.0196C124.328 94.4438 124.105 93.89 123.703 93.4787L106.488 76.1734C106.477 76.1606 106.465 76.1487 106.453 76.1381L89.5 59.0978C88.959 58.5533 88.5352 57.9035 88.252 57.1883C87.9688 56.4731 87.8359 55.7074 87.8574 54.9382C87.9062 53.3144 88.5703 51.7708 89.7129 50.622C90.8555 49.4733 92.3926 48.806 94.0078 48.7562C95.3379 48.7331 96.6348 49.1695 97.6836 49.9926L99.002 51.3173C99.0938 51.4093 99.1934 51.4922 99.3008 51.5646L100.992 53.2646L101.014 53.2867L133.061 85.5215C133.471 85.9261 134.023 86.1527 134.598 86.1527C135.174 86.1527 135.725 85.9261 136.137 85.5215C136.539 85.1088 136.764 84.554 136.764 83.976C136.764 83.3981 136.539 82.8433 136.137 82.4305L104.066 50.1957C101.797 47.9172 101.871 44.102 104.277 41.6998C105.426 40.5387 106.98 39.8761 108.609 39.854C110.238 39.5979 111.662 40.4104 112.748 41.5099L123.291 52.1077L129.688 58.5326L144.543 73.4136C144.953 73.8167 145.504 74.0412 146.076 74.0382C146.65 74.0353 147.199 73.8053 147.604 73.3981C148.008 72.9909 148.238 72.4394 148.24 71.8635C148.244 71.2877 148.02 70.7339 147.619 70.3226L132.789 55.4151L126.393 48.9902C124.121 46.7073 124.195 42.9009 126.604 40.5031C129.01 38.1054 132.783 38.0038 135.051 40.2912L185.473 91.0059C186.594 92.1293 187.48 93.4649 188.084 94.9353C188.688 96.4058 188.994 97.9819 188.988 99.5724L188.988 105.207C188.988 105.788 189.217 106.344 189.625 106.757L201.047 118.238C201.234 118.491 201.477 118.7 201.752 118.852C202.029 119.003 202.334 119.093 202.648 119.115C202.961 119.138 203.277 119.092 203.572 118.981C203.867 118.871 204.135 118.698 204.357 118.474C204.58 118.251 204.752 117.981 204.861 117.685C204.971 117.389 205.018 117.072 204.994 116.756C204.973 116.441 204.883 116.134 204.732 115.856C204.582 115.578 204.373 115.336 204.121 115.147L204.121 115.12Z" fill="#FFFFFF" fill-opacity="1.000000" fill-rule="nonzero"/>
</svg>
