<svg width="90.326172" height="90.962524" viewBox="0 0 90.3262 90.9625" fill="none" xmlns="http://www.w3.org/2000/svg" xmlns:xlink="http://www.w3.org/1999/xlink">
	<desc>
			Created with Pixso.
	</desc>
	<defs/>
	<path id="Vector" d="M89.3418 82.1061L85.5645 82.1061L85.5645 34.7048C85.5625 34.5306 85.5156 34.3597 85.4277 34.2095C85.3379 34.0594 85.2109 33.9355 85.0586 33.8506L47.0352 12.58C48.3945 12.2617 50.457 12.05 52.2168 13.0052C53.832 13.8901 55.6406 14.363 57.4844 14.3818C59.6172 14.3818 61.4824 13.6688 62.4199 12.2845C62.5312 12.1222 62.5898 11.931 62.5898 11.7354L62.5898 1.39178C62.5879 1.18146 62.5215 0.976746 62.3945 0.807678C62.2695 0.638611 62.0938 0.514099 61.8906 0.452515C61.6895 0.390869 61.4727 0.395325 61.2734 0.46521C61.0742 0.535095 60.9023 0.666687 60.7852 0.840759C59.8164 2.27271 56.2734 2.62732 53.1602 0.938049C49.3965 -1.10779 44.9473 0.817871 44.7578 0.901794C44.584 0.979248 44.4375 1.10529 44.334 1.26465C44.2305 1.42407 44.1738 1.60992 44.1758 1.7998L44.1758 12.0805L5.25977 33.8506C5.10742 33.9362 4.98047 34.0604 4.89258 34.2109C4.80469 34.3613 4.75781 34.5324 4.75781 34.7067L4.75781 82.1061L0.980469 82.1061C0.71875 82.1077 0.46875 82.212 0.285156 82.3964C0.101562 82.5808 0 82.8302 0 83.09L0 89.9806C0 90.1096 0.0253906 90.2374 0.0742188 90.3567C0.123047 90.4759 0.197266 90.5843 0.287109 90.6755C0.378906 90.7667 0.488281 90.8391 0.607422 90.8883C0.728516 90.9376 0.855469 90.9628 0.986328 90.9625L89.3418 90.9625C89.4707 90.9628 89.5996 90.9376 89.7188 90.8883C89.8379 90.8391 89.9473 90.7667 90.0391 90.6755C90.1289 90.5843 90.2031 90.4759 90.252 90.3567C90.3008 90.2374 90.3262 90.1096 90.3262 89.9806L90.3262 83.09C90.3262 82.9609 90.3008 82.8329 90.252 82.7136C90.2031 82.5942 90.1309 82.4858 90.0391 82.3944C89.9473 82.303 89.8379 82.2305 89.7188 82.181C89.5996 82.1316 89.4707 82.1061 89.3418 82.1061ZM46.1465 2.48053C47.3086 2.09918 49.9902 1.45093 52.2168 2.67114C55.0879 4.22888 58.4141 4.44434 60.6172 3.42432L60.6172 11.396C59.4551 12.6487 56.1152 12.8851 53.1523 11.2797C51.9434 10.6437 50.5918 10.3218 49.2246 10.3436C48.1836 10.3547 47.1484 10.5015 46.1465 10.7802L46.1465 2.48053ZM6.72656 35.2749L45.1602 13.7831L83.5898 35.2787L83.5898 82.1061L77.8359 82.1061L77.8359 47.7234C77.832 45.5543 76.9668 43.4752 75.4258 41.9414C73.8867 40.4076 71.8008 39.5441 69.623 39.5401L69.4785 39.5401C67.3008 39.5441 65.2148 40.4076 63.6758 41.9414C62.1348 43.4752 61.2695 45.5543 61.2656 47.7234L61.2656 82.1061L53.4434 82.1061L53.4434 47.7234C53.4395 45.5547 52.5742 43.4758 51.0352 41.9421C49.4961 40.4083 47.4102 39.5446 45.2324 39.5401L45.0879 39.5401C42.9102 39.5441 40.8242 40.4076 39.2852 41.9414C37.7461 43.4752 36.8789 45.5543 36.875 47.7234L36.875 82.1061L29.0547 82.1061L29.0547 47.7234C29.0488 45.5547 28.1836 43.4758 26.6445 41.9421C25.1055 40.4083 23.0195 39.5446 20.8418 39.5401L20.6973 39.5401C18.5195 39.5441 16.4336 40.4076 14.8945 41.9414C13.3555 43.4752 12.4883 45.5543 12.4844 47.7234L12.4844 82.1061L6.72852 82.1061L6.72656 35.2749ZM75.8613 82.1023L63.2324 82.1023L63.2324 47.7234C63.2344 46.0744 63.8926 44.4933 65.0625 43.3273C66.2324 42.1613 67.8184 41.5055 69.4746 41.504L69.6191 41.504C71.2734 41.506 72.8613 42.1619 74.0312 43.3279C75.2012 44.494 75.8574 46.0748 75.8594 47.7234L75.8613 82.1023ZM51.4707 82.1023L38.8457 82.1023L38.8457 47.7234C38.8477 46.0744 39.5059 44.4933 40.6758 43.3273C41.8457 42.1613 43.4316 41.5055 45.0879 41.504L45.2324 41.504C46.8887 41.5055 48.4746 42.1613 49.6445 43.3273C50.8164 44.4933 51.4727 46.0744 51.4746 47.7234L51.4707 82.1023ZM27.0801 82.1023L14.4512 82.1023L14.4512 47.7234C14.4531 46.0748 15.1113 44.494 16.2812 43.3279C17.4512 42.1619 19.0371 41.506 20.6914 41.504L20.8359 41.504C22.4922 41.506 24.0781 42.1619 25.248 43.3279C26.418 44.494 27.0762 46.0748 27.0762 47.7234L27.0801 82.1023ZM88.3535 88.9949L1.96484 88.9949L1.96484 84.0719L88.3555 84.0719L88.3535 88.9949Z" fill="#FFFFFF" fill-opacity="1.000000" fill-rule="nonzero"/>
	<path id="Vector" d="M45.1602 35.1586C46.8008 35.1586 48.4023 34.6743 49.7656 33.7667C51.1289 32.8591 52.1914 31.5691 52.8184 30.0599C53.4473 28.5506 53.6113 26.8899 53.291 25.2877C52.9707 23.6854 52.1816 22.2137 51.0215 21.0586C49.8633 19.9034 48.3867 19.1168 46.7773 18.7981C45.1699 18.4794 43.5039 18.643 41.9883 19.2681C40.4746 19.8933 39.1797 20.952 38.2676 22.3102C37.3574 23.6685 36.8711 25.2654 36.8711 26.899C36.873 29.0889 37.748 31.1882 39.3027 32.7367C40.8555 34.2851 42.9629 35.1561 45.1602 35.1586ZM45.1602 20.6052C46.4102 20.6052 47.6309 20.9742 48.6699 21.6655C49.707 22.3569 50.5176 23.3396 50.9941 24.4893C51.4727 25.639 51.5977 26.9041 51.3535 28.1246C51.1113 29.3452 50.5098 30.4662 49.625 31.3462C48.7422 32.2261 47.6172 32.8254 46.3926 33.0682C45.168 33.311 43.8984 33.1863 42.7441 32.7101C41.5898 32.2339 40.6035 31.4274 39.9102 30.3928C39.2168 29.358 38.8457 28.1415 38.8457 26.8971C38.8496 25.2293 39.5156 23.6307 40.6992 22.4514C41.8828 21.272 43.4863 20.6082 45.1602 20.6052Z" fill="#FFFFFF" fill-opacity="1.000000" fill-rule="nonzero"/>
	<path id="Vector" d="M45.1621 27.8811L48.3027 27.8811C48.5645 27.8811 48.8164 27.7776 49 27.5934C49.1855 27.4093 49.2891 27.1595 49.2891 26.8992C49.2891 26.6387 49.1855 26.389 49 26.2048C48.8164 26.0207 48.5645 25.9172 48.3027 25.9172L46.1465 25.9172L46.1465 22.6016C46.1465 22.3411 46.043 22.0914 45.8574 21.9072C45.6738 21.7231 45.4219 21.6196 45.1621 21.6196C44.9004 21.6196 44.6484 21.7231 44.4648 21.9072C44.2793 22.0914 44.1758 22.3411 44.1758 22.6016L44.1758 26.8915C44.1738 27.0212 44.1992 27.1498 44.248 27.27C44.2969 27.3901 44.3691 27.4993 44.4609 27.5914C44.5527 27.6834 44.6621 27.7564 44.7812 27.8062C44.9023 27.8558 45.0312 27.8813 45.1621 27.8811Z" fill="#FFFFFF" fill-opacity="1.000000" fill-rule="nonzero"/>
</svg>
