<svg width="98.978516" height="98.648956" viewBox="0 0 98.9785 98.649" fill="none" xmlns="http://www.w3.org/2000/svg" xmlns:xlink="http://www.w3.org/1999/xlink">
	<desc>
			Created with Pixso.
	</desc>
	<defs/>
	<path id="Vector" d="M14.918 16.444C13.6172 16.444 12.5605 17.4977 12.5605 18.7925C12.5605 20.0874 13.6172 21.1411 14.918 21.1411C16.2168 21.1411 17.2754 20.0874 17.2754 18.7925C17.2754 17.4977 16.2168 16.444 14.918 16.444ZM14.918 19.5754C14.4844 19.5754 14.1328 19.2239 14.1328 18.7925C14.1328 18.3612 14.4844 18.0097 14.918 18.0097C15.3516 18.0097 15.7031 18.3612 15.7031 18.7925C15.7031 19.2239 15.3516 19.5754 14.918 19.5754Z" fill="#FFFFFF" fill-opacity="1.000000" fill-rule="nonzero"/>
	<path id="Vector" d="M84.8457 21.1223C86.1445 21.1223 87.2031 20.0686 87.2031 18.7737C87.2031 17.4789 86.1445 16.4252 84.8457 16.4252C83.5449 16.4252 82.4883 17.4789 82.4883 18.7737C82.4883 20.0686 83.5449 21.1223 84.8457 21.1223ZM84.8457 17.9909C85.2793 17.9909 85.6309 18.3424 85.6309 18.7737C85.6309 19.2051 85.2793 19.5566 84.8457 19.5566C84.4121 19.5566 84.0605 19.2051 84.0605 18.7737C84.0605 18.3424 84.4121 17.9909 84.8457 17.9909Z" fill="#FFFFFF" fill-opacity="1.000000" fill-rule="nonzero"/>
	<path id="Vector" d="M17.2754 79.8362C17.2754 78.5414 16.2168 77.4877 14.918 77.4877C13.6172 77.4877 12.5605 78.5414 12.5605 79.8362C12.5605 81.1311 13.6172 82.1848 14.918 82.1848C16.2168 82.1848 17.2754 81.1311 17.2754 79.8362ZM14.1328 79.8362C14.1328 79.4049 14.4844 79.0534 14.918 79.0534C15.3516 79.0534 15.7031 79.4049 15.7031 79.8362C15.7031 80.2676 15.3516 80.6191 14.918 80.6191C14.4844 80.6191 14.1328 80.2676 14.1328 79.8362Z" fill="#FFFFFF" fill-opacity="1.000000" fill-rule="nonzero"/>
	<path id="Vector" d="M84.0605 77.4877C82.7598 77.4877 81.7031 78.5414 81.7031 79.8362C81.7031 81.1311 82.7598 82.1848 84.0605 82.1848C85.3594 82.1848 86.418 81.1311 86.418 79.8362C86.418 78.5414 85.3594 77.4877 84.0605 77.4877ZM84.0605 80.6191C83.627 80.6191 83.2754 80.2676 83.2754 79.8362C83.2754 79.4049 83.627 79.0534 84.0605 79.0534C84.4941 79.0534 84.8457 79.4049 84.8457 79.8362C84.8457 80.2676 84.4941 80.6191 84.0605 80.6191Z" fill="#FFFFFF" fill-opacity="1.000000" fill-rule="nonzero"/>
	<path id="Vector" d="M65.6016 39.3824L82.9277 23.9054C83.5234 24.1261 84.1641 24.253 84.8359 24.253C84.8516 24.253 84.8652 24.2506 84.8809 24.2506L94.4883 36.5539C95.1172 37.2381 95.9473 37.6006 96.7324 37.6006C97.2148 37.6006 97.6816 37.4636 98.0742 37.1802C98.5215 36.8569 99.8438 35.5636 98.1074 32.505L94.9648 27.0251C94.1133 25.3263 93.2227 23.6549 92.4805 22.9456L90.0391 20.5133C90.2227 19.9684 90.3262 19.3875 90.3262 18.7816C90.3262 15.7653 87.8633 13.311 84.8359 13.311C84.5625 13.311 84.2969 13.3376 84.0352 13.376L74.4062 1.04767C73.3926 -0.0561523 71.8516 -0.325455 70.8203 0.420593C70.375 0.743927 69.0508 2.0372 70.7891 5.09579L73.9277 10.5711C74.7383 12.19 75.6699 13.9428 76.4141 14.6552L79.457 17.6864C79.3828 18.041 79.3457 18.4082 79.3457 18.7832C79.3457 18.8521 79.3535 18.9186 79.3555 18.9859L65.5312 27.3335C64.3379 23.1499 60.8809 19.9066 56.5605 19.029L56.5605 18.7926C56.5605 18.7409 56.5547 18.69 56.5449 18.6391C56.1914 16.8856 54.584 15.6612 52.6309 15.6612L46.3457 15.6612C44.3945 15.6612 42.7852 16.8856 42.4336 18.6391C42.4238 18.69 42.418 18.7409 42.418 18.7926L42.418 19.029C38.1016 19.9058 34.6484 23.1437 33.4512 27.3366L20.3594 19.4314C20.3828 19.2247 20.3984 19.0157 20.3984 18.802C20.3984 18.2039 20.2988 17.6292 20.1191 17.0899L22.5527 14.6662C23.3086 13.9428 24.2402 12.19 25.0469 10.575L28.1914 5.09265C29.9277 2.0372 28.6035 0.743927 28.1562 0.420593C27.127 -0.327011 25.584 -0.0561523 24.5312 1.09543L14.9766 13.3353C14.9551 13.3353 14.9316 13.3322 14.9082 13.3322C11.8809 13.3322 9.41992 15.7864 9.41992 18.8028C9.41992 19.1863 9.46094 19.5598 9.53516 19.9214L6.50977 22.9362C5.75586 23.6564 4.86523 25.3286 4.01367 27.0274L0.869141 32.5097C-0.867188 35.5652 0.457031 36.8584 0.904297 37.1818C1.29297 37.4628 1.75391 37.5998 2.23242 37.5998C3.02734 37.5998 3.87305 37.2248 4.53125 36.5069L14.1289 24.2115C14.3848 24.2475 14.6426 24.2725 14.9082 24.2725C15.377 24.2725 15.8301 24.2076 16.2637 24.0972L33.375 39.3824L34.2109 58.5192L16.2637 74.5504C15.8301 74.44 15.377 74.3751 14.9082 74.3751C14.6426 74.3751 14.3828 74.4001 14.127 74.4369L4.49023 62.0937C3.47656 60.9891 1.93555 60.7213 0.904297 61.4666C0.457031 61.7899 -0.867188 63.0832 0.871094 66.1418L4.01172 71.6202C4.86328 73.319 5.75586 74.9911 6.49805 75.7012L9.53516 78.7277C9.46094 79.0886 9.41992 79.4628 9.41992 79.8464C9.41992 82.8627 11.8828 85.317 14.9082 85.317C14.9316 85.317 14.9531 85.3138 14.9766 85.3138L24.5723 97.6015C25.1992 98.2857 26.0293 98.649 26.8164 98.649C27.2988 98.649 27.7656 98.5119 28.1562 98.2285C28.6035 97.9044 29.9277 96.612 28.1895 93.5533L25.0508 88.0781C24.2402 86.4591 23.3086 84.7064 22.5645 83.994L20.1191 81.5585C20.2988 81.0191 20.3984 80.4445 20.3984 79.8464C20.3984 79.6335 20.3828 79.4244 20.3594 79.217L35.4336 70.114C36.7383 72.6403 39.375 74.3751 42.418 74.3751L56.5605 74.3751C59.6055 74.3751 62.2461 72.6356 63.5488 70.1163L78.5996 79.2052C78.5762 79.4158 78.5586 79.628 78.5586 79.8448C78.5586 80.4484 78.6621 81.0277 78.8438 81.571L76.4258 83.9807C75.668 84.704 74.7383 86.4568 73.9297 88.0718L70.7852 93.5541C69.0488 96.6096 70.373 97.9029 70.8203 98.2262C71.209 98.5072 71.6699 98.6443 72.1484 98.6443C72.9434 98.6443 73.7891 98.2693 74.4453 97.5514L84 85.3123C84.0176 85.3123 84.0332 85.3146 84.0488 85.3146C87.0762 85.3146 89.5391 82.8604 89.5391 79.8441C89.5391 79.2444 89.4395 78.6682 89.2598 78.1281L91.6738 75.7216C92.4277 75.0013 93.3203 73.3292 94.1699 71.6304L97.3145 66.148C99.0508 63.0926 97.7266 61.7993 97.2793 61.476C96.248 60.7284 94.707 60.9992 93.6543 62.1508L84.1094 74.3774C84.0898 74.3774 84.0703 74.3743 84.0488 74.3743C83.5879 74.3743 83.1387 74.4377 82.709 74.5457L64.7676 58.52L65.6016 39.3824ZM91.3809 24.0651C92.041 24.6976 93.1445 26.8974 93.5586 27.7257C93.5645 27.739 93.5918 27.7907 93.5996 27.8032L96.7402 33.2808C97.5547 34.715 97.5332 35.6372 97.1504 35.9151C96.8223 36.1515 96.1426 36.038 95.6875 35.5464L86.6328 23.9469C87.707 23.5742 88.6289 22.8799 89.2832 21.9772L91.3809 24.0651ZM88.7539 18.7832C88.7539 20.936 86.9961 22.688 84.8359 22.688C82.6758 22.688 80.918 20.9368 80.918 18.7832C80.918 16.6295 82.6738 14.8783 84.834 14.8783C86.9961 14.8783 88.7539 16.6295 88.7539 18.7832ZM77.5137 13.5365C76.8516 12.9032 75.748 10.701 75.334 9.87198C75.3262 9.85867 75.3027 9.81171 75.2949 9.79916L72.1543 4.32156C71.3379 2.88736 71.3613 1.96518 71.7441 1.68726C72.0664 1.45084 72.75 1.56277 73.207 2.05597L82.4297 13.8723C81.4375 14.3569 80.6133 15.1281 80.0664 16.0808L77.5137 13.5365ZM79.6719 20.6252C80.0293 21.6124 80.6602 22.4673 81.4746 23.0998L65.6973 37.1935L65.9883 30.5353C65.9883 29.9999 65.9395 29.4769 65.8691 28.9602L79.6719 20.6252ZM46.3457 17.2269L52.6309 17.2269C53.6074 17.2269 54.6855 17.7263 54.9727 18.8317C54.7168 18.8145 54.4629 18.7926 54.2031 18.7926L44.7754 18.7926C44.5137 18.7926 44.2598 18.8145 44.0039 18.8317C44.291 17.7263 45.3711 17.2269 46.3457 17.2269ZM25.7305 2.10373C26.2266 1.56357 26.9082 1.45163 27.2324 1.68726C27.6172 1.96439 27.6387 2.88736 26.8262 4.31842L23.6836 9.7984C23.6738 9.81091 23.6504 9.85788 23.6445 9.87119C23.2285 10.7002 22.125 12.9032 21.4512 13.5475L19.3691 15.6236C18.7168 14.7186 17.7969 14.0211 16.7246 13.6453L25.7305 2.10373ZM3.33008 35.4978C2.83398 36.038 2.15234 36.15 1.82812 35.9143C1.44531 35.6372 1.42188 34.7142 2.23633 33.2832L5.37891 27.8032C5.38672 27.7907 5.41211 27.739 5.41797 27.7257C5.83398 26.8974 6.93555 24.6976 7.60938 24.0541L10.1523 21.5208C10.7012 22.4712 11.5273 23.24 12.5215 23.7206L3.33008 35.4978ZM10.9902 18.802C10.9902 16.6491 12.748 14.8971 14.9082 14.8971C17.0703 14.8971 18.8262 16.6483 18.8262 18.802C18.8262 20.9556 17.0703 22.7068 14.9082 22.7068C12.748 22.7068 10.9902 20.9556 10.9902 18.802ZM17.8516 23.4122C18.7617 22.8329 19.4902 21.9968 19.9316 21.0034L33.1113 28.9634C33.0391 29.4902 32.9883 30.0233 32.9902 30.5698L33.2793 37.1935L17.8516 23.4122ZM7.59766 74.5825C6.93555 73.9492 5.83398 71.7486 5.41797 70.9203C5.41211 70.907 5.38672 70.8569 5.37891 70.8444L2.23633 65.3668C1.42188 63.9326 1.44531 63.0104 1.82812 62.7325C2.15039 62.4976 2.83398 62.6088 3.28906 63.102L12.5195 74.927C11.5273 75.4084 10.6992 76.1764 10.1504 77.1268L7.59766 74.5825ZM10.9902 79.8456C10.9902 77.6928 12.748 75.9408 14.9082 75.9408C17.0703 75.9408 18.8262 77.692 18.8262 79.8456C18.8262 81.9992 17.0703 83.7505 14.9082 83.7505C12.748 83.7505 10.9902 81.9985 10.9902 79.8456ZM21.4629 85.1111C22.127 85.7444 23.2285 87.9466 23.6445 88.7756C23.6504 88.7889 23.6738 88.8359 23.6836 88.8484L26.8242 94.326C27.6387 95.7602 27.6172 96.6824 27.2324 96.9603C26.9082 97.1944 26.2266 97.084 25.7715 96.5916L16.7246 85.0023C17.7969 84.6257 18.7188 83.929 19.3691 83.024L21.4629 85.1111ZM19.9316 77.6443C19.4902 76.6508 18.7617 75.8147 17.8516 75.2354L34.2988 60.5436L34.5605 66.5465C34.5605 67.2699 34.668 67.9682 34.8535 68.6336L19.9316 77.6443ZM43.375 72.8094L43.9648 69.8682C44.2207 68.8505 45.2207 68.1122 46.3457 68.1122L52.6309 68.1122C53.7559 68.1122 54.7559 68.8505 55.0039 69.8314L55.6016 72.8094L43.375 72.8094ZM57.1973 72.7773L56.5352 69.4877C56.1094 67.7834 54.4668 66.5465 52.6309 66.5465L46.3457 66.5465C44.5117 66.5465 42.8691 67.7834 42.4336 69.5245L41.7812 72.7773C38.6133 72.4579 36.1328 69.7836 36.1328 66.5129L34.9297 38.9776L34.9297 38.9745L34.5605 30.5353C34.5605 29.8997 34.627 29.2789 34.7402 28.6753L34.7402 28.6737C35.6211 23.9492 39.7812 20.3583 44.7754 20.3583L54.2031 20.3583C59.1973 20.3583 63.3574 23.9508 64.2383 28.6526C64.2402 28.6674 64.2422 28.6808 64.2441 28.6956C64.3516 29.2828 64.416 29.8848 64.416 30.5017L62.8457 66.5465C62.8457 69.7852 60.3652 72.4579 57.1973 72.7773ZM73.248 96.5439C72.75 97.084 72.0664 97.1952 71.7441 96.9603C71.3613 96.6832 71.3379 95.7602 72.1523 94.3292L75.2949 88.8492C75.3027 88.8367 75.3262 88.7897 75.334 88.7764C75.748 87.9474 76.8516 85.7444 77.5254 85.1001L79.5977 83.0349C80.252 83.9391 81.1738 84.6343 82.25 85.0078L73.248 96.5439ZM84.0488 83.7505C81.8887 83.7505 80.1309 81.9992 80.1309 79.8456C80.1309 77.692 81.8887 75.9408 84.0488 75.9408C86.2109 75.9408 87.9688 77.692 87.9688 79.8456C87.9688 81.9992 86.2109 83.7505 84.0488 83.7505ZM94.8516 63.1607C95.3496 62.6198 96.0312 62.5086 96.3555 62.7442C96.7383 63.0214 96.7617 63.9443 95.9473 65.3754L92.8047 70.8553C92.7969 70.8679 92.7715 70.9195 92.7656 70.9328C92.3496 71.7611 91.2461 73.9609 90.5742 74.6044L88.5078 76.6641C87.8535 75.7584 86.9316 75.0616 85.8574 74.6859L94.8516 63.1607ZM81.1172 75.2284C80.2051 75.8061 79.4746 76.6422 79.0312 77.6356L64.1289 68.636C64.3105 67.9792 64.416 67.2926 64.416 66.581L64.6797 60.5444L81.1172 75.2284Z" fill="#FFFFFF" fill-opacity="1.000000" fill-rule="nonzero"/>
	<path id="Vector" d="M56.5586 25.8383L42.416 25.8383C40.25 25.8383 38.4883 27.5942 38.4883 29.7525L38.4883 36.0154C38.4883 38.1737 40.25 39.9296 42.416 39.9296L56.5586 39.9296C58.7246 39.9296 60.4883 38.1737 60.4883 36.0154L60.4883 29.7525C60.4883 27.5942 58.7246 25.8383 56.5586 25.8383ZM58.916 36.0154C58.916 37.3102 57.8594 38.3639 56.5586 38.3639L42.416 38.3639C41.1172 38.3639 40.0605 37.3102 40.0605 36.0154L40.0605 29.7525C40.0605 28.4577 41.1172 27.404 42.416 27.404L56.5586 27.404C57.8594 27.404 58.916 28.4577 58.916 29.7525L58.916 36.0154Z" fill="#FFFFFF" fill-opacity="1.000000" fill-rule="nonzero"/>
</svg>
