<svg width="25.998047" height="26.782227" viewBox="0 0 25.998 26.7822" fill="none" xmlns="http://www.w3.org/2000/svg" xmlns:xlink="http://www.w3.org/1999/xlink">
	<desc>
			Created with Pixso.
	</desc>
	<defs/>
	<path id="Vector" d="M13 0C9.46875 0 9.02539 0.015625 7.63867 0.0810547C6.25586 0.145508 5.31055 0.37207 4.48438 0.703125C3.62891 1.04492 2.9043 1.50293 2.18164 2.24805C1.45898 2.99219 1.01367 3.73926 0.681641 4.61914C0.361328 5.47168 0.140625 6.44434 0.078125 7.87012C0.015625 9.29785 0 9.75391 0 13.3916C0 17.0283 0.015625 17.4844 0.078125 18.9121C0.140625 20.3379 0.361328 21.3115 0.681641 22.1631C1.01367 23.0439 1.45898 23.79 2.18164 24.5352C2.9043 25.2793 3.62891 25.7373 4.48438 26.0791C5.31055 26.4102 6.25586 26.6367 7.63867 26.7021C9.02539 26.7666 9.46875 26.7822 13 26.7822C16.5293 26.7822 16.9727 26.7666 18.3594 26.7021C19.7422 26.6367 20.6875 26.4102 21.5137 26.0791C22.3691 25.7373 23.0938 25.2793 23.8164 24.5352C24.5391 23.79 24.9844 23.0439 25.3164 22.1631C25.6367 21.3115 25.8574 20.3379 25.9199 18.9121C25.9824 17.4844 25.998 17.0283 25.998 13.3916C25.998 9.75391 25.9824 9.29785 25.9199 7.87012C25.8574 6.44434 25.6367 5.47168 25.3164 4.61914C24.9844 3.73926 24.5391 2.99219 23.8164 2.24805C23.0938 1.50293 22.3691 1.04492 21.5137 0.703125C20.6875 0.37207 19.7422 0.145508 18.3594 0.0810547C16.9727 0.015625 16.5293 0 13 0ZM13 2.41309C16.4707 2.41309 16.8809 2.42676 18.252 2.49121C19.5195 2.55078 20.207 2.76855 20.666 2.95215C21.2715 3.19531 21.7051 3.48535 22.1602 3.9541C22.6152 4.42188 22.8965 4.86816 23.1328 5.49316C23.3105 5.96484 23.5215 6.6748 23.5801 7.98047C23.6426 9.3916 23.6562 9.81543 23.6562 13.3916C23.6562 16.9668 23.6426 17.3906 23.5801 18.8027C23.5215 20.1084 23.3105 20.8174 23.1328 21.2891C22.8965 21.9141 22.6152 22.3604 22.1602 22.8281C21.7051 23.2969 21.2715 23.5879 20.666 23.8301C20.207 24.0137 19.5195 24.2314 18.252 24.291C16.8809 24.3555 16.4707 24.3691 13 24.3691C9.52734 24.3691 9.11719 24.3555 7.74609 24.291C6.47852 24.2314 5.79102 24.0137 5.33203 23.8301C4.72656 23.5879 4.29297 23.2969 3.83789 22.8281C3.38281 22.3604 3.10156 21.9141 2.86523 21.2891C2.6875 20.8174 2.47656 20.1084 2.41797 18.8027C2.35547 17.3906 2.3418 16.9668 2.3418 13.3916C2.3418 9.81543 2.35547 9.3916 2.41797 7.98047C2.47656 6.6748 2.6875 5.96484 2.86523 5.49316C3.10156 4.86816 3.38281 4.42188 3.83789 3.9541C4.29297 3.48535 4.72656 3.19531 5.33203 2.95215C5.79102 2.76855 6.47852 2.55078 7.74609 2.49121C9.11719 2.42676 9.52734 2.41309 13 2.41309Z" fill="#FFFFFF" fill-opacity="1.000000" fill-rule="nonzero"/>
	<path id="Vector" d="M13 17.8545C10.6055 17.8545 8.66602 15.8564 8.66602 13.3916C8.66602 10.9258 10.6055 8.92773 13 8.92773C15.3926 8.92773 17.332 10.9258 17.332 13.3916C17.332 15.8564 15.3926 17.8545 13 17.8545ZM13 6.51465C9.3125 6.51465 6.32422 9.59375 6.32422 13.3916C6.32422 17.1895 9.3125 20.2676 13 20.2676C16.6855 20.2676 19.6738 17.1895 19.6738 13.3916C19.6738 9.59375 16.6855 6.51465 13 6.51465Z" fill="#FFFFFF" fill-opacity="1.000000" fill-rule="nonzero"/>
	<path id="Vector" d="M21.498 6.24219C21.498 7.12988 20.8008 7.84961 19.9395 7.84961C19.0781 7.84961 18.3789 7.12988 18.3789 6.24219C18.3789 5.35547 19.0781 4.63574 19.9395 4.63574C20.8008 4.63574 21.498 5.35547 21.498 6.24219Z" fill="#FFFFFF" fill-opacity="1.000000" fill-rule="nonzero"/>
</svg>
