<svg width="178" height="48" viewBox="0 0 178 48" fill="none" xmlns="http://www.w3.org/2000/svg">
<g clip-path="url(#clip0_167_1219)">
<path fill-rule="evenodd" clip-rule="evenodd" d="M22.1226 13.2119C21.2926 13.2119 20.6337 13.8905 20.4879 14.7076C19.7816 18.6661 16.322 21.6712 12.1604 21.6712C7.4885 21.6712 3.70115 17.8838 3.70115 13.2119C3.70115 8.53995 7.4885 4.7526 12.1604 4.7526C14.1905 4.7526 16.0535 5.46767 17.5113 6.65967C17.5179 6.66499 17.5276 6.66036 17.5276 6.65195C17.5276 6.64645 17.5321 6.64199 17.5376 6.64199H18.9072C20.0234 6.64199 20.6337 5.40849 19.8017 4.66425C17.7736 2.84991 15.0958 1.74677 12.1604 1.74677C5.82842 1.74677 0.695312 6.87987 0.695312 13.2119C0.695312 19.5439 5.82842 24.677 12.1604 24.677C17.9842 24.677 22.7938 20.3348 23.5284 14.7114C23.6359 13.8883 22.9527 13.2119 22.1226 13.2119Z" fill="black"/>
<path d="M11.3867 14.7578H21.7354" stroke="black" stroke-width="3.00584" stroke-linecap="round"/>
<path d="M57.0762 2.86322L77.8342 2.82028" stroke="black" stroke-width="3.00584" stroke-linecap="round"/>
<path d="M67.4688 23.5176V2.82025" stroke="black" stroke-width="3.00584" stroke-linecap="round"/>
<path d="M88.6797 23.1741V2.47675" stroke="black" stroke-width="3.00584" stroke-linecap="round"/>
<path d="M109.377 23.1741V2.47675" stroke="black" stroke-width="3.00584" stroke-linecap="round"/>
<path d="M88.6797 13.2119H109.377" stroke="black" stroke-width="3.00584" stroke-linecap="round"/>
<path d="M123.334 2.47675H144.031" stroke="black" stroke-width="3.00584" stroke-linecap="round"/>
<path d="M123.334 12.6967H144.031" stroke="black" stroke-width="3.00584" stroke-linecap="round"/>
<path d="M123.119 22.9164H143.816" stroke="black" stroke-width="3.00584" stroke-linecap="round"/>
<path d="M51.3652 23.4747L40.4154 2.82028" stroke="black" stroke-width="3.00584" stroke-linecap="round"/>
<path d="M30.582 23.4747L40.3988 2.82029" stroke="black" stroke-width="3.00584" stroke-linecap="round"/>
<path d="M155.238 23.1836V2.48627" stroke="black" stroke-width="3.00584" stroke-linecap="round"/>
<path d="M168.291 10.8931L175.908 23.1632" stroke="black" stroke-width="3.00584" stroke-linecap="round"/>
<path fill-rule="evenodd" clip-rule="evenodd" d="M154.895 11.274C155.279 11.3681 155.681 11.4179 156.095 11.4179H171.494C174.365 11.4179 176.693 9.09052 176.693 6.21951C176.693 3.35055 174.373 1.02402 171.504 1.02182C165.17 1.01697 155.263 1.01175 155.029 1.02632C154.984 1.02916 154.939 1.03517 154.895 1.04335V4.14337C155.098 4.10413 155.272 4.05525 155.372 4.02624L155.653 4.02591H155.653C156.484 4.02491 158.439 4.02255 160.979 4.02262C164.275 4.02271 168.335 4.02523 171.502 4.02765C172.708 4.02858 173.687 5.00605 173.687 6.21951C173.687 7.43044 172.705 8.41209 171.494 8.41209H156.095C155.646 8.41209 155.231 8.26643 154.895 8.01977V11.274Z" fill="black"/>
<g clip-path="url(#clip1_167_1219)">
<rect x="0.695312" y="31.3112" width="16.5901" height="1.87777" rx="0.281666" fill="#FAC151"/>
<rect x="0.695312" y="46.8591" width="10.9568" height="1.87777" rx="0.281666" transform="rotate(-90 0.695312 46.8591)" fill="#FAC151"/>
<rect x="38.4199" y="46.8498" width="9.88648" height="1.87777" rx="0.281666" transform="rotate(-90 38.4199 46.8498)" fill="#FAC151"/>
<rect x="103.137" y="46.8591" width="9.88648" height="1.87777" rx="0.281666" transform="rotate(-90 103.137 46.8591)" fill="#FAC151"/>
<rect x="84.3594" y="46.8498" width="15.5386" height="1.87778" rx="0.281666" transform="rotate(-90 84.3594 46.8498)" fill="#FAC151"/>
<rect x="161.17" y="31.3112" width="15.5386" height="1.87778" rx="0.281666" fill="#FAC151"/>
<rect x="161.17" y="37.8928" width="15.5386" height="1.87778" rx="0.281666" fill="#FAC151"/>
<rect x="161.17" y="44.9814" width="15.5386" height="1.87778" rx="0.281666" fill="#FAC151"/>
<rect x="138.74" y="46.6057" width="15.5386" height="1.87778" rx="0.281666" transform="rotate(-90 138.74 46.6057)" fill="#FAC151"/>
<rect x="20.2562" y="45.8593" width="13.5575" height="14.6091" rx="2.76502" transform="rotate(-90 20.2562 45.8593)" stroke="#FAC151" stroke-width="1.98105"/>
<rect x="0.695312" y="35.9023" width="16.5901" height="1.87777" rx="0.281666" fill="#FAC151"/>
<path fill-rule="evenodd" clip-rule="evenodd" d="M38.4199 37.7802L52.1937 37.7802C53.7493 37.7802 55.0104 36.5191 55.0104 34.9635V34.1279C55.0104 32.5723 53.7493 31.3112 52.1937 31.3112L38.4199 31.3112V33.2923L52.1937 33.2923C52.6552 33.2923 53.0293 33.6664 53.0293 34.1279V34.9635C53.0293 35.425 52.6552 35.7991 52.1937 35.7991L38.4199 35.7991V37.7802Z" fill="#FAC151"/>
<path fill-rule="evenodd" clip-rule="evenodd" d="M103.137 37.7895L116.911 37.7895C118.466 37.7895 119.727 36.5284 119.727 34.9728V34.1372C119.727 32.5816 118.466 31.3206 116.911 31.3206L103.137 31.3206V33.3016L116.911 33.3016C117.372 33.3016 117.746 33.6757 117.746 34.1372V34.9728C117.746 35.4343 117.372 35.8084 116.911 35.8084L103.137 35.8084V37.7895Z" fill="#FAC151"/>
<path fill-rule="evenodd" clip-rule="evenodd" d="M46.9785 38.8317L52.6527 46.7348C52.7056 46.8085 52.7908 46.8522 52.8815 46.8522L54.659 46.8522C54.8899 46.8522 55.0227 46.5897 54.886 46.4037L49.3197 38.8317H46.9785Z" fill="#FAC151"/>
<path fill-rule="evenodd" clip-rule="evenodd" d="M111.695 38.841L117.37 46.7442C117.422 46.8179 117.508 46.8616 117.598 46.8616H119.376C119.607 46.8616 119.74 46.5991 119.603 46.4131L114.036 38.841H111.695Z" fill="#FAC151"/>
<path fill-rule="evenodd" clip-rule="evenodd" d="M65.6409 31.3112C65.6394 31.3549 65.6387 31.3987 65.6387 31.4427L65.6387 43.1037C65.6387 45.1778 67.3201 46.8592 69.3942 46.8592L78.4733 46.8592C80.5474 46.8592 82.2288 45.1778 82.2288 43.1037V31.4427C82.2288 31.3987 82.2281 31.3549 82.2265 31.3112H80.243C80.2461 31.3546 80.2478 31.3985 80.2478 31.4427L80.2478 43.1037C80.2478 44.0837 79.4533 44.8782 78.4733 44.8782H69.3942C68.4142 44.8782 67.6197 44.0837 67.6197 43.1037L67.6197 31.4427C67.6197 31.3985 67.6213 31.3546 67.6245 31.3112H65.6409Z" fill="#FAC151"/>
<path fill-rule="evenodd" clip-rule="evenodd" d="M85.1425 45.832C85.0378 45.9457 85.0482 46.118 85.1659 46.2183L85.9067 46.8498H86.751L100.897 31.7702C101.063 31.5929 100.933 31.3127 100.684 31.3125L98.6521 31.3112C98.5688 31.3112 98.4894 31.3455 98.4343 31.4053L85.1425 45.832Z" fill="#FAC151"/>
<rect x="142.598" y="46.7934" width="15.5386" height="1.87778" rx="0.281666" transform="rotate(-90 142.598 46.7934)" fill="#FAC151"/>
<rect x="157.311" y="46.7934" width="15.5386" height="1.87778" rx="0.281666" transform="rotate(-90 157.311 46.7934)" fill="#FAC151"/>
<path fill-rule="evenodd" clip-rule="evenodd" d="M158.868 45.694C159.001 45.8264 158.964 46.0419 158.795 46.1266L157.715 46.6684C157.601 46.7257 157.46 46.7031 157.371 46.6133L142.871 32.0042C142.716 31.8483 142.798 31.5918 143.018 31.5469L144.285 31.2873C144.383 31.2671 144.485 31.2973 144.555 31.367L158.868 45.694Z" fill="#FAC151"/>
<path fill-rule="evenodd" clip-rule="evenodd" d="M93.996 40.412L98.5356 46.7349C98.5885 46.8086 98.6737 46.8523 98.7644 46.8523L100.726 46.8523C100.957 46.8523 101.09 46.5898 100.953 46.4038L95.467 38.9409L93.996 40.412ZM93.0625 38.2358H92.4336L92.6964 38.6019L93.0625 38.2358Z" fill="#FAC151"/>
<path d="M121.19 46.7271C120.987 46.7271 120.85 46.5172 120.933 46.3309L127.501 31.5723C127.546 31.4706 127.647 31.4051 127.758 31.4051L129.254 31.4051C129.456 31.4051 129.592 31.6103 129.514 31.796L123.308 46.5546C123.264 46.6591 123.162 46.7271 123.048 46.7271L121.19 46.7271Z" fill="#FAC151"/>
<path d="M137.088 46.7372C137.298 46.7372 137.434 46.5162 137.34 46.3289L129.859 31.4663C129.811 31.3712 129.714 31.3112 129.607 31.3112L127.784 31.3112C127.572 31.3112 127.436 31.5365 127.534 31.7241L135.358 46.5867C135.407 46.6792 135.503 46.7372 135.608 46.7372L137.088 46.7372Z" fill="#FAC151"/>
<path fill-rule="evenodd" clip-rule="evenodd" d="M132.254 44.9156H121.952C121.849 44.9156 121.754 44.9721 121.704 45.0628L120.99 46.3772C120.888 46.5649 121.024 46.7934 121.237 46.7934H133.266L132.254 44.9156Z" fill="#FAC151"/>
</g>
</g>
<defs>
<clipPath id="clip0_167_1219">
<rect width="178" height="48" fill="white"/>
</clipPath>
<clipPath id="clip1_167_1219">
<rect width="176.013" height="17.6121" fill="white" transform="translate(0.695312 30.2164)"/>
</clipPath>
</defs>
</svg>
