<svg width="35.000000" height="26.784180" viewBox="0 0 35 26.7842" fill="none" xmlns="http://www.w3.org/2000/svg" xmlns:xlink="http://www.w3.org/1999/xlink">
	<desc>
			Created with Pixso.
	</desc>
	<defs/>
	<path id="Vector" d="M24.0059 3.56934C24.7324 3.57959 25.4492 3.73877 26.1152 4.0376C26.7793 4.33643 27.3789 4.7688 27.877 5.30884C27.877 5.30884 29.9883 4.88599 31.1543 4.04858C31.1543 4.04858 30.8613 5.7063 28.918 6.9751L28.9355 6.9751C29.084 6.9751 30.1738 6.94702 31.8867 6.12939C31.8867 6.12939 31.5586 7.08496 29.3164 8.90356C29.4512 13.2061 27.3652 21.1594 19.6406 23.99C17.9453 24.6228 16.1543 24.9502 14.3477 24.957C11.4531 24.9705 8.61914 24.1208 6.19141 22.5127C6.60742 22.5549 6.98047 22.5549 7.35352 22.5549C11.9199 22.5549 14.1309 20.1641 14.0098 20.1641L13.8418 20.1641C9.9707 20.1641 9.0293 16.3862 9.0293 16.3862C9.33789 16.5774 9.69727 16.6677 10.0605 16.6455C10.5273 16.6357 10.9922 16.5664 11.4414 16.4397C7.07422 15.3853 7.23633 11.1111 7.23633 11.1111C7.82812 11.5129 8.51758 11.7339 9.22852 11.7483C9.34375 11.7498 9.46094 11.7402 9.57617 11.7202C5.58594 8.50049 7.98828 4.65771 7.98828 4.65771C12.4844 9.97778 18.0098 10.1667 18.7695 10.1667L18.8613 10.1667C18.4531 7.6687 19.4609 5.26929 22.1797 3.96411C22.7461 3.69849 23.3633 3.56372 23.9863 3.56934M33.6973 0L30.123 2.56006C29.5781 2.8938 28.9883 3.14526 28.3711 3.30713C27.1191 2.31079 25.582 1.76196 23.9941 1.74512C23.1074 1.73682 22.2305 1.92944 21.4238 2.30908C18.8867 3.52417 17.3438 5.62183 17.0371 8.1394C14.0332 7.50757 11.3262 5.85938 9.35547 3.46216L7.7793 1.59863L6.48047 3.66528C5.64258 5.07251 5.31055 6.73267 5.53906 8.3623L5.4375 11.0491C5.41406 12.7546 5.9707 14.416 7.00977 15.7517L7.28711 16.8513C7.68359 18.2712 8.48828 19.5374 9.59766 20.4856C8.85938 20.6501 8.10547 20.7314 7.34961 20.728C7.02148 20.728 6.68164 20.7139 6.33789 20.6858L0 20.1472L5.12891 23.99C7.86523 25.8264 11.0723 26.7983 14.3477 26.7839C16.3633 26.7786 18.3633 26.416 20.2578 25.7126C24.0586 24.3293 27.1934 21.5134 29.0215 17.8438C30.2852 15.3379 30.998 12.5818 31.1133 9.76636C32.9453 8.15649 33.4492 7.13013 33.584 6.73828L35 2.63037L33.0645 3.54956L33.6973 0Z" fill="#2B2B2B" fill-opacity="1.000000" fill-rule="nonzero"/>
	<path id="Vector" d="M30.123 2.56006C29.5781 2.8938 28.9883 3.14526 28.3711 3.30713C27.1191 2.31079 25.582 1.76196 23.9941 1.74512C23.1074 1.73682 22.2305 1.92944 21.4238 2.30908C19.2246 3.3623 17.7715 5.07886 17.2246 7.15723C17.1406 7.47632 17.0781 7.8042 17.0371 8.1394C16.707 8.07031 16.3809 7.98877 16.0605 7.89526C13.4473 7.13721 11.1094 5.59668 9.35547 3.46216L8.45703 2.3999L7.7793 1.59863L7.2207 2.48682L6.48047 3.66528C5.64258 5.07251 5.31055 6.73267 5.53906 8.3623L5.4375 11.0491C5.41406 12.7546 5.9707 14.416 7.00977 15.7517L7.28711 16.8513C7.57422 17.8779 8.07422 18.8237 8.74805 19.6274C9.00586 19.9355 9.29102 20.2227 9.59766 20.4856C9.18555 20.5776 8.76953 20.6436 8.34961 20.6831C8.01758 20.7146 7.68359 20.7295 7.34961 20.728C7.02148 20.728 6.68164 20.7139 6.33789 20.6858L1.88086 20.3069L0 20.1472L1.50977 21.2791L5.12891 23.99C7.86523 25.8264 11.0723 26.7983 14.3477 26.7839C16.3633 26.7786 18.3633 26.416 20.2578 25.7126C24.0586 24.3293 27.1934 21.5134 29.0215 17.8438C30.2852 15.3379 30.998 12.5818 31.1133 9.76636C32.9453 8.15649 33.4492 7.13013 33.584 6.73828L34.543 3.9541L35 2.63037L34.1738 3.02246L33.7344 3.2312L33.0645 3.54956L33.2812 2.34009L33.4473 1.41016L33.6973 0L32.5332 0.833984L30.123 2.56006ZM24.0176 2.74561Q24.0059 2.74536 23.9941 2.74536L23.9863 3.56934C23.3633 3.56372 22.7461 3.69849 22.1797 3.96411C19.8262 5.09375 18.7539 7.04321 18.7734 9.16675C18.7773 9.49658 18.8066 9.83081 18.8613 10.1667L18.7695 10.1667C18.623 10.1667 18.3008 10.1597 17.8418 10.1104C16.041 9.9165 12.1562 9.07056 8.68945 5.4375C8.45312 5.19067 8.2207 4.93091 7.98828 4.65771C7.98828 4.65771 7.74805 5.0437 7.54492 5.67358C7.17969 6.80688 6.94141 8.72974 8.45703 10.6135C8.75781 10.9861 9.12695 11.3572 9.57617 11.7202C9.46094 11.7402 9.34375 11.7498 9.22852 11.7483C8.88867 11.7415 8.55664 11.6877 8.23438 11.5898C8.10156 11.5491 7.9707 11.5005 7.8418 11.4446C7.63086 11.353 7.42969 11.2417 7.23633 11.1111C7.23633 11.1111 7.2168 11.6218 7.37305 12.3335C7.55273 13.1624 7.96875 14.2639 8.92773 15.1499C9.5293 15.7043 10.3418 16.1741 11.4414 16.4397C11.0195 16.5586 10.584 16.627 10.1465 16.6431C10.1172 16.644 10.0879 16.645 10.0605 16.6455C9.69727 16.6677 9.33789 16.5774 9.0293 16.3862C9.0293 16.3862 9.04102 16.4392 9.07227 16.533C9.13867 16.7415 9.28711 17.1509 9.55469 17.6223C10.0684 18.5298 11.0234 19.6665 12.6777 20.0393C12.7871 20.0642 12.9004 20.0854 13.0156 20.1033C13.2754 20.1428 13.5508 20.1641 13.8418 20.1641L14.0098 20.1641C14.0527 20.1641 13.8086 20.459 13.2734 20.8416C13.1543 20.9275 13.0195 21.0178 12.8711 21.1104C11.9141 21.7034 10.3594 22.3821 8.20117 22.5269C7.92773 22.5452 7.64453 22.5549 7.35352 22.5549C6.98047 22.5549 6.60742 22.5549 6.19141 22.5127C6.77539 22.8994 7.38281 23.2424 8.00977 23.54C9.98633 24.4797 12.1504 24.9673 14.3477 24.957C16.1543 24.9502 17.9453 24.6228 19.6406 23.99C27.3652 21.1594 29.4512 13.2061 29.3164 8.90356C29.8887 8.43872 30.3379 8.03027 30.6875 7.67969C31.7051 6.65894 31.8867 6.12939 31.8867 6.12939C31.5723 6.27905 31.2793 6.40234 31.0098 6.50391C30.7227 6.61182 30.4609 6.69507 30.2285 6.75903C29.4844 6.96411 29.0273 6.9751 28.9355 6.9751L28.918 6.9751C29.5449 6.56641 30 6.11719 30.3281 5.69629C30.3535 5.66284 30.3789 5.62964 30.4043 5.59644C31.0293 4.75391 31.1543 4.04858 31.1543 4.04858C30.7812 4.31689 30.3105 4.54272 29.8418 4.72583C28.8516 5.11353 27.877 5.30884 27.877 5.30884C27.3789 4.7688 26.7793 4.33643 26.1152 4.0376C25.4492 3.73877 24.7324 3.57959 24.0059 3.56934L24.0176 2.74561ZM5.70312 23.1709L6.23633 21.6807L3.39062 21.439L5.70312 23.1709ZM6.50195 9.40039L6.64844 9.50146Q6.57422 9.30176 6.51172 9.0979L6.50195 9.40039Z" fill="#2B2B2B" fill-opacity="1.000000" fill-rule="evenodd"/>
</svg>
