<svg width="25.998047" height="26.782227" viewBox="0 0 25.998 26.7822" fill="none" xmlns="http://www.w3.org/2000/svg" xmlns:xlink="http://www.w3.org/1999/xlink">
	<desc>
			Created with Pixso.
	</desc>
	<defs/>
	<path id="Vector" d="M13 0C9.46875 0 9.02539 0.0153809 7.63867 0.0805664C6.25586 0.145752 5.31055 0.37207 4.48438 0.703125C3.62891 1.04517 2.9043 1.50317 2.18164 2.24756C1.45898 2.99194 1.01367 3.73877 0.681641 4.61938C0.361328 5.47119 0.140625 6.44458 0.078125 7.87012C0.015625 9.29834 0 9.75439 0 13.3911C0 17.0281 0.015625 17.4841 0.078125 18.9124C0.140625 20.3376 0.361328 21.311 0.681641 22.1628C1.01367 23.0435 1.45898 23.7903 2.18164 24.5347C2.9043 25.2793 3.62891 25.7371 4.48438 26.0793C5.31055 26.4104 6.25586 26.6367 7.63867 26.7017C9.02539 26.7668 9.46875 26.7822 13 26.7822C16.5293 26.7822 16.9727 26.7668 18.3594 26.7017C19.7422 26.6367 20.6875 26.4104 21.5137 26.0793C22.3691 25.7371 23.0938 25.2793 23.8164 24.5347C24.5391 23.7903 24.9844 23.0435 25.3164 22.1628C25.6367 21.311 25.8574 20.3376 25.9199 18.9124C25.9824 17.4841 25.998 17.0281 25.998 13.3911C25.998 9.75439 25.9824 9.29834 25.9199 7.87012C25.8574 6.44458 25.6367 5.47119 25.3164 4.61938C24.9844 3.73877 24.5391 2.99194 23.8164 2.24756C23.0938 1.50317 22.3691 1.04517 21.5137 0.703125C20.6875 0.37207 19.7422 0.145752 18.3594 0.0805664C16.9727 0.0153809 16.5293 0 13 0ZM13 2.41284C16.4707 2.41284 16.8809 2.42651 18.252 2.49097C19.5195 2.55054 20.207 2.76855 20.666 2.9519C21.2715 3.19482 21.7051 3.48511 22.1602 3.95361C22.6152 4.42236 22.8965 4.86841 23.1328 5.49341C23.3105 5.96533 23.5215 6.67432 23.5801 7.97998C23.6426 9.39209 23.6562 9.81567 23.6562 13.3911C23.6562 16.9668 23.6426 17.3904 23.5801 18.8022C23.5215 20.1079 23.3105 20.8171 23.1328 21.2888C22.8965 21.9141 22.6152 22.3601 22.1602 22.8286C21.7051 23.2971 21.2715 23.5874 20.666 23.8303C20.207 24.0137 19.5195 24.2319 18.252 24.2915C16.8809 24.356 16.4707 24.3696 13 24.3696C9.52734 24.3696 9.11719 24.356 7.74609 24.2915C6.47852 24.2319 5.79102 24.0137 5.33203 23.8303C4.72656 23.5874 4.29297 23.2971 3.83789 22.8286C3.38281 22.3601 3.10156 21.9141 2.86523 21.2888C2.6875 20.8171 2.47656 20.1079 2.41797 18.8022C2.35547 17.3904 2.3418 16.9668 2.3418 13.3911C2.3418 9.81567 2.35547 9.39209 2.41797 7.97998C2.47656 6.67432 2.6875 5.96533 2.86523 5.49341C3.10156 4.86841 3.38281 4.42236 3.83789 3.95361C4.29297 3.48511 4.72656 3.19482 5.33203 2.9519C5.79102 2.76855 6.47852 2.55054 7.74609 2.49097C9.11719 2.42651 9.52734 2.41284 13 2.41284Z" fill="#2B2B2B" fill-opacity="1.000000" fill-rule="nonzero"/>
	<path id="Vector" d="M13 0C9.46875 0 9.02539 0.0153809 7.63867 0.0805664C6.25586 0.145752 5.31055 0.37207 4.48438 0.703125C3.62891 1.04517 2.9043 1.50317 2.18164 2.24756C1.45898 2.99194 1.01367 3.73877 0.681641 4.61938C0.361328 5.47119 0.140625 6.44458 0.078125 7.87012C0.015625 9.29834 0 9.75439 0 13.3911C0 17.0281 0.015625 17.4841 0.078125 18.9124C0.140625 20.3376 0.361328 21.311 0.681641 22.1628C1.01367 23.0435 1.45898 23.7903 2.18164 24.5347C2.9043 25.2793 3.62891 25.7371 4.48438 26.0793C5.31055 26.4104 6.25586 26.6367 7.63867 26.7017C9.02539 26.7668 9.46875 26.7822 13 26.7822C16.5293 26.7822 16.9727 26.7668 18.3594 26.7017C19.7422 26.6367 20.6875 26.4104 21.5137 26.0793C22.3691 25.7371 23.0938 25.2793 23.8164 24.5347C24.5391 23.7903 24.9844 23.0435 25.3164 22.1628C25.6367 21.311 25.8574 20.3376 25.9199 18.9124C25.9824 17.4841 25.998 17.0281 25.998 13.3911C25.998 9.75439 25.9824 9.29834 25.9199 7.87012C25.8574 6.44458 25.6367 5.47119 25.3164 4.61938C24.9844 3.73877 24.5391 2.99194 23.8164 2.24756C23.0938 1.50317 22.3691 1.04517 21.5137 0.703125C20.6875 0.37207 19.7422 0.145752 18.3594 0.0805664C16.9727 0.0153809 16.5293 0 13 0ZM7.6875 1.0957L7.6875 1.0957Q9.37891 1.01611 13 1.01611Q16.6211 1.01611 18.3105 1.0957Q19.9531 1.17285 21.1367 1.64648Q21.666 1.85864 22.1348 2.16577Q22.6484 2.50317 23.0879 2.95532Q23.3984 3.27588 23.6543 3.63574Q24.0898 4.24951 24.3652 4.97803Q24.8301 6.20874 24.9043 7.91504Q24.9824 9.65869 24.9824 13.3911Q24.9824 17.1238 24.9043 18.8674Q24.8301 20.5735 24.3652 21.8042Q24.0898 22.5327 23.6543 23.1465Q23.3984 23.5063 23.0879 23.8269Q22.6484 24.2793 22.1328 24.6169Q21.666 24.9238 21.1367 25.136Q19.9531 25.6094 18.3105 25.6868Q16.6211 25.7661 13 25.7661Q9.37891 25.7661 7.6875 25.6868Q6.04492 25.6096 4.86133 25.136Q4.33203 24.9236 3.86328 24.616Q3.34961 24.2788 2.91016 23.8269Q2.59961 23.5063 2.34375 23.1462Q1.9082 22.5325 1.63281 21.8042Q1.16992 20.5737 1.09375 18.8674Q1.01562 17.1248 1.01562 13.3911Q1.01562 9.65747 1.09375 7.91504Q1.16992 6.2085 1.63281 4.97803Q1.9082 4.24951 2.34375 3.6355Q2.59961 3.27563 2.91016 2.95532Q3.34961 2.50366 3.86328 2.16626Q4.33203 1.85889 4.86133 1.64648Q6.04492 1.17285 7.6875 1.0957ZM21.043 2.00854Q19.9004 1.55103 18.2988 1.47583Q16.6152 1.39673 13 1.39673Q9.38281 1.39673 7.69922 1.47583Q6.09766 1.55103 4.95508 2.00854Q4.42383 2.22095 3.96094 2.53247Q3.50195 2.84058 3.10938 3.24585Q2.80273 3.56128 2.55469 3.91699Q2.16406 4.47607 1.91406 5.13477Q1.47461 6.30005 1.40234 7.93506Q1.32617 9.66772 1.32617 13.3911Q1.32617 17.1145 1.40234 18.8474Q1.47461 20.4824 1.91406 21.6475Q2.16211 22.3057 2.55273 22.8645Q2.80273 23.2207 3.10938 23.5364Q3.5 23.9404 3.95898 24.248Q4.42383 24.5608 4.95508 24.7737Q6.09766 25.2312 7.69922 25.3064Q9.38281 25.3857 13 25.3857Q16.6152 25.3857 18.2988 25.3064Q19.9004 25.2312 21.043 24.7737Q21.5762 24.5603 22.043 24.2463Q22.498 23.9395 22.8887 23.5364Q23.1953 23.2222 23.4414 22.8679Q23.834 22.3079 24.084 21.6477Q24.5234 20.4824 24.5957 18.8474Q24.6719 17.1135 24.6719 13.3911Q24.6719 9.66895 24.5957 7.93506Q24.5234 6.30005 24.084 5.13477Q23.834 4.47339 23.4414 3.91235Q23.1934 3.55933 22.8887 3.24585Q22.498 2.8418 22.0391 2.53418Q21.5742 2.22144 21.043 2.00854ZM13 2.41284C16.4707 2.41284 16.8809 2.42651 18.252 2.49097C19.5195 2.55054 20.207 2.76855 20.666 2.9519C21.2715 3.19482 21.7051 3.48511 22.1602 3.95361C22.6152 4.42236 22.8965 4.86841 23.1328 5.49341C23.3105 5.96533 23.5215 6.67432 23.5801 7.97998C23.6426 9.39209 23.6562 9.81567 23.6562 13.3911C23.6562 16.9668 23.6426 17.3904 23.5801 18.8022C23.5215 20.1079 23.3105 20.8171 23.1328 21.2888C22.8965 21.9141 22.6152 22.3601 22.1602 22.8286C21.7051 23.2971 21.2715 23.5874 20.666 23.8303C20.207 24.0137 19.5195 24.2319 18.252 24.2915C16.8809 24.356 16.4707 24.3696 13 24.3696C9.52734 24.3696 9.11719 24.356 7.74609 24.2915C6.47852 24.2319 5.79102 24.0137 5.33203 23.8303C4.72656 23.5874 4.29297 23.2971 3.83789 22.8286C3.38281 22.3601 3.10156 21.9141 2.86523 21.2888C2.6875 20.8171 2.47656 20.1079 2.41797 18.8022C2.35547 17.3904 2.3418 16.9668 2.3418 13.3911C2.3418 9.81567 2.35547 9.39209 2.41797 7.97998C2.47656 6.67432 2.6875 5.96533 2.86523 5.49341C3.10156 4.86841 3.38281 4.42236 3.83789 3.95361C4.29297 3.48511 4.72656 3.19482 5.33203 2.9519C5.79102 2.76855 6.47852 2.55054 7.74609 2.49097C9.11719 2.42651 9.52734 2.41284 13 2.41284Z" fill="#2B2B2B" fill-opacity="1.000000" fill-rule="evenodd"/>
	<path id="Vector" d="M13 17.8552C10.6055 17.8552 8.66602 15.8567 8.66602 13.3914C8.66602 10.9263 10.6055 8.92773 13 8.92773C15.3926 8.92773 17.332 10.9263 17.332 13.3914C17.332 15.8567 15.3926 17.8552 13 17.8552ZM13 6.51489C9.3125 6.51489 6.32422 9.59351 6.32422 13.3914C6.32422 17.1892 9.3125 20.2681 13 20.2681C16.6855 20.2681 19.6738 17.1892 19.6738 13.3914C19.6738 9.59351 16.6855 6.51489 13 6.51489Z" fill="#2B2B2B" fill-opacity="1.000000" fill-rule="nonzero"/>
	<path id="Vector" d="M13 6.51489C9.3125 6.51489 6.32422 9.59351 6.32422 13.3914C6.32422 17.1892 9.3125 20.2681 13 20.2681C16.6855 20.2681 19.6738 17.1892 19.6738 13.3914C19.6738 9.59351 16.6855 6.51489 13 6.51489ZM7.50195 14.792Q7.33984 14.1108 7.33984 13.3914Q7.33984 12.6719 7.50195 11.9907Q7.60938 11.5374 7.78906 11.1008Q8.02539 10.5251 8.36719 10.0217Q8.65234 9.60449 9.00781 9.23682Q9.49219 8.73755 10.0645 8.37817Q10.4199 8.15576 10.8066 7.98682Q11.3008 7.77148 11.8184 7.65796Q12.3945 7.53101 13 7.53101Q13.6035 7.53101 14.1816 7.65796Q14.6973 7.77148 15.1914 7.98682Q15.5801 8.15576 15.9336 8.37817Q16.5059 8.73755 16.9902 9.23682Q17.3477 9.60449 17.6309 10.0217Q17.9746 10.5251 18.2109 11.1008Q18.3887 11.5374 18.4961 11.9907Q18.6582 12.6719 18.6582 13.3914Q18.6582 14.1108 18.4961 14.792Q18.3887 15.2456 18.2109 15.6821Q17.9746 16.2578 17.6309 16.7612Q17.3477 17.1785 16.9902 17.5461Q16.5059 18.0452 15.9336 18.4048Q15.5801 18.627 15.1914 18.7959Q14.6973 19.0115 14.1816 19.125Q13.6035 19.2517 13 19.2517Q12.3945 19.2517 11.8184 19.125Q11.3008 19.0112 10.8066 18.7959Q10.4199 18.627 10.0645 18.4045Q9.49219 18.0452 9.00781 17.5461Q8.65234 17.1785 8.36719 16.7612Q8.02539 16.2578 7.78906 15.6821Q7.60938 15.2456 7.50195 14.792ZM7.78516 12.1575Q7.65039 12.7593 7.65039 13.3914Q7.65039 14.0237 7.78516 14.6252Q7.88867 15.0789 8.06641 15.5149Q8.28125 16.0378 8.58984 16.4976Q8.86133 16.9011 9.20703 17.2556Q9.63672 17.698 10.1406 18.0247Q10.5039 18.2605 10.9062 18.436Q11.3887 18.6455 11.8906 18.7542Q12.4316 18.8713 13 18.8713Q13.5664 18.8713 14.1074 18.7542Q14.6113 18.6455 15.0918 18.436Q15.4941 18.2605 15.8594 18.0247Q16.3633 17.698 16.793 17.2556Q17.1367 16.9011 17.4082 16.4976Q17.7168 16.0381 17.9316 15.5149Q18.1113 15.0789 18.2129 14.6252Q18.3496 14.0237 18.3496 13.3914Q18.3496 12.7593 18.2129 12.1575Q18.1113 11.7041 17.9316 11.2681Q17.7168 10.7449 17.4082 10.2852Q17.1367 9.88184 16.793 9.52734Q16.3633 9.08496 15.8594 8.75806Q15.4941 8.52246 15.0918 8.34692Q14.6113 8.13745 14.1074 8.02856Q13.5664 7.91162 13 7.91162Q12.4316 7.91162 11.8906 8.02856Q11.3887 8.13745 10.9062 8.34692Q10.5039 8.52246 10.1406 8.75806Q9.63672 9.08496 9.20703 9.52734Q8.86133 9.88184 8.5918 10.2852Q8.28125 10.7449 8.06641 11.2681Q7.88867 11.7041 7.78516 12.1575ZM13 17.8552C10.6055 17.8552 8.66602 15.8567 8.66602 13.3914C8.66602 10.9263 10.6055 8.92773 13 8.92773C15.3926 8.92773 17.332 10.9263 17.332 13.3914C17.332 15.8567 15.3926 17.8552 13 17.8552Z" fill="#2B2B2B" fill-opacity="1.000000" fill-rule="evenodd"/>
	<path id="Vector" d="M21.498 6.24292C21.498 7.13037 20.8008 7.84985 19.9395 7.84985C19.0781 7.84985 18.3789 7.13037 18.3789 6.24292C18.3789 5.35547 19.0781 4.63599 19.9395 4.63599C20.8008 4.63599 21.498 5.35547 21.498 6.24292Z" fill="#2B2B2B" fill-opacity="1.000000" fill-rule="nonzero"/>
	<path id="Vector" d="M19.9395 7.84985C20.8008 7.84985 21.498 7.13037 21.498 6.24292C21.498 5.35547 20.8008 4.63599 19.9395 4.63599C19.0781 4.63599 18.3789 5.35547 18.3789 6.24292C18.3789 7.13037 19.0781 7.84985 19.9395 7.84985ZM20.1133 6.80396Q20.0312 6.83374 19.9395 6.83374Q19.8457 6.83374 19.7656 6.80396Q19.6543 6.7644 19.5645 6.67139Q19.4922 6.59595 19.4492 6.50586Q19.3945 6.38696 19.3945 6.24292Q19.3945 6.09863 19.4492 5.97998Q19.4922 5.88989 19.5645 5.81445Q19.6543 5.72144 19.7656 5.68188Q19.8457 5.6521 19.9395 5.6521Q20.0312 5.6521 20.1133 5.68188Q20.2227 5.72144 20.3125 5.81445Q20.3867 5.88989 20.4277 5.97998Q20.4824 6.09863 20.4824 6.24292Q20.4824 6.38696 20.4277 6.50586Q20.3867 6.59595 20.3125 6.67139Q20.2227 6.7644 20.1133 6.80396Z" fill="#2B2B2B" fill-opacity="1.000000" fill-rule="evenodd"/>
</svg>
