<svg width="35.000000" height="26.784180" viewBox="0 0 35 26.7842" fill="none" xmlns="http://www.w3.org/2000/svg" xmlns:xlink="http://www.w3.org/1999/xlink">
	<desc>
			Created with Pixso.
	</desc>
	<defs/>
	<path id="Vector" d="M24.0059 3.56934C24.7324 3.5791 25.4492 3.73828 26.1152 4.03809C26.7793 4.33691 27.3789 4.76855 27.877 5.30859C27.877 5.30859 29.9883 4.88574 31.1543 4.04883C31.1543 4.04883 30.8613 5.70605 28.918 6.97559L28.9355 6.97559C29.084 6.97559 30.1738 6.94727 31.8867 6.12891C31.8867 6.12891 31.5586 7.08496 29.3164 8.90332C29.4512 13.2061 27.3652 21.1592 19.6406 23.9902C17.9453 24.623 16.1543 24.9502 14.3477 24.957C11.4531 24.9707 8.61914 24.1211 6.19141 22.5127C6.60742 22.5547 6.98047 22.5547 7.35352 22.5547C11.9199 22.5547 14.1309 20.1641 14.0098 20.1641L13.8418 20.1641C9.9707 20.1641 9.0293 16.3857 9.0293 16.3857C9.33789 16.5771 9.69727 16.668 10.0605 16.6455C10.5273 16.6357 10.9922 16.5664 11.4414 16.4395C7.07422 15.3857 7.23633 11.1113 7.23633 11.1113C7.82812 11.5127 8.51758 11.7344 9.22852 11.748C9.34375 11.75 9.46094 11.7402 9.57617 11.7197C5.58594 8.5 7.98828 4.65723 7.98828 4.65723C12.4844 9.97754 18.0098 10.167 18.7695 10.167L18.8613 10.167C18.4531 7.66895 19.4609 5.26953 22.1797 3.96387C22.7461 3.69824 23.3633 3.56348 23.9863 3.56934L24.0059 3.56934ZM33.6973 0L30.123 2.55957C29.5781 2.89355 28.9883 3.14551 28.3711 3.30664C27.1191 2.31055 25.582 1.76172 23.9941 1.74512C23.1074 1.73633 22.2305 1.92969 21.4238 2.30859C18.8867 3.52441 17.3438 5.62207 17.0371 8.13965C14.0332 7.50781 11.3262 5.85938 9.35547 3.46191L7.7793 1.59863L6.48047 3.66504C5.64258 5.07227 5.31055 6.73242 5.53906 8.3623L5.4375 11.0488C5.41406 12.7549 5.9707 14.416 7.00977 15.752L7.28711 16.8516C7.68359 18.2715 8.48828 19.5371 9.59766 20.4854C8.85938 20.6504 8.10547 20.7314 7.34961 20.7275C7.02148 20.7275 6.68164 20.7139 6.33789 20.6855L0 20.1475L5.12891 23.9902C7.86523 25.8262 11.0723 26.7979 14.3477 26.7842C16.3633 26.7783 18.3633 26.416 20.2578 25.7129C24.0586 24.3291 27.1934 21.5137 29.0215 17.8438C30.2852 15.3379 30.998 12.582 31.1133 9.7666C32.9453 8.15625 33.4492 7.12988 33.584 6.73828L35 2.63086L33.0645 3.5498L33.6973 0Z" fill="#FFFFFF" fill-opacity="1.000000" fill-rule="nonzero"/>
</svg>
